<ttFont>
    <TTGlyph name=".notdef" xMin="231" yMin="0" xMax="1647" yMax="1416">
      <contour>
        <pt x="231" y="1416" on="1"/>
        <pt x="1647" y="1416" on="1"/>
        <pt x="1647" y="0" on="1"/>
        <pt x="231" y="0" on="1"/>
      </contour>
      <contour>
        <pt x="589" y="219" on="1"/>
        <pt x="936" y="587" on="1"/>
        <pt x="1298" y="219" on="1"/>
        <pt x="1420" y="341" on="1"/>
        <pt x="1057" y="709" on="1"/>
        <pt x="1420" y="1067" on="1"/>
        <pt x="1292" y="1191" on="1"/>
        <pt x="940" y="825" on="1"/>
        <pt x="583" y="1193" on="1"/>
        <pt x="460" y="1068" on="1"/>
        <pt x="819" y="705" on="1"/>
        <pt x="461" y="363" on="1"/>
      </contour>
    </TTGlyph>
    <TTGlyph name="A" xMin="-19" yMin="0" xMax="1479" yMax="1532">
      <contour>
        <pt x="511" y="1532" on="1"/>
        <pt x="945" y="1532" on="1"/>
        <pt x="1479" y="0" on="1"/>
        <pt x="1075" y="0" on="1"/>
        <pt x="991" y="284" on="1"/>
        <pt x="460" y="284" on="1"/>
        <pt x="380" y="0" on="1"/>
        <pt x="-19" y="0" on="1"/>
      </contour>
      <contour>
        <pt x="912" y="550" on="1"/>
        <pt x="771" y="1027" on="1"/>
        <pt x="721" y="1224" on="1"/>
        <pt x="670" y="1027" on="1"/>
        <pt x="535" y="550" on="1"/>
      </contour>
    </TTGlyph>
    <TTGlyph name="AE" xMin="-119" yMin="0" xMax="1883" yMax="1522">
      <contour>
        <pt x="602" y="1522" on="1"/>
        <pt x="1822" y="1522" on="1"/>
        <pt x="1822" y="1238" on="1"/>
        <pt x="1244" y="1238" on="1"/>
        <pt x="1244" y="919" on="1"/>
        <pt x="1688" y="919" on="1"/>
        <pt x="1688" y="642" on="1"/>
        <pt x="1244" y="642" on="1"/>
        <pt x="1244" y="291" on="1"/>
        <pt x="1883" y="291" on="1"/>
        <pt x="1883" y="0" on="1"/>
        <pt x="866" y="0" on="1"/>
        <pt x="866" y="318" on="1"/>
        <pt x="428" y="318" on="1"/>
        <pt x="291" y="0" on="1"/>
        <pt x="-119" y="0" on="1"/>
      </contour>
      <contour>
        <pt x="866" y="579" on="1"/>
        <pt x="866" y="1334" on="1"/>
        <pt x="540" y="579" on="1"/>
      </contour>
    </TTGlyph>
    <TTGlyph name="AEacute" xMin="-119" yMin="0" xMax="1883" yMax="1988">
      <component glyphName="acute.cap" x="809" y="0" flags="0x1004"/>
      <component glyphName="AE" x="0" y="0" flags="0x1004"/>
    </TTGlyph>
    <TTGlyph name="Aacute" xMin="-19" yMin="0" xMax="1479" yMax="1988">
      <component glyphName="A" x="0" y="0" flags="0x1204"/>
      <component glyphName="acute.cap" x="484" y="0" flags="0x1004"/>
    </TTGlyph>
    <TTGlyph name="Abreve" xMin="-19" yMin="0" xMax="1479" yMax="1964">
      <component glyphName="A" x="0" y="0" flags="0x1204"/>
      <component glyphName="breve.cap" x="317" y="0" flags="0x1004"/>
    </TTGlyph>
    <TTGlyph name="Acircumflex" xMin="-19" yMin="0" xMax="1479" yMax="1964">
      <component glyphName="A" x="0" y="0" flags="0x1204"/>
      <component glyphName="circumflex.cap" x="286" y="0" flags="0x1004"/>
    </TTGlyph>
    <TTGlyph name="Adieresis" xMin="-19" yMin="0" xMax="1479" yMax="1964">
      <component glyphName="A" x="0" y="0" flags="0x1204"/>
      <component glyphName="dieresis.cap" x="212" y="0" flags="0x1004"/>
    </TTGlyph>
    <TTGlyph name="Agrave" xMin="-19" yMin="0" xMax="1479" yMax="1988">
      <component glyphName="A" x="0" y="0" flags="0x1204"/>
      <component glyphName="grave.cap" x="302" y="0" flags="0x1004"/>
    </TTGlyph>
    <TTGlyph name="Amacron" xMin="-19" yMin="0" xMax="1479" yMax="1909">
      <component glyphName="A" x="0" y="0" flags="0x1204"/>
      <component glyphName="macron.cap" x="370" y="0" flags="0x1004"/>
    </TTGlyph>
    <TTGlyph name="Aogonek" xMin="-19" yMin="-516" xMax="1479" yMax="1532">
      <contour>
        <pt x="1475" y="-449" on="1"/>
        <pt x="1368" y="-516" on="0"/>
        <pt x="1217" y="-516" on="1"/>
        <pt x="1102" y="-516" on="0"/>
        <pt x="1024" y="-461" on="1"/>
        <pt x="936" y="-400" on="0"/>
        <pt x="936" y="-298" on="1"/>
        <pt x="936" y="-118" on="0"/>
        <pt x="1172" y="0" on="1"/>
        <pt x="1075" y="0" on="1"/>
        <pt x="991" y="284" on="1"/>
        <pt x="460" y="284" on="1"/>
        <pt x="380" y="0" on="1"/>
        <pt x="-19" y="0" on="1"/>
        <pt x="511" y="1532" on="1"/>
        <pt x="945" y="1532" on="1"/>
        <pt x="1479" y="0" on="1"/>
        <pt x="1412" y="0" on="1"/>
        <pt x="1241" y="-95" on="0"/>
        <pt x="1241" y="-202" on="1"/>
        <pt x="1241" y="-299" on="0"/>
        <pt x="1366" y="-299" on="1"/>
        <pt x="1413" y="-299" on="0"/>
        <pt x="1475" y="-279" on="1"/>
      </contour>
      <contour>
        <pt x="912" y="550" on="1"/>
        <pt x="771" y="1027" on="1"/>
        <pt x="721" y="1224" on="1"/>
        <pt x="670" y="1027" on="1"/>
        <pt x="535" y="550" on="1"/>
      </contour>
    </TTGlyph>
    <TTGlyph name="Aring" xMin="-19" yMin="0" xMax="1479" yMax="1977">
      <contour>
        <pt x="1090" y="1688" on="1"/>
        <pt x="1088" y="1532" on="0"/>
        <pt x="971" y="1456" on="1"/>
        <pt x="1479" y="0" on="1"/>
        <pt x="1075" y="0" on="1"/>
        <pt x="991" y="284" on="1"/>
        <pt x="460" y="284" on="1"/>
        <pt x="380" y="0" on="1"/>
        <pt x="-19" y="0" on="1"/>
        <pt x="483" y="1451" on="1"/>
        <pt x="363" y="1527" on="0"/>
        <pt x="363" y="1685" on="1"/>
        <pt x="363" y="1842" on="0"/>
        <pt x="482" y="1917" on="1"/>
        <pt x="578" y="1977" on="0"/>
        <pt x="732" y="1977" on="1"/>
        <pt x="993" y="1977" on="0"/>
        <pt x="1066" y="1816" on="1"/>
        <pt x="1090" y="1761" on="0"/>
      </contour>
      <contour>
        <pt x="568" y="1628" on="0"/>
        <pt x="657" y="1563" on="0"/>
        <pt x="762" y="1563" on="0"/>
        <pt x="821" y="1571" on="0"/>
        <pt x="842" y="1584" on="1"/>
        <pt x="886" y="1611" on="0"/>
        <pt x="886" y="1685" on="1"/>
        <pt x="886" y="1780" on="0"/>
        <pt x="790" y="1806" on="1"/>
        <pt x="760" y="1814" on="0"/>
        <pt x="695" y="1814" on="0"/>
        <pt x="638" y="1805" on="0"/>
        <pt x="616" y="1792" on="1"/>
        <pt x="568" y="1762" on="0"/>
      </contour>
      <contour>
        <pt x="912" y="550" on="1"/>
        <pt x="771" y="1027" on="1"/>
        <pt x="721" y="1224" on="1"/>
        <pt x="670" y="1027" on="1"/>
        <pt x="535" y="550" on="1"/>
      </contour>
    </TTGlyph>
    <TTGlyph name="Atilde" xMin="-19" yMin="0" xMax="1479" yMax="1963">
      <component glyphName="A" x="0" y="0" flags="0x1204"/>
      <component glyphName="tilde.cap" x="267" y="0" flags="0x1004"/>
    </TTGlyph>
    <TTGlyph name="B" xMin="173" yMin="-14" xMax="1387" yMax="1537">
      <contour>
        <pt x="1181" y="56" on="0"/>
        <pt x="939" y="-14" on="0"/>
        <pt x="582" y="-14" on="0"/>
        <pt x="365" y="0" on="1"/>
        <pt x="173" y="0" on="1"/>
        <pt x="173" y="1523" on="1"/>
        <pt x="358" y="1522" on="1"/>
        <pt x="721" y="1537" on="1"/>
        <pt x="1306" y="1537" on="0"/>
        <pt x="1306" y="1145" on="1"/>
        <pt x="1306" y="951" on="0"/>
        <pt x="1178" y="852" on="1"/>
        <pt x="1135" y="820" on="0"/>
        <pt x="1078" y="804" on="1"/>
        <pt x="1213" y="788" on="0"/>
        <pt x="1298" y="697" on="1"/>
        <pt x="1387" y="603" on="0"/>
        <pt x="1387" y="356" on="0"/>
        <pt x="1327" y="182" on="0"/>
      </contour>
      <contour>
        <pt x="943" y="1204" on="0"/>
        <pt x="808" y="1281" on="0"/>
        <pt x="574" y="1281" on="0"/>
        <pt x="551" y="1268" on="1"/>
        <pt x="551" y="903" on="1"/>
        <pt x="583" y="895" on="0"/>
        <pt x="759" y="895" on="0"/>
        <pt x="850" y="917" on="0"/>
        <pt x="881" y="942" on="1"/>
        <pt x="943" y="994" on="0"/>
      </contour>
      <contour>
        <pt x="997" y="458" on="1"/>
        <pt x="997" y="660" on="0"/>
        <pt x="728" y="660" on="1"/>
        <pt x="587" y="660" on="0"/>
        <pt x="551" y="652" on="1"/>
        <pt x="551" y="258" on="1"/>
        <pt x="589" y="235" on="0"/>
        <pt x="868" y="235" on="0"/>
        <pt x="997" y="339" on="0"/>
      </contour>
    </TTGlyph>
    <TTGlyph name="C" xMin="85" yMin="-16" xMax="1262" yMax="1538">
      <contour>
        <pt x="1212" y="1148" on="1"/>
        <pt x="1084" y="1236" on="0"/>
        <pt x="895" y="1236" on="1"/>
        <pt x="714" y="1236" on="0"/>
        <pt x="600" y="1118" on="1"/>
        <pt x="480" y="995" on="0"/>
        <pt x="480" y="781" on="1"/>
        <pt x="480" y="550" on="0"/>
        <pt x="589" y="417" on="1"/>
        <pt x="703" y="278" on="0"/>
        <pt x="911" y="278" on="1"/>
        <pt x="1051" y="278" on="0"/>
        <pt x="1186" y="343" on="1"/>
        <pt x="1222" y="360" on="0"/>
        <pt x="1241" y="376" on="1"/>
        <pt x="1242" y="64" on="1"/>
        <pt x="1102" y="8" on="0"/>
        <pt x="935" y="-16" on="0"/>
        <pt x="868" y="-16" on="1"/>
        <pt x="496" y="-16" on="0"/>
        <pt x="288" y="194" on="1"/>
        <pt x="85" y="399" on="0"/>
        <pt x="85" y="758" on="1"/>
        <pt x="85" y="1131" on="0"/>
        <pt x="312" y="1341" on="1"/>
        <pt x="524" y="1538" on="0"/>
        <pt x="864" y="1538" on="1"/>
        <pt x="1039" y="1538" on="0"/>
        <pt x="1190" y="1494" on="1"/>
        <pt x="1227" y="1484" on="0"/>
        <pt x="1262" y="1477" on="1"/>
      </contour>
    </TTGlyph>
    <TTGlyph name="Cacute" xMin="85" yMin="-16" xMax="1262" yMax="1988">
      <component glyphName="C" x="0" y="0" flags="0x1204"/>
      <component glyphName="acute.cap" x="593" y="0" flags="0x1004"/>
    </TTGlyph>
    <TTGlyph name="Ccaron" xMin="85" yMin="-16" xMax="1262" yMax="1964">
      <component glyphName="C" x="0" y="0" flags="0x1204"/>
      <component glyphName="caron.cap" x="398" y="0" flags="0x1004"/>
    </TTGlyph>
    <TTGlyph name="Ccedilla" xMin="85" yMin="-464" xMax="1262" yMax="1538">
      <contour>
        <pt x="537" y="-255" on="1"/>
        <pt x="560" y="-269" on="0"/>
        <pt x="660" y="-269" on="0"/>
        <pt x="694" y="-232" on="1"/>
        <pt x="728" y="-193" on="0"/>
        <pt x="728" y="-107" on="1"/>
        <pt x="728" y="-50" on="0"/>
        <pt x="710" y="-5" on="1"/>
        <pt x="411" y="39" on="0"/>
        <pt x="246" y="241" on="1"/>
        <pt x="85" y="440" on="0"/>
        <pt x="85" y="758" on="1"/>
        <pt x="85" y="1131" on="0"/>
        <pt x="312" y="1341" on="1"/>
        <pt x="524" y="1538" on="0"/>
        <pt x="864" y="1538" on="1"/>
        <pt x="1039" y="1538" on="0"/>
        <pt x="1190" y="1494" on="1"/>
        <pt x="1227" y="1484" on="0"/>
        <pt x="1262" y="1477" on="1"/>
        <pt x="1212" y="1148" on="1"/>
        <pt x="1084" y="1236" on="0"/>
        <pt x="895" y="1236" on="1"/>
        <pt x="714" y="1236" on="0"/>
        <pt x="600" y="1118" on="1"/>
        <pt x="480" y="995" on="0"/>
        <pt x="480" y="781" on="1"/>
        <pt x="480" y="550" on="0"/>
        <pt x="589" y="417" on="1"/>
        <pt x="703" y="278" on="0"/>
        <pt x="911" y="278" on="1"/>
        <pt x="1051" y="278" on="0"/>
        <pt x="1186" y="343" on="1"/>
        <pt x="1222" y="360" on="0"/>
        <pt x="1241" y="376" on="1"/>
        <pt x="1242" y="64" on="1"/>
        <pt x="1084" y="-3" on="0"/>
        <pt x="935" y="-14" on="1"/>
        <pt x="970" y="-92" on="0"/>
        <pt x="969" y="-280" on="0"/>
        <pt x="927" y="-374" on="0"/>
        <pt x="891" y="-404" on="1"/>
        <pt x="821" y="-464" on="0"/>
        <pt x="705" y="-464" on="1"/>
        <pt x="623" y="-464" on="0"/>
        <pt x="524" y="-442" on="0"/>
        <pt x="514" y="-436" on="1"/>
      </contour>
    </TTGlyph>
    <TTGlyph name="Ccircumflex" xMin="85" yMin="-16" xMax="1262" yMax="1964">
      <component glyphName="C" x="0" y="0" flags="0x1204"/>
      <component glyphName="circumflex.cap" x="395" y="0" flags="0x1004"/>
    </TTGlyph>
    <TTGlyph name="Cdotaccent" xMin="85" yMin="-16" xMax="1262" yMax="1963">
      <component glyphName="dotaccent.cap" x="581" y="0" flags="0x1004"/>
      <component glyphName="C" x="0" y="0" flags="0x1004"/>
    </TTGlyph>
    <TTGlyph name="D" xMin="173" yMin="-17" xMax="1477" yMax="1538">
      <contour>
        <pt x="713" y="-16" on="1"/>
        <pt x="307" y="0" on="1"/>
        <pt x="173" y="0" on="1"/>
        <pt x="173" y="1522" on="1"/>
        <pt x="313" y="1522" on="1"/>
        <pt x="730" y="1538" on="1"/>
        <pt x="1294" y="1538" on="0"/>
        <pt x="1432" y="1112" on="1"/>
        <pt x="1477" y="974" on="0"/>
        <pt x="1477" y="604" on="0"/>
        <pt x="1425" y="452" on="1"/>
        <pt x="1321" y="147" on="0"/>
        <pt x="1032" y="38" on="1"/>
        <pt x="892" y="-16" on="0"/>
      </contour>
      <contour>
        <pt x="724" y="1263" on="1"/>
        <pt x="640" y="1263" on="0"/>
        <pt x="556" y="1250" on="1"/>
        <pt x="556" y="280" on="1"/>
        <pt x="610" y="265" on="0"/>
        <pt x="810" y="265" on="0"/>
        <pt x="940" y="325" on="0"/>
        <pt x="986" y="386" on="1"/>
        <pt x="1081" y="514" on="0"/>
        <pt x="1081" y="765" on="1"/>
        <pt x="1081" y="1035" on="0"/>
        <pt x="990" y="1152" on="1"/>
        <pt x="905" y="1263" on="0"/>
      </contour>
    </TTGlyph>
    <TTGlyph name="Dcaron" xMin="173" yMin="-17" xMax="1477" yMax="1964">
      <component glyphName="caron.cap" x="335" y="0" flags="0x1004"/>
      <component glyphName="D" x="0" y="0" flags="0x1004"/>
    </TTGlyph>
    <TTGlyph name="Dcroat" xMin="60" yMin="-17" xMax="1477" yMax="1538">
      <component glyphName="Eth" x="0" y="0" flags="0x1204"/>
    </TTGlyph>
    <TTGlyph name="Delta" xMin="78" yMin="0" xMax="1544" yMax="1508">
      <contour>
        <pt x="769" y="1508" on="1"/>
        <pt x="809" y="1508" on="1"/>
        <pt x="1544" y="27" on="1"/>
        <pt x="1528" y="0" on="1"/>
        <pt x="92" y="0" on="1"/>
        <pt x="78" y="22" on="1"/>
      </contour>
      <contour>
        <pt x="1071" y="290" on="1"/>
        <pt x="783" y="892" on="1"/>
        <pt x="513" y="290" on="1"/>
      </contour>
    </TTGlyph>
    <TTGlyph name="E" xMin="173" yMin="0" xMax="1195" yMax="1522">
      <contour>
        <pt x="173" y="1522" on="1"/>
        <pt x="1135" y="1522" on="1"/>
        <pt x="1135" y="1238" on="1"/>
        <pt x="550" y="1238" on="1"/>
        <pt x="550" y="916" on="1"/>
        <pt x="1001" y="916" on="1"/>
        <pt x="1001" y="639" on="1"/>
        <pt x="550" y="639" on="1"/>
        <pt x="550" y="291" on="1"/>
        <pt x="1195" y="291" on="1"/>
        <pt x="1195" y="0" on="1"/>
        <pt x="173" y="0" on="1"/>
      </contour>
    </TTGlyph>
    <TTGlyph name="Eacute" xMin="173" yMin="0" xMax="1195" yMax="1988">
      <component glyphName="acute.cap" x="453" y="0" flags="0x1004"/>
      <component glyphName="E" x="0" y="0" flags="0x1004"/>
    </TTGlyph>
    <TTGlyph name="Ebreve" xMin="173" yMin="0" xMax="1195" yMax="1964">
      <component glyphName="breve.cap" x="287" y="0" flags="0x1004"/>
      <component glyphName="E" x="0" y="0" flags="0x1004"/>
    </TTGlyph>
    <TTGlyph name="Ecaron" xMin="173" yMin="0" xMax="1195" yMax="1964">
      <component glyphName="caron.cap" x="259" y="0" flags="0x1004"/>
      <component glyphName="E" x="0" y="0" flags="0x1004"/>
    </TTGlyph>
    <TTGlyph name="Ecircumflex" xMin="173" yMin="0" xMax="1195" yMax="1964">
      <component glyphName="E" x="0" y="0" flags="0x1204"/>
      <component glyphName="circumflex.cap" x="256" y="0" flags="0x1004"/>
    </TTGlyph>
    <TTGlyph name="Edieresis" xMin="173" yMin="0" xMax="1195" yMax="1964">
      <component glyphName="dieresis.cap" x="182" y="0" flags="0x1004"/>
      <component glyphName="E" x="0" y="0" flags="0x1004"/>
    </TTGlyph>
    <TTGlyph name="Edotaccent" xMin="173" yMin="0" xMax="1195" yMax="1963">
      <component glyphName="dotaccent.cap" x="441" y="0" flags="0x1004"/>
      <component glyphName="E" x="0" y="0" flags="0x1004"/>
    </TTGlyph>
    <TTGlyph name="Egrave" xMin="173" yMin="0" xMax="1195" yMax="1988">
      <component glyphName="grave.cap" x="272" y="0" flags="0x1004"/>
      <component glyphName="E" x="0" y="0" flags="0x1004"/>
    </TTGlyph>
    <TTGlyph name="Emacron" xMin="173" yMin="0" xMax="1195" yMax="1909">
      <component glyphName="macron.cap" x="340" y="0" flags="0x1004"/>
      <component glyphName="E" x="0" y="0" flags="0x1004"/>
    </TTGlyph>
    <TTGlyph name="Eng" xMin="172" yMin="-469" xMax="1457" yMax="1522">
      <contour>
        <pt x="172" y="1522" on="1"/>
        <pt x="536" y="1522" on="1"/>
        <pt x="1041" y="687" on="1"/>
        <pt x="1143" y="473" on="1"/>
        <pt x="1101" y="852" on="1"/>
        <pt x="1101" y="1522" on="1"/>
        <pt x="1457" y="1522" on="1"/>
        <pt x="1457" y="317" on="1"/>
        <pt x="1457" y="84" on="0"/>
        <pt x="1430" y="-52" on="0"/>
        <pt x="1389" y="-176" on="0"/>
        <pt x="1278" y="-310" on="0"/>
        <pt x="1198" y="-360" on="1"/>
        <pt x="1025" y="-469" on="0"/>
        <pt x="803" y="-469" on="1"/>
        <pt x="729" y="-326" on="1"/>
        <pt x="865" y="-288" on="0"/>
        <pt x="967" y="-196" on="1"/>
        <pt x="1076" y="-98" on="0"/>
        <pt x="1076" y="11" on="1"/>
        <pt x="587" y="815" on="1"/>
        <pt x="476" y="1053" on="1"/>
        <pt x="528" y="659" on="1"/>
        <pt x="528" y="0" on="1"/>
        <pt x="173" y="0" on="1"/>
      </contour>
    </TTGlyph>
    <TTGlyph name="Eogonek" xMin="173" yMin="-516" xMax="1198" yMax="1522">
      <contour>
        <pt x="1198" y="-449" on="1"/>
        <pt x="1091" y="-516" on="0"/>
        <pt x="940" y="-516" on="1"/>
        <pt x="825" y="-516" on="0"/>
        <pt x="746" y="-461" on="1"/>
        <pt x="659" y="-400" on="0"/>
        <pt x="659" y="-298" on="1"/>
        <pt x="659" y="-118" on="0"/>
        <pt x="895" y="0" on="1"/>
        <pt x="173" y="0" on="1"/>
        <pt x="173" y="1522" on="1"/>
        <pt x="1135" y="1522" on="1"/>
        <pt x="1135" y="1238" on="1"/>
        <pt x="550" y="1238" on="1"/>
        <pt x="550" y="916" on="1"/>
        <pt x="1001" y="916" on="1"/>
        <pt x="1001" y="639" on="1"/>
        <pt x="550" y="639" on="1"/>
        <pt x="550" y="291" on="1"/>
        <pt x="1195" y="291" on="1"/>
        <pt x="1195" y="0" on="1"/>
        <pt x="1135" y="0" on="1"/>
        <pt x="964" y="-95" on="0"/>
        <pt x="964" y="-202" on="1"/>
        <pt x="964" y="-299" on="0"/>
        <pt x="1089" y="-299" on="1"/>
        <pt x="1136" y="-299" on="0"/>
        <pt x="1198" y="-279" on="1"/>
      </contour>
    </TTGlyph>
    <TTGlyph name="Eth" xMin="60" yMin="-17" xMax="1477" yMax="1538">
      <contour>
        <pt x="713" y="-16" on="1"/>
        <pt x="307" y="0" on="1"/>
        <pt x="173" y="0" on="1"/>
        <pt x="173" y="675" on="1"/>
        <pt x="60" y="675" on="1"/>
        <pt x="60" y="913" on="1"/>
        <pt x="173" y="913" on="1"/>
        <pt x="173" y="1522" on="1"/>
        <pt x="313" y="1522" on="1"/>
        <pt x="730" y="1538" on="1"/>
        <pt x="1294" y="1538" on="0"/>
        <pt x="1432" y="1112" on="1"/>
        <pt x="1477" y="974" on="0"/>
        <pt x="1477" y="604" on="0"/>
        <pt x="1425" y="452" on="1"/>
        <pt x="1321" y="147" on="0"/>
        <pt x="1032" y="38" on="1"/>
        <pt x="892" y="-16" on="0"/>
      </contour>
      <contour>
        <pt x="724" y="1263" on="1"/>
        <pt x="640" y="1263" on="0"/>
        <pt x="556" y="1250" on="1"/>
        <pt x="556" y="913" on="1"/>
        <pt x="850" y="913" on="1"/>
        <pt x="850" y="675" on="1"/>
        <pt x="556" y="675" on="1"/>
        <pt x="556" y="280" on="1"/>
        <pt x="610" y="265" on="0"/>
        <pt x="810" y="265" on="0"/>
        <pt x="940" y="325" on="0"/>
        <pt x="986" y="386" on="1"/>
        <pt x="1081" y="514" on="0"/>
        <pt x="1081" y="765" on="1"/>
        <pt x="1081" y="1035" on="0"/>
        <pt x="990" y="1152" on="1"/>
        <pt x="905" y="1263" on="0"/>
      </contour>
    </TTGlyph>
    <TTGlyph name="Euro" xMin="84" yMin="-29" xMax="1381" yMax="1539">
      <contour>
        <pt x="685" y="472" on="1"/>
        <pt x="766" y="246" on="0"/>
        <pt x="1016" y="246" on="1"/>
        <pt x="1149" y="246" on="0"/>
        <pt x="1264" y="292" on="1"/>
        <pt x="1298" y="306" on="0"/>
        <pt x="1321" y="322" on="1"/>
        <pt x="1381" y="43" on="1"/>
        <pt x="1352" y="39" on="0"/>
        <pt x="1273" y="12" on="0"/>
        <pt x="1213" y="-5" on="0"/>
        <pt x="1173" y="-12" on="1"/>
        <pt x="1082" y="-28" on="0"/>
        <pt x="818" y="-28" on="0"/>
        <pt x="595" y="39" on="0"/>
        <pt x="512" y="103" on="1"/>
        <pt x="347" y="229" on="0"/>
        <pt x="292" y="472" on="1"/>
        <pt x="84" y="472" on="1"/>
        <pt x="84" y="677" on="1"/>
        <pt x="267" y="677" on="1"/>
        <pt x="267" y="720" on="1"/>
        <pt x="267" y="768" on="0"/>
        <pt x="272" y="843" on="1"/>
        <pt x="114" y="843" on="1"/>
        <pt x="114" y="1048" on="1"/>
        <pt x="309" y="1048" on="1"/>
        <pt x="450" y="1539" on="0"/>
        <pt x="1010" y="1539" on="1"/>
        <pt x="1161" y="1539" on="0"/>
        <pt x="1288" y="1496" on="1"/>
        <pt x="1321" y="1484" on="0"/>
        <pt x="1353" y="1477" on="1"/>
        <pt x="1300" y="1189" on="1"/>
        <pt x="1190" y="1257" on="0"/>
        <pt x="1011" y="1257" on="1"/>
        <pt x="771" y="1257" on="0"/>
        <pt x="684" y="1048" on="1"/>
        <pt x="1169" y="1048" on="1"/>
        <pt x="1169" y="843" on="1"/>
        <pt x="643" y="843" on="1"/>
        <pt x="642" y="832" on="0"/>
        <pt x="642" y="808" on="0"/>
        <pt x="642" y="735" on="0"/>
        <pt x="646" y="677" on="1"/>
        <pt x="1124" y="677" on="1"/>
        <pt x="1124" y="472" on="1"/>
      </contour>
    </TTGlyph>
    <TTGlyph name="F" xMin="173" yMin="0" xMax="1123" yMax="1522">
      <contour>
        <pt x="173" y="1522" on="1"/>
        <pt x="1123" y="1522" on="1"/>
        <pt x="1123" y="1238" on="1"/>
        <pt x="553" y="1238" on="1"/>
        <pt x="553" y="875" on="1"/>
        <pt x="986" y="875" on="1"/>
        <pt x="986" y="592" on="1"/>
        <pt x="553" y="592" on="1"/>
        <pt x="553" y="0" on="1"/>
        <pt x="173" y="0" on="1"/>
      </contour>
    </TTGlyph>
    <TTGlyph name="G" xMin="85" yMin="-17" xMax="1392" yMax="1538">
      <contour>
        <pt x="608" y="345" on="0"/>
        <pt x="738" y="268" on="0"/>
        <pt x="965" y="268" on="0"/>
        <pt x="1044" y="300" on="1"/>
        <pt x="1044" y="566" on="1"/>
        <pt x="827" y="582" on="1"/>
        <pt x="827" y="854" on="1"/>
        <pt x="1392" y="854" on="1"/>
        <pt x="1392" y="86" on="1"/>
        <pt x="1350" y="85" on="0"/>
        <pt x="1236" y="46" on="0"/>
        <pt x="1155" y="20" on="0"/>
        <pt x="1102" y="9" on="1"/>
        <pt x="983" y="-16" on="0"/>
        <pt x="660" y="-16" on="0"/>
        <pt x="384" y="88" on="0"/>
        <pt x="287" y="186" on="1"/>
        <pt x="85" y="392" on="0"/>
        <pt x="85" y="753" on="1"/>
        <pt x="85" y="1280" on="0"/>
        <pt x="474" y="1460" on="1"/>
        <pt x="643" y="1538" on="0"/>
        <pt x="873" y="1538" on="1"/>
        <pt x="1057" y="1538" on="0"/>
        <pt x="1224" y="1496" on="1"/>
        <pt x="1267" y="1486" on="0"/>
        <pt x="1310" y="1478" on="1"/>
        <pt x="1300" y="1160" on="1"/>
        <pt x="1140" y="1240" on="0"/>
        <pt x="888" y="1240" on="1"/>
        <pt x="691" y="1240" on="0"/>
        <pt x="582" y="1118" on="1"/>
        <pt x="474" y="996" on="0"/>
        <pt x="474" y="780" on="1"/>
        <pt x="474" y="551" on="0"/>
        <pt x="564" y="414" on="1"/>
      </contour>
    </TTGlyph>
    <TTGlyph name="Gbreve" xMin="85" yMin="-16" xMax="1392" yMax="1964">
      <component glyphName="breve.cap" x="428" y="0" flags="0x1004"/>
      <component glyphName="G" x="0" y="0" flags="0x1004"/>
    </TTGlyph>
    <TTGlyph name="Gcircumflex" xMin="85" yMin="-16" xMax="1392" yMax="1964">
      <component glyphName="G" x="0" y="0" flags="0x1204"/>
      <component glyphName="circumflex.cap" x="397" y="0" flags="0x1004"/>
    </TTGlyph>
    <TTGlyph name="Gcommaaccent" xMin="85" yMin="-560" xMax="1392" yMax="1538">
      <component glyphName="commaaccent" x="619" y="0" flags="0x1004"/>
      <component glyphName="G" x="0" y="0" flags="0x1004"/>
    </TTGlyph>
    <TTGlyph name="Gdotaccent" xMin="85" yMin="-16" xMax="1392" yMax="1963">
      <component glyphName="dotaccent.cap" x="583" y="0" flags="0x1004"/>
      <component glyphName="G" x="0" y="0" flags="0x1004"/>
    </TTGlyph>
    <TTGlyph name="H" xMin="173" yMin="0" xMax="1458" yMax="1522">
      <contour>
        <pt x="173" y="1522" on="1"/>
        <pt x="556" y="1522" on="1"/>
        <pt x="556" y="905" on="1"/>
        <pt x="1078" y="905" on="1"/>
        <pt x="1078" y="1522" on="1"/>
        <pt x="1458" y="1522" on="1"/>
        <pt x="1458" y="0" on="1"/>
        <pt x="1078" y="0" on="1"/>
        <pt x="1078" y="631" on="1"/>
        <pt x="556" y="631" on="1"/>
        <pt x="556" y="0" on="1"/>
        <pt x="173" y="0" on="1"/>
      </contour>
    </TTGlyph>
    <TTGlyph name="Hbar" xMin="28" yMin="0" xMax="1618" yMax="1522">
      <contour>
        <pt x="173" y="1035" on="1"/>
        <pt x="28" y="1035" on="1"/>
        <pt x="28" y="1255" on="1"/>
        <pt x="173" y="1255" on="1"/>
        <pt x="173" y="1522" on="1"/>
        <pt x="558" y="1522" on="1"/>
        <pt x="558" y="1255" on="1"/>
        <pt x="1085" y="1255" on="1"/>
        <pt x="1085" y="1522" on="1"/>
        <pt x="1470" y="1522" on="1"/>
        <pt x="1470" y="1255" on="1"/>
        <pt x="1618" y="1255" on="1"/>
        <pt x="1618" y="1035" on="1"/>
        <pt x="1470" y="1035" on="1"/>
        <pt x="1470" y="0" on="1"/>
        <pt x="1085" y="0" on="1"/>
        <pt x="1085" y="573" on="1"/>
        <pt x="558" y="573" on="1"/>
        <pt x="558" y="0" on="1"/>
        <pt x="173" y="0" on="1"/>
      </contour>
      <contour>
        <pt x="1085" y="839" on="1"/>
        <pt x="1085" y="1035" on="1"/>
        <pt x="558" y="1035" on="1"/>
        <pt x="558" y="839" on="1"/>
      </contour>
    </TTGlyph>
    <TTGlyph name="Hcircumflex" xMin="173" yMin="0" xMax="1458" yMax="1964">
      <component glyphName="H" x="0" y="0" flags="0x1004"/>
      <component glyphName="circumflex.cap" x="370" y="0" flags="0x1004"/>
    </TTGlyph>
    <TTGlyph name="I" xMin="185" yMin="0" xMax="569" yMax="1522">
      <contour>
        <pt x="185" y="1522" on="1"/>
        <pt x="569" y="1522" on="1"/>
        <pt x="569" y="0" on="1"/>
        <pt x="185" y="0" on="1"/>
      </contour>
    </TTGlyph>
    <TTGlyph name="IJ" xMin="185" yMin="-333" xMax="1377" yMax="1522">
      <component glyphName="I" x="0" y="0" flags="0x1004"/>
      <component glyphName="J" x="754" y="0" flags="0x1004"/>
    </TTGlyph>
    <TTGlyph name="Iacute" xMin="185" yMin="0" xMax="753" yMax="1988">
      <component glyphName="I" x="0" y="0" flags="0x1204"/>
      <component glyphName="acute.cap" x="129" y="0" flags="0x1004"/>
    </TTGlyph>
    <TTGlyph name="Ibreve" xMin="-10" yMin="0" xMax="761" yMax="1964">
      <component glyphName="I" x="0" y="0" flags="0x1204"/>
      <component glyphName="breve.cap" x="-37" y="0" flags="0x1004"/>
    </TTGlyph>
    <TTGlyph name="Icircumflex" xMin="-23" yMin="0" xMax="780" yMax="1964">
      <component glyphName="I" x="0" y="0" flags="0x1204"/>
      <component glyphName="circumflex.cap" x="-67" y="0" flags="0x1004"/>
    </TTGlyph>
    <TTGlyph name="Idieresis" xMin="-88" yMin="0" xMax="849" yMax="1964">
      <component glyphName="I" x="0" y="0" flags="0x1204"/>
      <component glyphName="dieresis.cap" x="-141" y="0" flags="0x1004"/>
    </TTGlyph>
    <TTGlyph name="Idotaccent" xMin="183" yMin="0" xMax="584" yMax="1963">
      <component glyphName="I" x="0" y="0" flags="0x1204"/>
      <component glyphName="dotaccent.cap" x="117" y="0" flags="0x1004"/>
    </TTGlyph>
    <TTGlyph name="Igrave" xMin="4" yMin="0" xMax="569" yMax="1988">
      <component glyphName="I" x="0" y="0" flags="0x1204"/>
      <component glyphName="grave.cap" x="-51" y="0" flags="0x1004"/>
    </TTGlyph>
    <TTGlyph name="Imacron" xMin="69" yMin="0" xMax="688" yMax="1909">
      <component glyphName="I" x="0" y="0" flags="0x1204"/>
      <component glyphName="macron.cap" x="16" y="0" flags="0x1004"/>
    </TTGlyph>
    <TTGlyph name="Iogonek" xMin="33" yMin="-516" xMax="577" yMax="1522">
      <contour>
        <pt x="577" y="-449" on="1"/>
        <pt x="470" y="-516" on="0"/>
        <pt x="319" y="-516" on="1"/>
        <pt x="204" y="-516" on="0"/>
        <pt x="124" y="-461" on="1"/>
        <pt x="34" y="-400" on="0"/>
        <pt x="34" y="-298" on="1"/>
        <pt x="34" y="-206" on="0"/>
        <pt x="106" y="-121" on="1"/>
        <pt x="164" y="-54" on="0"/>
        <pt x="262" y="0" on="1"/>
        <pt x="185" y="0" on="1"/>
        <pt x="185" y="1522" on="1"/>
        <pt x="569" y="1522" on="1"/>
        <pt x="569" y="0" on="1"/>
        <pt x="502" y="0" on="1"/>
        <pt x="339" y="-91" on="0"/>
        <pt x="339" y="-197" on="1"/>
        <pt x="339" y="-299" on="0"/>
        <pt x="468" y="-299" on="1"/>
        <pt x="515" y="-299" on="0"/>
        <pt x="577" y="-279" on="1"/>
      </contour>
    </TTGlyph>
    <TTGlyph name="Itilde" xMin="-70" yMin="0" xMax="834" yMax="1963">
      <component glyphName="I" x="0" y="0" flags="0x1204"/>
      <component glyphName="tilde.cap" x="-86" y="0" flags="0x1004"/>
    </TTGlyph>
    <TTGlyph name="J" xMin="-35" yMin="-333" xMax="623" yMax="1522">
      <contour>
        <pt x="621" y="613" on="1"/>
        <pt x="623" y="377" on="1"/>
        <pt x="623" y="195" on="0"/>
        <pt x="588" y="20" on="0"/>
        <pt x="518" y="-101" on="0"/>
        <pt x="424" y="-197" on="0"/>
        <pt x="368" y="-232" on="1"/>
        <pt x="211" y="-332" on="0"/>
        <pt x="62" y="-332" on="1"/>
        <pt x="55" y="-332" on="0"/>
        <pt x="48" y="-332" on="1"/>
        <pt x="-35" y="-141" on="1"/>
        <pt x="55" y="-104" on="0"/>
        <pt x="97" y="-66" on="1"/>
        <pt x="200" y="31" on="0"/>
        <pt x="224" y="196" on="1"/>
        <pt x="237" y="293" on="0"/>
        <pt x="237" y="608" on="1"/>
        <pt x="237" y="1522" on="1"/>
        <pt x="621" y="1522" on="1"/>
      </contour>
    </TTGlyph>
    <TTGlyph name="Jcircumflex" xMin="-35" yMin="-333" xMax="825" yMax="1964">
      <component glyphName="J" x="0" y="0" flags="0x1204"/>
      <component glyphName="circumflex.cap" x="-22" y="0" flags="0x1004"/>
    </TTGlyph>
    <TTGlyph name="K" xMin="173" yMin="0" xMax="1466" yMax="1522">
      <contour>
        <pt x="173" y="1522" on="1"/>
        <pt x="552" y="1522" on="1"/>
        <pt x="552" y="881" on="1"/>
        <pt x="1027" y="1522" on="1"/>
        <pt x="1440" y="1522" on="1"/>
        <pt x="941" y="866" on="1"/>
        <pt x="1030" y="740" on="0"/>
        <pt x="1348" y="201" on="0"/>
        <pt x="1401" y="111" on="1"/>
        <pt x="1466" y="0" on="1"/>
        <pt x="1039" y="0" on="1"/>
        <pt x="1026" y="20" on="0"/>
        <pt x="999" y="73" on="0"/>
        <pt x="951" y="164" on="1"/>
        <pt x="839" y="374" on="0"/>
        <pt x="690" y="597" on="1"/>
        <pt x="552" y="432" on="1"/>
        <pt x="552" y="0" on="1"/>
        <pt x="173" y="0" on="1"/>
      </contour>
    </TTGlyph>
    <TTGlyph name="Kcommaaccent" xMin="173" yMin="-560" xMax="1466" yMax="1522">
      <component glyphName="commaaccent" x="579" y="0" flags="0x1004"/>
      <component glyphName="K" x="0" y="0" flags="0x1004"/>
    </TTGlyph>
    <TTGlyph name="L" xMin="173" yMin="0" xMax="1062" yMax="1522">
      <contour>
        <pt x="173" y="1522" on="1"/>
        <pt x="560" y="1522" on="1"/>
        <pt x="560" y="287" on="1"/>
        <pt x="1062" y="287" on="1"/>
        <pt x="1062" y="0" on="1"/>
        <pt x="173" y="0" on="1"/>
      </contour>
    </TTGlyph>
    <TTGlyph name="Lacute" xMin="173" yMin="0" xMax="1062" yMax="1988">
      <component glyphName="acute.cap" x="116" y="0" flags="0x1004"/>
      <component glyphName="L" x="0" y="0" flags="0x1004"/>
    </TTGlyph>
    <TTGlyph name="Lcaron" xMin="173" yMin="0" xMax="1131" yMax="1723">
      <component glyphName="L" x="0" y="0" flags="0x1204"/>
      <component glyphName="caronvertical" x="718" y="0" flags="0x1004"/>
    </TTGlyph>
    <TTGlyph name="Lcommaaccent" xMin="173" yMin="-560" xMax="1062" yMax="1522">
      <component glyphName="commaaccent" x="416" y="0" flags="0x1004"/>
      <component glyphName="L" x="0" y="0" flags="0x1004"/>
    </TTGlyph>
    <TTGlyph name="Ldot" xMin="173" yMin="0" xMax="1289" yMax="1522">
      <component glyphName="period" x="741" y="654" flags="0x1004"/>
      <component glyphName="L" x="0" y="0" flags="0x1004"/>
    </TTGlyph>
    <TTGlyph name="Lslash" xMin="18" yMin="0" xMax="1062" yMax="1522">
      <contour>
        <pt x="173" y="598" on="1"/>
        <pt x="91" y="568" on="1"/>
        <pt x="18" y="762" on="1"/>
        <pt x="173" y="819" on="1"/>
        <pt x="173" y="1522" on="1"/>
        <pt x="560" y="1522" on="1"/>
        <pt x="560" y="962" on="1"/>
        <pt x="812" y="1055" on="1"/>
        <pt x="885" y="859" on="1"/>
        <pt x="560" y="740" on="1"/>
        <pt x="560" y="287" on="1"/>
        <pt x="1062" y="287" on="1"/>
        <pt x="1062" y="0" on="1"/>
        <pt x="173" y="0" on="1"/>
      </contour>
    </TTGlyph>
    <TTGlyph name="M" xMin="64" yMin="-9" xMax="1919" yMax="1522">
      <contour>
        <pt x="240" y="1522" on="1"/>
        <pt x="753" y="1522" on="1"/>
        <pt x="938" y="741" on="1"/>
        <pt x="1007" y="386" on="1"/>
        <pt x="1062" y="741" on="1"/>
        <pt x="1226" y="1522" on="1"/>
        <pt x="1725" y="1522" on="1"/>
        <pt x="1919" y="0" on="1"/>
        <pt x="1553" y="0" on="1"/>
        <pt x="1483" y="809" on="1"/>
        <pt x="1460" y="1247" on="1"/>
        <pt x="1365" y="797" on="1"/>
        <pt x="1161" y="-9" on="1"/>
        <pt x="824" y="-9" on="1"/>
        <pt x="602" y="797" on="1"/>
        <pt x="502" y="1247" on="1"/>
        <pt x="476" y="809" on="1"/>
        <pt x="416" y="0" on="1"/>
        <pt x="64" y="-1" on="1"/>
      </contour>
    </TTGlyph>
    <TTGlyph name="N" xMin="173" yMin="0" xMax="1458" yMax="1522">
      <contour>
        <pt x="173" y="1522" on="1"/>
        <pt x="529" y="1522" on="1"/>
        <pt x="1048" y="687" on="1"/>
        <pt x="1154" y="465" on="1"/>
        <pt x="1113" y="852" on="1"/>
        <pt x="1113" y="1522" on="1"/>
        <pt x="1458" y="1522" on="1"/>
        <pt x="1458" y="0" on="1"/>
        <pt x="1075" y="0" on="1"/>
        <pt x="582" y="815" on="1"/>
        <pt x="471" y="1045" on="1"/>
        <pt x="518" y="658" on="1"/>
        <pt x="518" y="0" on="1"/>
        <pt x="173" y="0" on="1"/>
      </contour>
    </TTGlyph>
    <TTGlyph name="Nacute" xMin="173" yMin="0" xMax="1458" yMax="1988">
      <component glyphName="acute.cap" x="574" y="0" flags="0x1004"/>
      <component glyphName="N" x="0" y="0" flags="0x1004"/>
    </TTGlyph>
    <TTGlyph name="Ncaron" xMin="173" yMin="0" xMax="1458" yMax="1964">
      <component glyphName="caron.cap" x="380" y="0" flags="0x1004"/>
      <component glyphName="N" x="0" y="0" flags="0x1004"/>
    </TTGlyph>
    <TTGlyph name="Ncommaaccent" xMin="173" yMin="-560" xMax="1458" yMax="1522">
      <component glyphName="commaaccent" x="593" y="0" flags="0x1004"/>
      <component glyphName="N" x="0" y="0" flags="0x1004"/>
    </TTGlyph>
    <TTGlyph name="Ntilde" xMin="173" yMin="0" xMax="1458" yMax="1963">
      <component glyphName="tilde.cap" x="358" y="0" flags="0x1004"/>
      <component glyphName="N" x="0" y="0" flags="0x1004"/>
    </TTGlyph>
    <TTGlyph name="O" xMin="92" yMin="-17" xMax="1510" yMax="1539">
      <contour>
        <pt x="496" y="35" on="1"/>
        <pt x="93" y="199" on="0"/>
        <pt x="93" y="769" on="1"/>
        <pt x="93" y="960" on="0"/>
        <pt x="208" y="1259" on="0"/>
        <pt x="304" y="1352" on="1"/>
        <pt x="499" y="1538" on="0"/>
        <pt x="849" y="1538" on="1"/>
        <pt x="1155" y="1538" on="0"/>
        <pt x="1332" y="1336" on="1"/>
        <pt x="1509" y="1134" on="0"/>
        <pt x="1509" y="785" on="1"/>
        <pt x="1509" y="380" on="0"/>
        <pt x="1305" y="174" on="1"/>
        <pt x="1117" y="-16" on="0"/>
        <pt x="778" y="-16" on="1"/>
        <pt x="621" y="-16" on="0"/>
      </contour>
      <contour>
        <pt x="803" y="263" on="1"/>
        <pt x="1117" y="263" on="0"/>
        <pt x="1117" y="774" on="1"/>
        <pt x="1117" y="1115" on="0"/>
        <pt x="951" y="1218" on="1"/>
        <pt x="895" y="1252" on="0"/>
        <pt x="750" y="1252" on="0"/>
        <pt x="628" y="1203" on="0"/>
        <pt x="583" y="1145" on="1"/>
        <pt x="485" y="1019" on="0"/>
        <pt x="485" y="758" on="1"/>
        <pt x="485" y="410" on="0"/>
        <pt x="663" y="300" on="1"/>
        <pt x="723" y="263" on="0"/>
      </contour>
    </TTGlyph>
    <TTGlyph name="OE" xMin="96" yMin="-17" xMax="2067" yMax="1538">
      <contour>
        <pt x="1050" y="51" on="1"/>
        <pt x="939" y="-16" on="0"/>
        <pt x="607" y="-16" on="0"/>
        <pt x="481" y="41" on="1"/>
        <pt x="226" y="156" on="0"/>
        <pt x="138" y="450" on="1"/>
        <pt x="97" y="586" on="0"/>
        <pt x="97" y="747" on="1"/>
        <pt x="97" y="1140" on="0"/>
        <pt x="310" y="1350" on="1"/>
        <pt x="499" y="1536" on="0"/>
        <pt x="811" y="1538" on="1"/>
        <pt x="958" y="1538" on="0"/>
        <pt x="1050" y="1481" on="1"/>
        <pt x="1050" y="1522" on="1"/>
        <pt x="2007" y="1522" on="1"/>
        <pt x="2007" y="1238" on="1"/>
        <pt x="1428" y="1238" on="1"/>
        <pt x="1428" y="919" on="1"/>
        <pt x="1862" y="919" on="1"/>
        <pt x="1862" y="642" on="1"/>
        <pt x="1428" y="642" on="1"/>
        <pt x="1428" y="291" on="1"/>
        <pt x="2067" y="291" on="1"/>
        <pt x="2067" y="0" on="1"/>
        <pt x="1050" y="0" on="1"/>
      </contour>
      <contour>
        <pt x="1050" y="1138" on="1"/>
        <pt x="973" y="1244" on="0"/>
        <pt x="833" y="1244" on="1"/>
        <pt x="626" y="1244" on="0"/>
        <pt x="544" y="1073" on="1"/>
        <pt x="487" y="955" on="0"/>
        <pt x="487" y="516" on="0"/>
        <pt x="656" y="270" on="0"/>
        <pt x="982" y="270" on="0"/>
        <pt x="1050" y="372" on="1"/>
      </contour>
    </TTGlyph>
    <TTGlyph name="Oacute" xMin="92" yMin="-17" xMax="1510" yMax="1988">
      <component glyphName="acute.cap" x="582" y="0" flags="0x1004"/>
      <component glyphName="O" x="0" y="0" flags="0x1004"/>
    </TTGlyph>
    <TTGlyph name="Obreve" xMin="92" yMin="-17" xMax="1510" yMax="1964">
      <component glyphName="breve.cap" x="415" y="0" flags="0x1004"/>
      <component glyphName="O" x="0" y="0" flags="0x1004"/>
    </TTGlyph>
    <TTGlyph name="Ocircumflex" xMin="92" yMin="-17" xMax="1510" yMax="1964">
      <component glyphName="O" x="0" y="0" flags="0x1204"/>
      <component glyphName="circumflex.cap" x="384" y="0" flags="0x1004"/>
    </TTGlyph>
    <TTGlyph name="Odieresis" xMin="92" yMin="-17" xMax="1510" yMax="1964">
      <component glyphName="dieresis.cap" x="310" y="0" flags="0x1004"/>
      <component glyphName="O" x="0" y="0" flags="0x1004"/>
    </TTGlyph>
    <TTGlyph name="Ograve" xMin="92" yMin="-17" xMax="1510" yMax="1988">
      <component glyphName="grave.cap" x="400" y="0" flags="0x1004"/>
      <component glyphName="O" x="0" y="0" flags="0x1004"/>
    </TTGlyph>
    <TTGlyph name="Ohungarumlaut" xMin="92" yMin="-17" xMax="1510" yMax="1964">
      <component glyphName="O" x="0" y="0" flags="0x1204"/>
      <component glyphName="hungarumlaut.cap" x="411" y="0" flags="0x1004"/>
    </TTGlyph>
    <TTGlyph name="Omacron" xMin="92" yMin="-17" xMax="1510" yMax="1909">
      <component glyphName="macron.cap" x="468" y="0" flags="0x1004"/>
      <component glyphName="O" x="0" y="0" flags="0x1004"/>
    </TTGlyph>
    <TTGlyph name="Omega" xMin="157" yMin="0" xMax="1678" yMax="1545">
      <contour>
        <pt x="157" y="251" on="1"/>
        <pt x="461" y="251" on="1"/>
        <pt x="263" y="410" on="0"/>
        <pt x="192" y="669" on="1"/>
        <pt x="168" y="755" on="0"/>
        <pt x="168" y="846" on="1"/>
        <pt x="168" y="1085" on="0"/>
        <pt x="282" y="1255" on="1"/>
        <pt x="428" y="1475" on="0"/>
        <pt x="732" y="1528" on="1"/>
        <pt x="825" y="1545" on="0"/>
        <pt x="1083" y="1545" on="0"/>
        <pt x="1218" y="1504" on="1"/>
        <pt x="1498" y="1421" on="0"/>
        <pt x="1602" y="1164" on="1"/>
        <pt x="1654" y="1037" on="0"/>
        <pt x="1654" y="863" on="1"/>
        <pt x="1654" y="580" on="0"/>
        <pt x="1476" y="362" on="1"/>
        <pt x="1423" y="297" on="0"/>
        <pt x="1363" y="251" on="1"/>
        <pt x="1678" y="251" on="1"/>
        <pt x="1678" y="0" on="1"/>
        <pt x="1040" y="0" on="1"/>
        <pt x="1040" y="213" on="1"/>
        <pt x="1123" y="259" on="0"/>
        <pt x="1190" y="408" on="1"/>
        <pt x="1271" y="592" on="0"/>
        <pt x="1271" y="819" on="1"/>
        <pt x="1271" y="1052" on="0"/>
        <pt x="1166" y="1174" on="1"/>
        <pt x="1073" y="1282" on="0"/>
        <pt x="921" y="1282" on="1"/>
        <pt x="664" y="1282" on="0"/>
        <pt x="581" y="1032" on="1"/>
        <pt x="552" y="944" on="0"/>
        <pt x="552" y="694" on="0"/>
        <pt x="606" y="487" on="0"/>
        <pt x="685" y="332" on="0"/>
        <pt x="775" y="232" on="0"/>
        <pt x="812" y="213" on="1"/>
        <pt x="812" y="0" on="1"/>
        <pt x="157" y="0" on="1"/>
      </contour>
    </TTGlyph>
    <TTGlyph name="Oslash" xMin="92" yMin="-234" xMax="1510" yMax="1811">
      <contour>
        <pt x="304" y="1352" on="1"/>
        <pt x="499" y="1538" on="0"/>
        <pt x="881" y="1538" on="1"/>
        <pt x="926" y="1538" on="0"/>
        <pt x="999" y="1524" on="1"/>
        <pt x="1102" y="1811" on="1"/>
        <pt x="1237" y="1783" on="1"/>
        <pt x="1129" y="1484" on="1"/>
        <pt x="1314" y="1404" on="0"/>
        <pt x="1414" y="1217" on="1"/>
        <pt x="1509" y="1038" on="0"/>
        <pt x="1509" y="783" on="1"/>
        <pt x="1509" y="380" on="0"/>
        <pt x="1305" y="174" on="1"/>
        <pt x="1117" y="-16" on="0"/>
        <pt x="786" y="-16" on="1"/>
        <pt x="686" y="-16" on="0"/>
        <pt x="595" y="4" on="1"/>
        <pt x="509" y="-234" on="1"/>
        <pt x="375" y="-209" on="1"/>
        <pt x="467" y="47" on="1"/>
        <pt x="188" y="174" on="0"/>
        <pt x="114" y="524" on="1"/>
        <pt x="93" y="625" on="0"/>
        <pt x="93" y="690" on="1"/>
        <pt x="93" y="960" on="0"/>
        <pt x="208" y="1259" on="0"/>
      </contour>
      <contour>
        <pt x="897" y="1241" on="1"/>
        <pt x="859" y="1252" on="0"/>
        <pt x="750" y="1252" on="0"/>
        <pt x="628" y="1203" on="0"/>
        <pt x="583" y="1145" on="1"/>
        <pt x="485" y="1019" on="0"/>
        <pt x="485" y="758" on="1"/>
        <pt x="485" y="502" on="0"/>
        <pt x="584" y="372" on="1"/>
      </contour>
      <contour>
        <pt x="803" y="263" on="1"/>
        <pt x="1117" y="263" on="0"/>
        <pt x="1117" y="774" on="1"/>
        <pt x="1117" y="1039" on="0"/>
        <pt x="1013" y="1163" on="1"/>
        <pt x="696" y="283" on="1"/>
        <pt x="745" y="263" on="0"/>
      </contour>
    </TTGlyph>
    <TTGlyph name="Otilde" xMin="92" yMin="-17" xMax="1510" yMax="1963">
      <component glyphName="tilde.cap" x="365" y="0" flags="0x1004"/>
      <component glyphName="O" x="0" y="0" flags="0x1004"/>
    </TTGlyph>
    <TTGlyph name="P" xMin="173" yMin="0" xMax="1336" yMax="1538">
      <contour>
        <pt x="980" y="476" on="1"/>
        <pt x="863" y="439" on="0"/>
        <pt x="603" y="439" on="0"/>
        <pt x="555" y="441" on="1"/>
        <pt x="555" y="0" on="1"/>
        <pt x="173" y="0" on="1"/>
        <pt x="173" y="1522" on="1"/>
        <pt x="321" y="1522" on="1"/>
        <pt x="426" y="1522" on="0"/>
        <pt x="635" y="1538" on="0"/>
        <pt x="887" y="1538" on="0"/>
        <pt x="1104" y="1482" on="0"/>
        <pt x="1180" y="1418" on="1"/>
        <pt x="1336" y="1287" on="0"/>
        <pt x="1336" y="1001" on="1"/>
        <pt x="1336" y="589" on="0"/>
      </contour>
      <contour>
        <pt x="820" y="1255" on="1"/>
        <pt x="774" y="1272" on="0"/>
        <pt x="627" y="1272" on="0"/>
        <pt x="555" y="1261" on="1"/>
        <pt x="555" y="720" on="1"/>
        <pt x="640" y="712" on="0"/>
        <pt x="764" y="712" on="0"/>
        <pt x="856" y="743" on="0"/>
        <pt x="890" y="778" on="1"/>
        <pt x="963" y="852" on="0"/>
        <pt x="963" y="1003" on="1"/>
        <pt x="963" y="1201" on="0"/>
      </contour>
    </TTGlyph>
    <TTGlyph name="Q" xMin="92" yMin="-355" xMax="1544" yMax="1539">
      <contour>
        <pt x="1233" y="-79" on="1"/>
        <pt x="1287" y="-82" on="0"/>
        <pt x="1457" y="-82" on="0"/>
        <pt x="1544" y="-53" on="1"/>
        <pt x="1544" y="-309" on="1"/>
        <pt x="1452" y="-355" on="0"/>
        <pt x="1178" y="-355" on="0"/>
        <pt x="980" y="-319" on="0"/>
        <pt x="904" y="-278" on="1"/>
        <pt x="752" y="-197" on="0"/>
        <pt x="695" y="-12" on="1"/>
        <pt x="406" y="14" on="0"/>
        <pt x="246" y="224" on="1"/>
        <pt x="93" y="425" on="0"/>
        <pt x="93" y="745" on="1"/>
        <pt x="93" y="1149" on="0"/>
        <pt x="304" y="1352" on="1"/>
        <pt x="499" y="1538" on="0"/>
        <pt x="849" y="1538" on="1"/>
        <pt x="1155" y="1538" on="0"/>
        <pt x="1332" y="1336" on="1"/>
        <pt x="1509" y="1134" on="0"/>
        <pt x="1509" y="785" on="1"/>
        <pt x="1509" y="285" on="0"/>
        <pt x="1204" y="94" on="1"/>
        <pt x="1111" y="35" on="0"/>
        <pt x="997" y="8" on="1"/>
        <pt x="1056" y="-69" on="0"/>
      </contour>
      <contour>
        <pt x="803" y="263" on="1"/>
        <pt x="1117" y="263" on="0"/>
        <pt x="1117" y="774" on="1"/>
        <pt x="1117" y="1115" on="0"/>
        <pt x="951" y="1218" on="1"/>
        <pt x="895" y="1252" on="0"/>
        <pt x="750" y="1252" on="0"/>
        <pt x="628" y="1203" on="0"/>
        <pt x="583" y="1145" on="1"/>
        <pt x="485" y="1019" on="0"/>
        <pt x="485" y="758" on="1"/>
        <pt x="485" y="410" on="0"/>
        <pt x="663" y="300" on="1"/>
        <pt x="723" y="263" on="0"/>
      </contour>
    </TTGlyph>
    <TTGlyph name="R" xMin="173" yMin="0" xMax="1432" yMax="1538">
      <contour>
        <pt x="717" y="542" on="1"/>
        <pt x="653" y="538" on="0"/>
        <pt x="553" y="538" on="1"/>
        <pt x="553" y="0" on="1"/>
        <pt x="173" y="0" on="1"/>
        <pt x="173" y="1522" on="1"/>
        <pt x="304" y="1522" on="1"/>
        <pt x="344" y="1522" on="0"/>
        <pt x="436" y="1527" on="0"/>
        <pt x="492" y="1530" on="1"/>
        <pt x="639" y="1538" on="0"/>
        <pt x="829" y="1538" on="0"/>
        <pt x="966" y="1519" on="0"/>
        <pt x="1092" y="1476" on="0"/>
        <pt x="1201" y="1404" on="0"/>
        <pt x="1242" y="1350" on="1"/>
        <pt x="1329" y="1233" on="0"/>
        <pt x="1329" y="1055" on="1"/>
        <pt x="1329" y="727" on="0"/>
        <pt x="1087" y="617" on="1"/>
        <pt x="1157" y="562" on="0"/>
        <pt x="1235" y="394" on="1"/>
        <pt x="1267" y="325" on="0"/>
        <pt x="1330" y="177" on="0"/>
        <pt x="1369" y="110" on="1"/>
        <pt x="1432" y="0" on="1"/>
        <pt x="1012" y="0" on="1"/>
        <pt x="994" y="24" on="0"/>
        <pt x="927" y="176" on="0"/>
        <pt x="879" y="326" on="0"/>
        <pt x="827" y="454" on="0"/>
        <pt x="763" y="539" on="0"/>
      </contour>
      <contour>
        <pt x="715" y="1269" on="1"/>
        <pt x="616" y="1269" on="0"/>
        <pt x="553" y="1251" on="1"/>
        <pt x="553" y="802" on="1"/>
        <pt x="606" y="795" on="0"/>
        <pt x="663" y="795" on="1"/>
        <pt x="740" y="795" on="1"/>
        <pt x="850" y="795" on="0"/>
        <pt x="910" y="869" on="1"/>
        <pt x="963" y="935" on="0"/>
        <pt x="963" y="1048" on="1"/>
        <pt x="963" y="1269" on="0"/>
      </contour>
    </TTGlyph>
    <TTGlyph name="Racute" xMin="173" yMin="0" xMax="1432" yMax="1988">
      <component glyphName="R" x="0" y="0" flags="0x1204"/>
      <component glyphName="acute.cap" x="524" y="0" flags="0x1004"/>
    </TTGlyph>
    <TTGlyph name="Rcaron" xMin="173" yMin="0" xMax="1432" yMax="1964">
      <component glyphName="caron.cap" x="330" y="0" flags="0x1004"/>
      <component glyphName="R" x="0" y="0" flags="0x1004"/>
    </TTGlyph>
    <TTGlyph name="Rcommaaccent" xMin="173" yMin="-560" xMax="1432" yMax="1538">
      <component glyphName="commaaccent" x="562" y="0" flags="0x1004"/>
      <component glyphName="R" x="0" y="0" flags="0x1004"/>
    </TTGlyph>
    <TTGlyph name="S" xMin="119" yMin="-16" xMax="1166" yMax="1538">
      <contour>
        <pt x="177" y="374" on="1"/>
        <pt x="285" y="312" on="0"/>
        <pt x="459" y="286" on="1"/>
        <pt x="519" y="277" on="0"/>
        <pt x="604" y="277" on="1"/>
        <pt x="785" y="277" on="0"/>
        <pt x="785" y="406" on="1"/>
        <pt x="785" y="473" on="0"/>
        <pt x="716" y="524" on="1"/>
        <pt x="675" y="553" on="0"/>
        <pt x="403" y="683" on="0"/>
        <pt x="273" y="771" on="0"/>
        <pt x="224" y="828" on="1"/>
        <pt x="119" y="952" on="0"/>
        <pt x="119" y="1121" on="1"/>
        <pt x="119" y="1323" on="0"/>
        <pt x="270" y="1434" on="1"/>
        <pt x="412" y="1538" on="0"/>
        <pt x="662" y="1538" on="1"/>
        <pt x="939" y="1538" on="0"/>
        <pt x="1091" y="1451" on="1"/>
        <pt x="1032" y="1165" on="1"/>
        <pt x="953" y="1227" on="0"/>
        <pt x="795" y="1254" on="1"/>
        <pt x="745" y="1262" on="0"/>
        <pt x="586" y="1262" on="0"/>
        <pt x="485" y="1192" on="0"/>
        <pt x="485" y="1099" on="0"/>
        <pt x="515" y="1044" on="0"/>
        <pt x="548" y="1018" on="1"/>
        <pt x="604" y="973" on="0"/>
        <pt x="846" y="864" on="0"/>
        <pt x="1001" y="772" on="0"/>
        <pt x="1055" y="717" on="1"/>
        <pt x="1166" y="604" on="0"/>
        <pt x="1166" y="435" on="1"/>
        <pt x="1166" y="227" on="0"/>
        <pt x="1022" y="107" on="1"/>
        <pt x="876" y="-16" on="0"/>
        <pt x="611" y="-16" on="1"/>
        <pt x="382" y="-16" on="0"/>
        <pt x="200" y="48" on="1"/>
        <pt x="152" y="64" on="0"/>
        <pt x="130" y="78" on="1"/>
      </contour>
    </TTGlyph>
    <TTGlyph name="Sacute" xMin="119" yMin="-16" xMax="1166" yMax="1988">
      <component glyphName="S" x="0" y="0" flags="0x1204"/>
      <component glyphName="acute.cap" x="416" y="0" flags="0x1004"/>
    </TTGlyph>
    <TTGlyph name="Scaron" xMin="119" yMin="-16" xMax="1166" yMax="1964">
      <component glyphName="S" x="0" y="0" flags="0x1204"/>
      <component glyphName="caron.cap" x="222" y="0" flags="0x1004"/>
    </TTGlyph>
    <TTGlyph name="Scedilla" xMin="119" yMin="-464" xMax="1166" yMax="1538">
      <contour>
        <pt x="354" y="-255" on="1"/>
        <pt x="377" y="-269" on="0"/>
        <pt x="477" y="-269" on="0"/>
        <pt x="544" y="-194" on="0"/>
        <pt x="545" y="-138" on="1"/>
        <pt x="547" y="-52" on="0"/>
        <pt x="530" y="-13" on="1"/>
        <pt x="331" y="-2" on="0"/>
        <pt x="188" y="52" on="1"/>
        <pt x="149" y="66" on="0"/>
        <pt x="130" y="78" on="1"/>
        <pt x="177" y="374" on="1"/>
        <pt x="285" y="312" on="0"/>
        <pt x="459" y="286" on="1"/>
        <pt x="519" y="277" on="0"/>
        <pt x="604" y="277" on="1"/>
        <pt x="785" y="277" on="0"/>
        <pt x="785" y="406" on="1"/>
        <pt x="785" y="473" on="0"/>
        <pt x="716" y="524" on="1"/>
        <pt x="675" y="553" on="0"/>
        <pt x="403" y="683" on="0"/>
        <pt x="273" y="771" on="0"/>
        <pt x="224" y="828" on="1"/>
        <pt x="119" y="952" on="0"/>
        <pt x="119" y="1121" on="1"/>
        <pt x="119" y="1323" on="0"/>
        <pt x="270" y="1434" on="1"/>
        <pt x="412" y="1538" on="0"/>
        <pt x="662" y="1538" on="1"/>
        <pt x="939" y="1538" on="0"/>
        <pt x="1091" y="1451" on="1"/>
        <pt x="1032" y="1165" on="1"/>
        <pt x="953" y="1227" on="0"/>
        <pt x="795" y="1254" on="1"/>
        <pt x="745" y="1262" on="0"/>
        <pt x="586" y="1262" on="0"/>
        <pt x="485" y="1192" on="0"/>
        <pt x="485" y="1099" on="0"/>
        <pt x="515" y="1044" on="0"/>
        <pt x="548" y="1018" on="1"/>
        <pt x="604" y="973" on="0"/>
        <pt x="846" y="864" on="0"/>
        <pt x="1001" y="772" on="0"/>
        <pt x="1055" y="717" on="1"/>
        <pt x="1166" y="604" on="0"/>
        <pt x="1166" y="435" on="1"/>
        <pt x="1166" y="161" on="0"/>
        <pt x="928" y="46" on="1"/>
        <pt x="850" y="9" on="0"/>
        <pt x="748" y="-6" on="1"/>
        <pt x="787" y="-86" on="0"/>
        <pt x="787" y="-206" on="1"/>
        <pt x="787" y="-337" on="0"/>
        <pt x="708" y="-404" on="1"/>
        <pt x="638" y="-464" on="0"/>
        <pt x="522" y="-464" on="1"/>
        <pt x="440" y="-464" on="0"/>
        <pt x="341" y="-442" on="0"/>
        <pt x="331" y="-436" on="1"/>
      </contour>
    </TTGlyph>
    <TTGlyph name="Scircumflex" xMin="119" yMin="-16" xMax="1166" yMax="1964">
      <component glyphName="S" x="0" y="0" flags="0x1204"/>
      <component glyphName="circumflex.cap" x="218" y="0" flags="0x1004"/>
    </TTGlyph>
    <TTGlyph name="T" xMin="28" yMin="0" xMax="1225" yMax="1522">
      <contour>
        <pt x="435" y="1228" on="1"/>
        <pt x="28" y="1228" on="1"/>
        <pt x="28" y="1522" on="1"/>
        <pt x="1225" y="1522" on="1"/>
        <pt x="1225" y="1228" on="1"/>
        <pt x="819" y="1228" on="1"/>
        <pt x="819" y="0" on="1"/>
        <pt x="435" y="0" on="1"/>
      </contour>
    </TTGlyph>
    <TTGlyph name="Tbar" xMin="28" yMin="0" xMax="1225" yMax="1522">
      <contour>
        <pt x="435" y="558" on="1"/>
        <pt x="177" y="558" on="1"/>
        <pt x="177" y="796" on="1"/>
        <pt x="435" y="796" on="1"/>
        <pt x="435" y="1228" on="1"/>
        <pt x="28" y="1228" on="1"/>
        <pt x="28" y="1522" on="1"/>
        <pt x="1225" y="1522" on="1"/>
        <pt x="1225" y="1228" on="1"/>
        <pt x="819" y="1228" on="1"/>
        <pt x="819" y="796" on="1"/>
        <pt x="1104" y="796" on="1"/>
        <pt x="1104" y="558" on="1"/>
        <pt x="819" y="558" on="1"/>
        <pt x="819" y="0" on="1"/>
        <pt x="435" y="0" on="1"/>
      </contour>
    </TTGlyph>
    <TTGlyph name="Tcaron" xMin="28" yMin="0" xMax="1225" yMax="1964">
      <component glyphName="caron.cap" x="183" y="0" flags="0x1004"/>
      <component glyphName="T" x="0" y="0" flags="0x1004"/>
    </TTGlyph>
    <TTGlyph name="Thorn" xMin="173" yMin="0" xMax="1334" yMax="1522">
      <contour>
        <pt x="782" y="235" on="1"/>
        <pt x="652" y="235" on="0"/>
        <pt x="556" y="244" on="1"/>
        <pt x="556" y="0" on="1"/>
        <pt x="173" y="0" on="1"/>
        <pt x="173" y="1522" on="1"/>
        <pt x="556" y="1522" on="1"/>
        <pt x="556" y="1286" on="1"/>
        <pt x="611" y="1289" on="0"/>
        <pt x="736" y="1299" on="0"/>
        <pt x="924" y="1299" on="0"/>
        <pt x="1123" y="1235" on="0"/>
        <pt x="1192" y="1173" on="1"/>
        <pt x="1334" y="1045" on="0"/>
        <pt x="1334" y="805" on="1"/>
        <pt x="1334" y="538" on="0"/>
        <pt x="1190" y="388" on="1"/>
        <pt x="1043" y="235" on="0"/>
      </contour>
      <contour>
        <pt x="693" y="1022" on="1"/>
        <pt x="622" y="1022" on="0"/>
        <pt x="556" y="1006" on="1"/>
        <pt x="556" y="512" on="1"/>
        <pt x="604" y="504" on="0"/>
        <pt x="745" y="504" on="0"/>
        <pt x="843" y="530" on="0"/>
        <pt x="880" y="562" on="1"/>
        <pt x="958" y="632" on="0"/>
        <pt x="958" y="791" on="1"/>
        <pt x="958" y="1022" on="0"/>
      </contour>
    </TTGlyph>
    <TTGlyph name="U" xMin="138" yMin="-16" xMax="1408" yMax="1522">
      <contour>
        <pt x="1408" y="632" on="1"/>
        <pt x="1408" y="-16" on="0"/>
        <pt x="780" y="-16" on="1"/>
        <pt x="280" y="-16" on="0"/>
        <pt x="172" y="370" on="1"/>
        <pt x="138" y="491" on="0"/>
        <pt x="138" y="638" on="1"/>
        <pt x="142" y="1522" on="1"/>
        <pt x="520" y="1522" on="1"/>
        <pt x="517" y="685" on="1"/>
        <pt x="517" y="678" on="0"/>
        <pt x="517" y="561" on="0"/>
        <pt x="549" y="410" on="0"/>
        <pt x="582" y="364" on="1"/>
        <pt x="639" y="284" on="0"/>
        <pt x="775" y="284" on="1"/>
        <pt x="908" y="284" on="0"/>
        <pt x="968" y="368" on="1"/>
        <pt x="1032" y="458" on="0"/>
        <pt x="1032" y="685" on="1"/>
        <pt x="1032" y="1522" on="1"/>
        <pt x="1408" y="1522" on="1"/>
      </contour>
    </TTGlyph>
    <TTGlyph name="Uacute" xMin="138" yMin="-16" xMax="1408" yMax="1988">
      <component glyphName="acute.cap" x="526" y="0" flags="0x1004"/>
      <component glyphName="U" x="0" y="0" flags="0x1004"/>
    </TTGlyph>
    <TTGlyph name="Ubreve" xMin="138" yMin="-16" xMax="1408" yMax="1964">
      <component glyphName="breve.cap" x="359" y="0" flags="0x1004"/>
      <component glyphName="U" x="0" y="0" flags="0x1004"/>
    </TTGlyph>
    <TTGlyph name="Ucircumflex" xMin="138" yMin="-16" xMax="1408" yMax="1964">
      <component glyphName="U" x="0" y="0" flags="0x1204"/>
      <component glyphName="circumflex.cap" x="328" y="0" flags="0x1004"/>
    </TTGlyph>
    <TTGlyph name="Udieresis" xMin="138" yMin="-16" xMax="1408" yMax="1964">
      <component glyphName="dieresis.cap" x="254" y="0" flags="0x1004"/>
      <component glyphName="U" x="0" y="0" flags="0x1004"/>
    </TTGlyph>
    <TTGlyph name="Ugrave" xMin="138" yMin="-16" xMax="1408" yMax="1988">
      <component glyphName="grave.cap" x="345" y="0" flags="0x1004"/>
      <component glyphName="U" x="0" y="0" flags="0x1004"/>
    </TTGlyph>
    <TTGlyph name="Uhungarumlaut" xMin="138" yMin="-16" xMax="1408" yMax="1964">
      <component glyphName="U" x="0" y="0" flags="0x1204"/>
      <component glyphName="hungarumlaut.cap" x="355" y="0" flags="0x1004"/>
    </TTGlyph>
    <TTGlyph name="Umacron" xMin="138" yMin="-16" xMax="1408" yMax="1909">
      <component glyphName="macron.cap" x="413" y="0" flags="0x1004"/>
      <component glyphName="U" x="0" y="0" flags="0x1004"/>
    </TTGlyph>
    <TTGlyph name="Uogonek" xMin="138" yMin="-516" xMax="1408" yMax="1522">
      <contour>
        <pt x="604" y="-280" on="1"/>
        <pt x="604" y="-125" on="0"/>
        <pt x="774" y="-16" on="1"/>
        <pt x="278" y="-13" on="0"/>
        <pt x="172" y="370" on="1"/>
        <pt x="138" y="491" on="0"/>
        <pt x="138" y="638" on="1"/>
        <pt x="142" y="1522" on="1"/>
        <pt x="520" y="1522" on="1"/>
        <pt x="517" y="685" on="1"/>
        <pt x="517" y="678" on="0"/>
        <pt x="517" y="561" on="0"/>
        <pt x="549" y="410" on="0"/>
        <pt x="582" y="364" on="1"/>
        <pt x="639" y="284" on="0"/>
        <pt x="775" y="284" on="1"/>
        <pt x="908" y="284" on="0"/>
        <pt x="968" y="368" on="1"/>
        <pt x="1032" y="458" on="0"/>
        <pt x="1032" y="685" on="1"/>
        <pt x="1032" y="1522" on="1"/>
        <pt x="1408" y="1522" on="1"/>
        <pt x="1408" y="632" on="1"/>
        <pt x="1408" y="122" on="0"/>
        <pt x="1019" y="14" on="1"/>
        <pt x="898" y="-103" on="0"/>
        <pt x="901" y="-207" on="1"/>
        <pt x="907" y="-299" on="0"/>
        <pt x="1034" y="-299" on="1"/>
        <pt x="1081" y="-299" on="0"/>
        <pt x="1143" y="-279" on="1"/>
        <pt x="1143" y="-449" on="1"/>
        <pt x="1036" y="-516" on="0"/>
        <pt x="885" y="-516" on="1"/>
        <pt x="773" y="-516" on="0"/>
        <pt x="691" y="-453" on="1"/>
        <pt x="604" y="-386" on="0"/>
      </contour>
    </TTGlyph>
    <TTGlyph name="Uring" xMin="138" yMin="-16" xMax="1408" yMax="1978">
      <component glyphName="U" x="0" y="0" flags="0x1204"/>
      <component glyphName="ring.cap" x="382" y="0" flags="0x1004"/>
    </TTGlyph>
    <TTGlyph name="Utilde" xMin="138" yMin="-16" xMax="1408" yMax="1963">
      <component glyphName="tilde.cap" x="309" y="0" flags="0x1004"/>
      <component glyphName="U" x="0" y="0" flags="0x1004"/>
    </TTGlyph>
    <TTGlyph name="V" xMin="-12" yMin="-4" xMax="1422" yMax="1522">
      <contour>
        <pt x="-12" y="1522" on="1"/>
        <pt x="394" y="1522" on="1"/>
        <pt x="637" y="753" on="1"/>
        <pt x="713" y="457" on="1"/>
        <pt x="789" y="753" on="1"/>
        <pt x="1016" y="1522" on="1"/>
        <pt x="1422" y="1522" on="1"/>
        <pt x="873" y="-4" on="1"/>
        <pt x="541" y="-4" on="1"/>
      </contour>
    </TTGlyph>
    <TTGlyph name="W" xMin="-13" yMin="-10" xMax="2011" yMax="1522">
      <contour>
        <pt x="-13" y="1522" on="1"/>
        <pt x="369" y="1522" on="1"/>
        <pt x="528" y="672" on="1"/>
        <pt x="575" y="309" on="1"/>
        <pt x="630" y="672" on="1"/>
        <pt x="831" y="1522" on="1"/>
        <pt x="1178" y="1522" on="1"/>
        <pt x="1385" y="672" on="1"/>
        <pt x="1441" y="329" on="1"/>
        <pt x="1486" y="672" on="1"/>
        <pt x="1644" y="1522" on="1"/>
        <pt x="2011" y="1522" on="1"/>
        <pt x="1610" y="-10" on="1"/>
        <pt x="1235" y="-10" on="1"/>
        <pt x="1040" y="785" on="1"/>
        <pt x="991" y="1103" on="1"/>
        <pt x="948" y="784" on="1"/>
        <pt x="755" y="-10" on="1"/>
        <pt x="387" y="-10" on="1"/>
      </contour>
    </TTGlyph>
    <TTGlyph name="Wacute" xMin="-13" yMin="-10" xMax="2011" yMax="1988">
      <component glyphName="acute.cap" x="740" y="0" flags="0x1004"/>
      <component glyphName="W" x="0" y="0" flags="0x1004"/>
    </TTGlyph>
    <TTGlyph name="Wcircumflex" xMin="-13" yMin="-10" xMax="2011" yMax="1964">
      <component glyphName="W" x="0" y="0" flags="0x1204"/>
      <component glyphName="circumflex.cap" x="542" y="0" flags="0x1004"/>
    </TTGlyph>
    <TTGlyph name="Wdieresis" xMin="-13" yMin="-10" xMax="2011" yMax="1964">
      <component glyphName="dieresis.cap" x="468" y="0" flags="0x1004"/>
      <component glyphName="W" x="0" y="0" flags="0x1004"/>
    </TTGlyph>
    <TTGlyph name="Wgrave" xMin="-13" yMin="-10" xMax="2011" yMax="1988">
      <component glyphName="grave.cap" x="559" y="0" flags="0x1004"/>
      <component glyphName="W" x="0" y="0" flags="0x1004"/>
    </TTGlyph>
    <TTGlyph name="X" xMin="14" yMin="0" xMax="1384" yMax="1523">
      <contour>
        <pt x="463" y="779" on="1"/>
        <pt x="26" y="1522" on="1"/>
        <pt x="445" y="1523" on="1"/>
        <pt x="654" y="1140" on="1"/>
        <pt x="714" y="1024" on="1"/>
        <pt x="970" y="1522" on="1"/>
        <pt x="1370" y="1522" on="1"/>
        <pt x="928" y="756" on="1"/>
        <pt x="1384" y="0" on="1"/>
        <pt x="962" y="0" on="1"/>
        <pt x="749" y="392" on="1"/>
        <pt x="685" y="523" on="1"/>
        <pt x="622" y="392" on="1"/>
        <pt x="416" y="0" on="1"/>
        <pt x="14" y="0" on="1"/>
      </contour>
    </TTGlyph>
    <TTGlyph name="Y" xMin="-53" yMin="0" xMax="1342" yMax="1522">
      <contour>
        <pt x="448" y="536" on="1"/>
        <pt x="-53" y="1522" on="1"/>
        <pt x="364" y="1522" on="1"/>
        <pt x="590" y="1030" on="1"/>
        <pt x="654" y="860" on="1"/>
        <pt x="708" y="1030" on="1"/>
        <pt x="937" y="1522" on="1"/>
        <pt x="1342" y="1522" on="1"/>
        <pt x="837" y="534" on="1"/>
        <pt x="837" y="0" on="1"/>
        <pt x="448" y="0" on="1"/>
      </contour>
    </TTGlyph>
    <TTGlyph name="Yacute" xMin="-53" yMin="0" xMax="1342" yMax="1988">
      <component glyphName="Y" x="0" y="0" flags="0x1204"/>
      <component glyphName="acute.cap" x="416" y="0" flags="0x1004"/>
    </TTGlyph>
    <TTGlyph name="Ycircumflex" xMin="-53" yMin="0" xMax="1342" yMax="1964">
      <component glyphName="Y" x="0" y="0" flags="0x1204"/>
      <component glyphName="circumflex.cap" x="219" y="0" flags="0x1004"/>
    </TTGlyph>
    <TTGlyph name="Ydieresis" xMin="-53" yMin="0" xMax="1342" yMax="1964">
      <component glyphName="Y" x="0" y="0" flags="0x1204"/>
      <component glyphName="dieresis.cap" x="145" y="0" flags="0x1004"/>
    </TTGlyph>
    <TTGlyph name="Ygrave" xMin="-53" yMin="0" xMax="1342" yMax="1988">
      <component glyphName="Y" x="0" y="0" flags="0x1204"/>
      <component glyphName="grave.cap" x="235" y="0" flags="0x1004"/>
    </TTGlyph>
    <TTGlyph name="Z" xMin="36" yMin="0" xMax="1244" yMax="1522">
      <contour>
        <pt x="36" y="84" on="1"/>
        <pt x="661" y="1146" on="1"/>
        <pt x="728" y="1244" on="1"/>
        <pt x="108" y="1244" on="1"/>
        <pt x="108" y="1522" on="1"/>
        <pt x="1203" y="1522" on="1"/>
        <pt x="1244" y="1441" on="1"/>
        <pt x="631" y="389" on="1"/>
        <pt x="557" y="284" on="1"/>
        <pt x="1206" y="284" on="1"/>
        <pt x="1206" y="0" on="1"/>
        <pt x="78" y="0" on="1"/>
      </contour>
    </TTGlyph>
    <TTGlyph name="Zacute" xMin="36" yMin="0" xMax="1244" yMax="1988">
      <component glyphName="Z" x="0" y="0" flags="0x1204"/>
      <component glyphName="acute.cap" x="427" y="0" flags="0x1004"/>
    </TTGlyph>
    <TTGlyph name="Zcaron" xMin="36" yMin="0" xMax="1244" yMax="1964">
      <component glyphName="caron.cap" x="232" y="0" flags="0x1004"/>
      <component glyphName="Z" x="0" y="0" flags="0x1004"/>
    </TTGlyph>
    <TTGlyph name="Zdotaccent" xMin="36" yMin="0" xMax="1244" yMax="1963">
      <component glyphName="dotaccent.cap" x="415" y="0" flags="0x1004"/>
      <component glyphName="Z" x="0" y="0" flags="0x1004"/>
    </TTGlyph>
    <TTGlyph name="a" xMin="85" yMin="-16" xMax="1124" yMax="1160">
      <contour>
        <pt x="775" y="96" on="1"/>
        <pt x="647" y="-16" on="0"/>
        <pt x="457" y="-16" on="1"/>
        <pt x="289" y="-16" on="0"/>
        <pt x="186" y="86" on="1"/>
        <pt x="85" y="188" on="0"/>
        <pt x="85" y="348" on="1"/>
        <pt x="85" y="449" on="0"/>
        <pt x="195" y="596" on="0"/>
        <pt x="342" y="659" on="0"/>
        <pt x="461" y="687" on="0"/>
        <pt x="522" y="694" on="1"/>
        <pt x="625" y="706" on="0"/>
        <pt x="756" y="706" on="1"/>
        <pt x="756" y="775" on="1"/>
        <pt x="756" y="850" on="0"/>
        <pt x="716" y="874" on="1"/>
        <pt x="674" y="898" on="0"/>
        <pt x="548" y="898" on="1"/>
        <pt x="446" y="898" on="0"/>
        <pt x="289" y="850" on="1"/>
        <pt x="242" y="835" on="0"/>
        <pt x="204" y="817" on="1"/>
        <pt x="129" y="1035" on="1"/>
        <pt x="252" y="1110" on="0"/>
        <pt x="478" y="1148" on="1"/>
        <pt x="554" y="1160" on="0"/>
        <pt x="765" y="1160" on="0"/>
        <pt x="953" y="1114" on="0"/>
        <pt x="1012" y="1062" on="1"/>
        <pt x="1124" y="965" on="0"/>
        <pt x="1124" y="729" on="1"/>
        <pt x="1124" y="-16" on="1"/>
        <pt x="892" y="-16" on="1"/>
        <pt x="828" y="-16" on="0"/>
        <pt x="809" y="-4" on="1"/>
        <pt x="775" y="19" on="0"/>
        <pt x="775" y="88" on="1"/>
      </contour>
      <contour>
        <pt x="467" y="362" on="1"/>
        <pt x="467" y="326" on="0"/>
        <pt x="491" y="268" on="0"/>
        <pt x="512" y="249" on="1"/>
        <pt x="551" y="212" on="0"/>
        <pt x="612" y="212" on="1"/>
        <pt x="677" y="212" on="0"/>
        <pt x="733" y="244" on="1"/>
        <pt x="748" y="252" on="0"/>
        <pt x="756" y="260" on="1"/>
        <pt x="756" y="528" on="1"/>
        <pt x="631" y="528" on="0"/>
        <pt x="556" y="493" on="1"/>
        <pt x="467" y="460" on="0"/>
      </contour>
    </TTGlyph>
    <TTGlyph name="aacute" xMin="85" yMin="-16" xMax="1124" yMax="1825">
      <component glyphName="a" x="0" y="0" flags="0x1204"/>
      <component glyphName="acute" x="450" y="0" flags="0x1004"/>
    </TTGlyph>
    <TTGlyph name="abreve" xMin="85" yMin="-16" xMax="1124" yMax="1688">
      <component glyphName="a" x="0" y="0" flags="0x1204"/>
      <component glyphName="breve" x="225" y="0" flags="0x1004"/>
    </TTGlyph>
    <TTGlyph name="acircumflex" xMin="85" yMin="-16" xMax="1124" yMax="1733">
      <component glyphName="a" x="0" y="0" flags="0x1204"/>
      <component glyphName="circumflex" x="193" y="0" flags="0x1004"/>
    </TTGlyph>
    <TTGlyph name="acute" xMin="37" yMin="1238" xMax="619" yMax="1825">
      <contour>
        <pt x="37" y="1396" on="1"/>
        <pt x="222" y="1581" on="0"/>
        <pt x="376" y="1825" on="1"/>
        <pt x="619" y="1636" on="1"/>
        <pt x="561" y="1499" on="0"/>
        <pt x="342" y="1326" on="1"/>
        <pt x="264" y="1265" on="0"/>
        <pt x="210" y="1238" on="1"/>
      </contour>
    </TTGlyph>
    <TTGlyph name="acute.cap" xMin="102" yMin="1534" xMax="624" yMax="1988">
      <contour>
        <pt x="102" y="1666" on="1"/>
        <pt x="264" y="1828" on="0"/>
        <pt x="336" y="1940" on="1"/>
        <pt x="355" y="1968" on="0"/>
        <pt x="362" y="1988" on="1"/>
        <pt x="624" y="1858" on="1"/>
        <pt x="533" y="1724" on="0"/>
        <pt x="386" y="1603" on="1"/>
        <pt x="320" y="1548" on="0"/>
        <pt x="275" y="1534" on="1"/>
      </contour>
    </TTGlyph>
    <TTGlyph name="adieresis" xMin="85" yMin="-16" xMax="1124" yMax="1675">
      <component glyphName="a" x="0" y="0" flags="0x1204"/>
      <component glyphName="dieresis" x="121" y="0" flags="0x1004"/>
    </TTGlyph>
    <TTGlyph name="ae" xMin="92" yMin="-16" xMax="1792" yMax="1160">
      <contour>
        <pt x="881" y="156" on="1"/>
        <pt x="724" y="-16" on="0"/>
        <pt x="462" y="-16" on="1"/>
        <pt x="299" y="-16" on="0"/>
        <pt x="198" y="76" on="1"/>
        <pt x="92" y="170" on="0"/>
        <pt x="92" y="333" on="1"/>
        <pt x="92" y="487" on="0"/>
        <pt x="216" y="584" on="1"/>
        <pt x="292" y="643" on="0"/>
        <pt x="467" y="684" on="0"/>
        <pt x="526" y="692" on="1"/>
        <pt x="629" y="706" on="0"/>
        <pt x="751" y="706" on="1"/>
        <pt x="751" y="767" on="1"/>
        <pt x="751" y="838" on="0"/>
        <pt x="652" y="894" on="0"/>
        <pt x="499" y="894" on="0"/>
        <pt x="397" y="877" on="0"/>
        <pt x="352" y="864" on="1"/>
        <pt x="259" y="839" on="0"/>
        <pt x="214" y="813" on="1"/>
        <pt x="135" y="1035" on="1"/>
        <pt x="259" y="1105" on="0"/>
        <pt x="461" y="1144" on="1"/>
        <pt x="547" y="1160" on="0"/>
        <pt x="647" y="1160" on="1"/>
        <pt x="889" y="1160" on="0"/>
        <pt x="983" y="1062" on="1"/>
        <pt x="1121" y="1156" on="0"/>
        <pt x="1317" y="1156" on="1"/>
        <pt x="1645" y="1156" on="0"/>
        <pt x="1751" y="920" on="1"/>
        <pt x="1791" y="830" on="0"/>
        <pt x="1792" y="568" on="0"/>
        <pt x="1781" y="487" on="1"/>
        <pt x="1117" y="487" on="1"/>
        <pt x="1135" y="250" on="0"/>
        <pt x="1400" y="250" on="1"/>
        <pt x="1528" y="250" on="0"/>
        <pt x="1648" y="286" on="1"/>
        <pt x="1682" y="297" on="0"/>
        <pt x="1703" y="308" on="1"/>
        <pt x="1760" y="107" on="1"/>
        <pt x="1661" y="26" on="0"/>
        <pt x="1458" y="-6" on="1"/>
        <pt x="1390" y="-16" on="0"/>
        <pt x="1314" y="-16" on="1"/>
        <pt x="1028" y="-16" on="0"/>
      </contour>
      <contour>
        <pt x="1453" y="668" on="1"/>
        <pt x="1454" y="689" on="0"/>
        <pt x="1454" y="709" on="1"/>
        <pt x="1454" y="803" on="0"/>
        <pt x="1393" y="917" on="0"/>
        <pt x="1309" y="917" on="1"/>
        <pt x="1185" y="917" on="0"/>
        <pt x="1142" y="786" on="1"/>
        <pt x="1127" y="739" on="0"/>
        <pt x="1120" y="668" on="1"/>
      </contour>
      <contour>
        <pt x="466" y="358" on="1"/>
        <pt x="466" y="322" on="0"/>
        <pt x="491" y="266" on="0"/>
        <pt x="511" y="248" on="1"/>
        <pt x="587" y="177" on="0"/>
        <pt x="716" y="236" on="1"/>
        <pt x="769" y="261" on="0"/>
        <pt x="797" y="299" on="1"/>
        <pt x="757" y="402" on="0"/>
        <pt x="751" y="528" on="1"/>
        <pt x="616" y="526" on="0"/>
        <pt x="526" y="477" on="1"/>
        <pt x="466" y="444" on="0"/>
      </contour>
    </TTGlyph>
    <TTGlyph name="aeacute" xMin="92" yMin="-16" xMax="1792" yMax="1825">
      <component glyphName="acute" x="750" y="0" flags="0x1004"/>
      <component glyphName="ae" x="0" y="0" flags="0x1004"/>
    </TTGlyph>
    <TTGlyph name="afii61352" xMin="173" yMin="0" xMax="2675" yMax="1530">
      <contour>
        <pt x="2134" y="398" on="1"/>
        <pt x="1591" y="398" on="0"/>
        <pt x="1591" y="964" on="1"/>
        <pt x="1591" y="1238" on="0"/>
        <pt x="1744" y="1386" on="1"/>
        <pt x="1891" y="1530" on="0"/>
        <pt x="2153" y="1530" on="1"/>
        <pt x="2418" y="1530" on="0"/>
        <pt x="2554" y="1366" on="1"/>
        <pt x="2674" y="1221" on="0"/>
        <pt x="2674" y="978" on="1"/>
        <pt x="2674" y="709" on="0"/>
        <pt x="2528" y="552" on="1"/>
        <pt x="2384" y="398" on="0"/>
      </contour>
      <contour>
        <pt x="173" y="1522" on="1"/>
        <pt x="524" y="1522" on="1"/>
        <pt x="1002" y="699" on="1"/>
        <pt x="1094" y="487" on="1"/>
        <pt x="1073" y="788" on="1"/>
        <pt x="1073" y="1522" on="1"/>
        <pt x="1402" y="1522" on="1"/>
        <pt x="1402" y="0" on="1"/>
        <pt x="1044" y="0" on="1"/>
        <pt x="582" y="789" on="1"/>
        <pt x="476" y="1025" on="1"/>
        <pt x="503" y="686" on="1"/>
        <pt x="503" y="0" on="1"/>
        <pt x="173" y="0" on="1"/>
      </contour>
      <contour>
        <pt x="2141" y="1288" on="1"/>
        <pt x="1946" y="1288" on="0"/>
        <pt x="1946" y="636" on="0"/>
        <pt x="2138" y="636" on="1"/>
        <pt x="2235" y="636" on="0"/>
        <pt x="2319" y="796" on="0"/>
        <pt x="2319" y="967" on="1"/>
        <pt x="2319" y="1288" on="0"/>
      </contour>
      <contour>
        <pt x="1675" y="246" on="1"/>
        <pt x="2612" y="246" on="1"/>
        <pt x="2612" y="0" on="1"/>
        <pt x="1675" y="0" on="1"/>
      </contour>
    </TTGlyph>
    <TTGlyph name="agrave" xMin="85" yMin="-16" xMax="1124" yMax="1825">
      <component glyphName="a" x="0" y="0" flags="0x1204"/>
      <component glyphName="grave" x="118" y="0" flags="0x1004"/>
    </TTGlyph>
    <TTGlyph name="amacron" xMin="85" yMin="-16" xMax="1124" yMax="1642">
      <component glyphName="a" x="0" y="0" flags="0x1204"/>
      <component glyphName="macron" x="276" y="0" flags="0x1004"/>
    </TTGlyph>
    <TTGlyph name="ampersand" xMin="61" yMin="-16" xMax="1496" yMax="1546">
      <contour>
        <pt x="1062" y="51" on="1"/>
        <pt x="903" y="-16" on="0"/>
        <pt x="570" y="-16" on="0"/>
        <pt x="315" y="41" on="0"/>
        <pt x="230" y="96" on="1"/>
        <pt x="61" y="204" on="0"/>
        <pt x="61" y="410" on="1"/>
        <pt x="61" y="658" on="0"/>
        <pt x="368" y="793" on="1"/>
        <pt x="237" y="982" on="0"/>
        <pt x="237" y="1154" on="1"/>
        <pt x="237" y="1339" on="0"/>
        <pt x="362" y="1443" on="1"/>
        <pt x="487" y="1546" on="0"/>
        <pt x="698" y="1546" on="1"/>
        <pt x="899" y="1546" on="0"/>
        <pt x="1024" y="1438" on="1"/>
        <pt x="1146" y="1333" on="0"/>
        <pt x="1146" y="1172" on="1"/>
        <pt x="1146" y="930" on="0"/>
        <pt x="948" y="801" on="1"/>
        <pt x="889" y="763" on="0"/>
        <pt x="824" y="731" on="1"/>
        <pt x="943" y="568" on="0"/>
        <pt x="1088" y="414" on="1"/>
        <pt x="1144" y="495" on="0"/>
        <pt x="1144" y="603" on="1"/>
        <pt x="1144" y="683" on="0"/>
        <pt x="1128" y="755" on="0"/>
        <pt x="1127" y="766" on="1"/>
        <pt x="1421" y="766" on="1"/>
        <pt x="1436" y="698" on="0"/>
        <pt x="1436" y="602" on="1"/>
        <pt x="1436" y="374" on="0"/>
        <pt x="1312" y="239" on="1"/>
        <pt x="1390" y="204" on="0"/>
        <pt x="1496" y="204" on="1"/>
        <pt x="1496" y="-1" on="1"/>
        <pt x="1431" y="-16" on="0"/>
        <pt x="1340" y="-16" on="1"/>
        <pt x="1189" y="-16" on="0"/>
      </contour>
      <contour>
        <pt x="687" y="910" on="1"/>
        <pt x="843" y="1010" on="0"/>
        <pt x="843" y="1169" on="1"/>
        <pt x="843" y="1262" on="0"/>
        <pt x="772" y="1299" on="1"/>
        <pt x="745" y="1313" on="0"/>
        <pt x="669" y="1313" on="0"/>
        <pt x="616" y="1290" on="0"/>
        <pt x="598" y="1270" on="1"/>
        <pt x="560" y="1228" on="0"/>
        <pt x="560" y="1130" on="0"/>
        <pt x="574" y="1074" on="0"/>
        <pt x="590" y="1046" on="1"/>
        <pt x="614" y="1000" on="0"/>
      </contour>
      <contour>
        <pt x="514" y="603" on="1"/>
        <pt x="404" y="532" on="0"/>
        <pt x="404" y="428" on="1"/>
        <pt x="404" y="232" on="0"/>
        <pt x="698" y="232" on="1"/>
        <pt x="773" y="232" on="0"/>
        <pt x="827" y="244" on="1"/>
        <pt x="663" y="412" on="0"/>
      </contour>
    </TTGlyph>
    <TTGlyph name="aogonek" xMin="85" yMin="-516" xMax="1124" yMax="1160">
      <contour>
        <pt x="775" y="96" on="1"/>
        <pt x="647" y="-16" on="0"/>
        <pt x="457" y="-16" on="1"/>
        <pt x="289" y="-16" on="0"/>
        <pt x="186" y="86" on="1"/>
        <pt x="85" y="188" on="0"/>
        <pt x="85" y="348" on="1"/>
        <pt x="85" y="449" on="0"/>
        <pt x="195" y="596" on="0"/>
        <pt x="342" y="659" on="0"/>
        <pt x="461" y="687" on="0"/>
        <pt x="522" y="694" on="1"/>
        <pt x="625" y="706" on="0"/>
        <pt x="756" y="706" on="1"/>
        <pt x="756" y="775" on="1"/>
        <pt x="756" y="850" on="0"/>
        <pt x="716" y="874" on="1"/>
        <pt x="674" y="898" on="0"/>
        <pt x="548" y="898" on="1"/>
        <pt x="446" y="898" on="0"/>
        <pt x="289" y="850" on="1"/>
        <pt x="242" y="835" on="0"/>
        <pt x="204" y="817" on="1"/>
        <pt x="129" y="1035" on="1"/>
        <pt x="252" y="1110" on="0"/>
        <pt x="478" y="1148" on="1"/>
        <pt x="554" y="1160" on="0"/>
        <pt x="765" y="1160" on="0"/>
        <pt x="953" y="1114" on="0"/>
        <pt x="1012" y="1062" on="1"/>
        <pt x="1124" y="965" on="0"/>
        <pt x="1124" y="729" on="1"/>
        <pt x="1124" y="-16" on="1"/>
        <pt x="1042" y="-16" on="1"/>
        <pt x="964" y="-61" on="0"/>
        <pt x="936" y="-93" on="1"/>
        <pt x="883" y="-153" on="0"/>
        <pt x="890" y="-260" on="0"/>
        <pt x="958" y="-299" on="0"/>
        <pt x="1059" y="-299" on="0"/>
        <pt x="1121" y="-279" on="1"/>
        <pt x="1121" y="-449" on="1"/>
        <pt x="1014" y="-516" on="0"/>
        <pt x="863" y="-516" on="1"/>
        <pt x="748" y="-516" on="0"/>
        <pt x="670" y="-461" on="1"/>
        <pt x="582" y="-400" on="0"/>
        <pt x="582" y="-298" on="1"/>
        <pt x="582" y="-120" on="0"/>
        <pt x="809" y="-4" on="1"/>
        <pt x="775" y="14" on="0"/>
        <pt x="775" y="88" on="1"/>
      </contour>
      <contour>
        <pt x="467" y="362" on="1"/>
        <pt x="467" y="326" on="0"/>
        <pt x="491" y="268" on="0"/>
        <pt x="512" y="249" on="1"/>
        <pt x="551" y="212" on="0"/>
        <pt x="612" y="212" on="1"/>
        <pt x="677" y="212" on="0"/>
        <pt x="733" y="244" on="1"/>
        <pt x="748" y="252" on="0"/>
        <pt x="756" y="260" on="1"/>
        <pt x="756" y="528" on="1"/>
        <pt x="631" y="528" on="0"/>
        <pt x="556" y="493" on="1"/>
        <pt x="467" y="460" on="0"/>
      </contour>
    </TTGlyph>
    <TTGlyph name="approxequal" xMin="186" yMin="193" xMax="1258" yMax="1144">
      <component glyphName="asciitilde" x="2" y="-439" flags="0x1204"/>
      <component glyphName="asciitilde" x="-4" y="75" flags="0x1004"/>
    </TTGlyph>
    <TTGlyph name="aring" xMin="85" yMin="-16" xMax="1124" yMax="1906">
      <component glyphName="a" x="0" y="0" flags="0x1204"/>
      <component glyphName="ring" x="249" y="0" flags="0x1004"/>
    </TTGlyph>
    <TTGlyph name="asciicircum" xMin="138" yMin="490" xMax="1252" yMax="1531">
      <contour>
        <pt x="575" y="1531" on="1"/>
        <pt x="816" y="1531" on="1"/>
        <pt x="1252" y="490" on="1"/>
        <pt x="927" y="490" on="1"/>
        <pt x="694" y="1075" on="1"/>
        <pt x="468" y="490" on="1"/>
        <pt x="138" y="490" on="1"/>
      </contour>
    </TTGlyph>
    <TTGlyph name="asciitilde" xMin="190" yMin="632" xMax="1256" yMax="1069">
      <contour>
        <pt x="932" y="913" on="1"/>
        <pt x="1031" y="913" on="0"/>
        <pt x="1129" y="1017" on="1"/>
        <pt x="1256" y="855" on="1"/>
        <pt x="1237" y="782" on="0"/>
        <pt x="1146" y="713" on="1"/>
        <pt x="1039" y="632" on="0"/>
        <pt x="916" y="632" on="1"/>
        <pt x="800" y="632" on="0"/>
        <pt x="704" y="711" on="1"/>
        <pt x="641" y="762" on="0"/>
        <pt x="569" y="790" on="0"/>
        <pt x="493" y="790" on="0"/>
        <pt x="435" y="770" on="0"/>
        <pt x="412" y="754" on="1"/>
        <pt x="385" y="737" on="0"/>
        <pt x="334" y="686" on="1"/>
        <pt x="190" y="834" on="1"/>
        <pt x="210" y="904" on="0"/>
        <pt x="302" y="979" on="1"/>
        <pt x="413" y="1069" on="0"/>
        <pt x="535" y="1069" on="1"/>
        <pt x="655" y="1069" on="0"/>
        <pt x="758" y="991" on="1"/>
        <pt x="824" y="942" on="0"/>
        <pt x="896" y="913" on="0"/>
      </contour>
    </TTGlyph>
    <TTGlyph name="asterisk" xMin="133" yMin="584" xMax="1279" yMax="1758">
      <contour>
        <pt x="140" y="992" on="1"/>
        <pt x="429" y="1131" on="1"/>
        <pt x="589" y="1173" on="1"/>
        <pt x="584" y="1174" on="0"/>
        <pt x="538" y="1185" on="0"/>
        <pt x="510" y="1191" on="1"/>
        <pt x="435" y="1207" on="0"/>
        <pt x="427" y="1211" on="1"/>
        <pt x="133" y="1342" on="1"/>
        <pt x="257" y="1585" on="1"/>
        <pt x="530" y="1396" on="1"/>
        <pt x="648" y="1275" on="1"/>
        <pt x="647" y="1280" on="0"/>
        <pt x="633" y="1327" on="0"/>
        <pt x="625" y="1354" on="1"/>
        <pt x="603" y="1428" on="0"/>
        <pt x="602" y="1437" on="1"/>
        <pt x="562" y="1758" on="1"/>
        <pt x="834" y="1758" on="1"/>
        <pt x="807" y="1442" on="1"/>
        <pt x="763" y="1277" on="1"/>
        <pt x="768" y="1280" on="0"/>
        <pt x="803" y="1321" on="1"/>
        <pt x="855" y="1379" on="0"/>
        <pt x="879" y="1403" on="1"/>
        <pt x="1145" y="1595" on="1"/>
        <pt x="1272" y="1353" on="1"/>
        <pt x="985" y="1219" on="1"/>
        <pt x="822" y="1174" on="1"/>
        <pt x="987" y="1135" on="1"/>
        <pt x="1279" y="1010" on="1"/>
        <pt x="1142" y="759" on="1"/>
        <pt x="888" y="947" on="1"/>
        <pt x="765" y="1067" on="1"/>
        <pt x="766" y="1062" on="0"/>
        <pt x="780" y="1016" on="0"/>
        <pt x="796" y="962" on="0"/>
        <pt x="811" y="914" on="0"/>
        <pt x="812" y="907" on="1"/>
        <pt x="849" y="584" on="1"/>
        <pt x="578" y="584" on="1"/>
        <pt x="607" y="905" on="1"/>
        <pt x="650" y="1068" on="1"/>
        <pt x="534" y="941" on="1"/>
        <pt x="274" y="748" on="1"/>
      </contour>
    </TTGlyph>
    <TTGlyph name="at" xMin="143" yMin="-461" xMax="2090" yMax="1543">
      <contour>
        <pt x="1579" y="-319" on="1"/>
        <pt x="1366" y="-461" on="0"/>
        <pt x="1040" y="-461" on="1"/>
        <pt x="655" y="-461" on="0"/>
        <pt x="411" y="-249" on="1"/>
        <pt x="241" y="-102" on="0"/>
        <pt x="176" y="147" on="1"/>
        <pt x="143" y="273" on="0"/>
        <pt x="143" y="595" on="0"/>
        <pt x="224" y="891" on="0"/>
        <pt x="371" y="1138" on="0"/>
        <pt x="576" y="1334" on="0"/>
        <pt x="700" y="1402" on="1"/>
        <pt x="953" y="1543" on="0"/>
        <pt x="1255" y="1543" on="1"/>
        <pt x="1624" y="1543" on="0"/>
        <pt x="1851" y="1352" on="1"/>
        <pt x="2090" y="1150" on="0"/>
        <pt x="2090" y="797" on="1"/>
        <pt x="2090" y="409" on="0"/>
        <pt x="1894" y="190" on="1"/>
        <pt x="1720" y="-5" on="0"/>
        <pt x="1476" y="-5" on="1"/>
        <pt x="1375" y="-5" on="0"/>
        <pt x="1322" y="38" on="1"/>
        <pt x="1254" y="93" on="0"/>
        <pt x="1262" y="245" on="1"/>
        <pt x="1110" y="-5" on="0"/>
        <pt x="906" y="-5" on="1"/>
        <pt x="784" y="-5" on="0"/>
        <pt x="696" y="106" on="1"/>
        <pt x="604" y="225" on="0"/>
        <pt x="604" y="420" on="1"/>
        <pt x="604" y="671" on="0"/>
        <pt x="753" y="864" on="1"/>
        <pt x="855" y="997" on="0"/>
        <pt x="1024" y="1052" on="1"/>
        <pt x="1110" y="1080" on="0"/>
        <pt x="1356" y="1080" on="0"/>
        <pt x="1445" y="1025" on="1"/>
        <pt x="1642" y="1056" on="1"/>
        <pt x="1634" y="1020" on="0"/>
        <pt x="1615" y="924" on="0"/>
        <pt x="1593" y="814" on="0"/>
        <pt x="1570" y="695" on="0"/>
        <pt x="1558" y="636" on="1"/>
        <pt x="1531" y="504" on="0"/>
        <pt x="1516" y="433" on="1"/>
        <pt x="1496" y="340" on="0"/>
        <pt x="1496" y="290" on="1"/>
        <pt x="1496" y="206" on="0"/>
        <pt x="1604" y="206" on="0"/>
        <pt x="1718" y="280" on="0"/>
        <pt x="1764" y="352" on="1"/>
        <pt x="1869" y="515" on="0"/>
        <pt x="1869" y="771" on="1"/>
        <pt x="1869" y="1176" on="0"/>
        <pt x="1540" y="1302" on="1"/>
        <pt x="1411" y="1352" on="0"/>
        <pt x="1135" y="1352" on="0"/>
        <pt x="915" y="1297" on="0"/>
        <pt x="719" y="1189" on="0"/>
        <pt x="555" y="1031" on="0"/>
        <pt x="496" y="928" on="1"/>
        <pt x="369" y="711" on="0"/>
        <pt x="369" y="427" on="1"/>
        <pt x="369" y="-52" on="0"/>
        <pt x="734" y="-209" on="1"/>
        <pt x="877" y="-271" on="0"/>
        <pt x="1060" y="-271" on="1"/>
        <pt x="1303" y="-271" on="0"/>
        <pt x="1460" y="-192" on="1"/>
        <pt x="1501" y="-171" on="0"/>
        <pt x="1533" y="-153" on="1"/>
      </contour>
      <contour>
        <pt x="1321" y="814" on="1"/>
        <pt x="1278" y="861" on="0"/>
        <pt x="1119" y="861" on="0"/>
        <pt x="1013" y="793" on="0"/>
        <pt x="973" y="736" on="1"/>
        <pt x="886" y="614" on="0"/>
        <pt x="886" y="453" on="1"/>
        <pt x="886" y="353" on="0"/>
        <pt x="939" y="253" on="0"/>
        <pt x="1016" y="253" on="0"/>
        <pt x="1088" y="304" on="0"/>
        <pt x="1158" y="390" on="0"/>
        <pt x="1224" y="504" on="0"/>
        <pt x="1250" y="566" on="1"/>
        <pt x="1307" y="698" on="0"/>
      </contour>
    </TTGlyph>
    <TTGlyph name="atilde" xMin="85" yMin="-16" xMax="1124" yMax="1697">
      <component glyphName="a" x="0" y="0" flags="0x1204"/>
      <component glyphName="tilde" x="166" y="0" flags="0x1004"/>
    </TTGlyph>
    <TTGlyph name="b" xMin="159" yMin="-21" xMax="1296" yMax="1661">
      <contour>
        <pt x="522" y="1041" on="1"/>
        <pt x="649" y="1156" on="0"/>
        <pt x="844" y="1156" on="1"/>
        <pt x="1038" y="1156" on="0"/>
        <pt x="1161" y="1022" on="1"/>
        <pt x="1296" y="876" on="0"/>
        <pt x="1296" y="612" on="1"/>
        <pt x="1296" y="323" on="0"/>
        <pt x="1131" y="150" on="1"/>
        <pt x="967" y="-21" on="0"/>
        <pt x="692" y="-21" on="1"/>
        <pt x="475" y="-21" on="0"/>
        <pt x="256" y="32" on="1"/>
        <pt x="174" y="51" on="0"/>
        <pt x="159" y="64" on="1"/>
        <pt x="159" y="1661" on="1"/>
        <pt x="530" y="1661" on="1"/>
        <pt x="530" y="1250" on="1"/>
      </contour>
      <contour>
        <pt x="530" y="262" on="1"/>
        <pt x="560" y="228" on="0"/>
        <pt x="686" y="228" on="1"/>
        <pt x="784" y="228" on="0"/>
        <pt x="845" y="322" on="1"/>
        <pt x="909" y="420" on="0"/>
        <pt x="909" y="590" on="1"/>
        <pt x="909" y="824" on="0"/>
        <pt x="794" y="868" on="1"/>
        <pt x="759" y="881" on="0"/>
        <pt x="688" y="881" on="0"/>
        <pt x="632" y="870" on="0"/>
        <pt x="608" y="861" on="1"/>
        <pt x="559" y="843" on="0"/>
        <pt x="530" y="821" on="1"/>
      </contour>
    </TTGlyph>
    <TTGlyph name="backslash" xMin="0" yMin="-363" xMax="846" yMax="1599">
      <component glyphName="slash" x="854" y="0" scalex="-0.999938964844" scaley="1.0" flags="0x1004"/>
    </TTGlyph>
    <TTGlyph name="bar" xMin="287" yMin="-186" xMax="575" yMax="1780">
      <contour>
        <pt x="287" y="1780" on="1"/>
        <pt x="575" y="1780" on="1"/>
        <pt x="575" y="-186" on="1"/>
        <pt x="287" y="-186" on="1"/>
      </contour>
    </TTGlyph>
    <TTGlyph name="braceleft" xMin="69" yMin="-221" xMax="888" yMax="1761">
      <contour>
        <pt x="888" y="-186" on="1"/>
        <pt x="764" y="-221" on="0"/>
        <pt x="562" y="-221" on="1"/>
        <pt x="446" y="-221" on="0"/>
        <pt x="328" y="-88" on="0"/>
        <pt x="328" y="60" on="1"/>
        <pt x="328" y="529" on="1"/>
        <pt x="328" y="585" on="0"/>
        <pt x="236" y="630" on="1"/>
        <pt x="162" y="666" on="0"/>
        <pt x="69" y="676" on="1"/>
        <pt x="69" y="878" on="1"/>
        <pt x="228" y="895" on="0"/>
        <pt x="302" y="961" on="1"/>
        <pt x="328" y="985" on="0"/>
        <pt x="328" y="1017" on="1"/>
        <pt x="328" y="1486" on="1"/>
        <pt x="328" y="1698" on="0"/>
        <pt x="460" y="1746" on="1"/>
        <pt x="504" y="1761" on="0"/>
        <pt x="696" y="1761" on="0"/>
        <pt x="888" y="1737" on="1"/>
        <pt x="888" y="1550" on="1"/>
        <pt x="641" y="1550" on="1"/>
        <pt x="641" y="1009" on="1"/>
        <pt x="641" y="916" on="0"/>
        <pt x="564" y="862" on="1"/>
        <pt x="494" y="811" on="0"/>
        <pt x="388" y="776" on="1"/>
        <pt x="546" y="721" on="0"/>
        <pt x="641" y="615" on="0"/>
        <pt x="641" y="547" on="1"/>
        <pt x="641" y="-12" on="1"/>
        <pt x="888" y="-12" on="1"/>
      </contour>
    </TTGlyph>
    <TTGlyph name="braceright" xMin="103" yMin="-221" xMax="923" yMax="1761">
      <component glyphName="braceleft" x="992" y="0" scalex="-0.999938964844" scaley="1.0" flags="0x1004"/>
    </TTGlyph>
    <TTGlyph name="bracketleft" xMin="128" yMin="-215" xMax="700" yMax="1749">
      <contour>
        <pt x="700" y="-187" on="1"/>
        <pt x="476" y="-215" on="0"/>
        <pt x="272" y="-215" on="0"/>
        <pt x="195" y="-182" on="0"/>
        <pt x="172" y="-148" on="1"/>
        <pt x="128" y="-84" on="0"/>
        <pt x="128" y="68" on="1"/>
        <pt x="128" y="1486" on="1"/>
        <pt x="128" y="1635" on="0"/>
        <pt x="172" y="1692" on="1"/>
        <pt x="216" y="1749" on="0"/>
        <pt x="330" y="1749" on="1"/>
        <pt x="460" y="1749" on="0"/>
        <pt x="560" y="1739" on="1"/>
        <pt x="700" y="1725" on="1"/>
        <pt x="700" y="1543" on="1"/>
        <pt x="449" y="1543" on="1"/>
        <pt x="449" y="-12" on="1"/>
        <pt x="700" y="-13" on="1"/>
      </contour>
    </TTGlyph>
    <TTGlyph name="bracketright" xMin="106" yMin="-215" xMax="679" yMax="1749">
      <component glyphName="bracketleft" x="807" y="0" scalex="-0.999938964844" scaley="1.0" flags="0x1004"/>
    </TTGlyph>
    <TTGlyph name="breve" xMin="27" yMin="1286" xMax="799" yMax="1688">
      <contour>
        <pt x="412" y="1286" on="1"/>
        <pt x="319" y="1286" on="0"/>
        <pt x="246" y="1316" on="1"/>
        <pt x="102" y="1375" on="0"/>
        <pt x="52" y="1528" on="1"/>
        <pt x="28" y="1598" on="0"/>
        <pt x="28" y="1681" on="1"/>
        <pt x="28" y="1685" on="0"/>
        <pt x="28" y="1688" on="1"/>
        <pt x="255" y="1688" on="1"/>
        <pt x="262" y="1624" on="0"/>
        <pt x="281" y="1594" on="1"/>
        <pt x="322" y="1529" on="0"/>
        <pt x="414" y="1529" on="1"/>
        <pt x="503" y="1529" on="0"/>
        <pt x="542" y="1590" on="1"/>
        <pt x="563" y="1622" on="0"/>
        <pt x="574" y="1688" on="1"/>
        <pt x="798" y="1688" on="1"/>
        <pt x="798" y="1685" on="0"/>
        <pt x="798" y="1682" on="1"/>
        <pt x="798" y="1510" on="0"/>
        <pt x="698" y="1400" on="1"/>
        <pt x="593" y="1286" on="0"/>
      </contour>
    </TTGlyph>
    <TTGlyph name="breve.cap" xMin="27" yMin="1595" xMax="798" yMax="1964">
      <contour>
        <pt x="412" y="1595" on="1"/>
        <pt x="316" y="1595" on="0"/>
        <pt x="243" y="1622" on="1"/>
        <pt x="28" y="1700" on="0"/>
        <pt x="28" y="1957" on="1"/>
        <pt x="28" y="1961" on="0"/>
        <pt x="28" y="1964" on="1"/>
        <pt x="252" y="1964" on="1"/>
        <pt x="267" y="1825" on="0"/>
        <pt x="414" y="1825" on="1"/>
        <pt x="504" y="1825" on="0"/>
        <pt x="544" y="1877" on="1"/>
        <pt x="568" y="1908" on="0"/>
        <pt x="577" y="1964" on="1"/>
        <pt x="797" y="1964" on="1"/>
        <pt x="797" y="1961" on="0"/>
        <pt x="797" y="1958" on="1"/>
        <pt x="797" y="1794" on="0"/>
        <pt x="699" y="1696" on="1"/>
        <pt x="596" y="1595" on="0"/>
      </contour>
    </TTGlyph>
    <TTGlyph name="brokenbar" xMin="287" yMin="-186" xMax="575" yMax="1780">
      <contour>
        <pt x="287" y="1780" on="1"/>
        <pt x="575" y="1780" on="1"/>
        <pt x="575" y="973" on="1"/>
        <pt x="287" y="973" on="1"/>
      </contour>
      <contour>
        <pt x="287" y="605" on="1"/>
        <pt x="575" y="605" on="1"/>
        <pt x="575" y="-186" on="1"/>
        <pt x="287" y="-186" on="1"/>
      </contour>
    </TTGlyph>
    <TTGlyph name="bullet" xMin="161" yMin="440" xMax="750" yMax="1022">
      <contour>
        <pt x="446" y="440" on="1"/>
        <pt x="323" y="440" on="0"/>
        <pt x="241" y="520" on="1"/>
        <pt x="161" y="599" on="0"/>
        <pt x="161" y="721" on="1"/>
        <pt x="161" y="842" on="0"/>
        <pt x="345" y="1022" on="0"/>
        <pt x="468" y="1022" on="1"/>
        <pt x="591" y="1022" on="0"/>
        <pt x="672" y="943" on="1"/>
        <pt x="750" y="866" on="0"/>
        <pt x="750" y="742" on="1"/>
        <pt x="750" y="623" on="0"/>
        <pt x="660" y="531" on="1"/>
        <pt x="571" y="440" on="0"/>
      </contour>
    </TTGlyph>
    <TTGlyph name="c" xMin="85" yMin="-16" xMax="995" yMax="1156">
      <contour>
        <pt x="950" y="309" on="1"/>
        <pt x="995" y="100" on="1"/>
        <pt x="916" y="21" on="0"/>
        <pt x="746" y="-7" on="1"/>
        <pt x="692" y="-16" on="0"/>
        <pt x="637" y="-16" on="1"/>
        <pt x="365" y="-16" on="0"/>
        <pt x="220" y="148" on="1"/>
        <pt x="85" y="299" on="0"/>
        <pt x="85" y="559" on="1"/>
        <pt x="85" y="824" on="0"/>
        <pt x="225" y="982" on="1"/>
        <pt x="378" y="1156" on="0"/>
        <pt x="664" y="1156" on="1"/>
        <pt x="829" y="1156" on="0"/>
        <pt x="936" y="1119" on="1"/>
        <pt x="965" y="1109" on="0"/>
        <pt x="979" y="1099" on="1"/>
        <pt x="937" y="821" on="1"/>
        <pt x="855" y="868" on="0"/>
        <pt x="714" y="868" on="1"/>
        <pt x="549" y="868" on="0"/>
        <pt x="484" y="720" on="1"/>
        <pt x="460" y="663" on="0"/>
        <pt x="460" y="492" on="0"/>
        <pt x="498" y="376" on="0"/>
        <pt x="533" y="338" on="1"/>
        <pt x="599" y="268" on="0"/>
        <pt x="861" y="268" on="0"/>
      </contour>
    </TTGlyph>
    <TTGlyph name="cacute" xMin="85" yMin="-16" xMax="1058" yMax="1825">
      <component glyphName="acute" x="439" y="0" flags="0x1004"/>
      <component glyphName="c" x="0" y="0" flags="0x1004"/>
    </TTGlyph>
    <TTGlyph name="caron" xMin="31" yMin="1249" xMax="863" yMax="1732">
      <contour>
        <pt x="31" y="1619" on="1"/>
        <pt x="207" y="1732" on="1"/>
        <pt x="447" y="1505" on="1"/>
        <pt x="686" y="1732" on="1"/>
        <pt x="863" y="1618" on="1"/>
        <pt x="559" y="1249" on="1"/>
        <pt x="336" y="1249" on="1"/>
      </contour>
    </TTGlyph>
    <TTGlyph name="caron.cap" xMin="44" yMin="1558" xMax="842" yMax="1964">
      <contour>
        <pt x="44" y="1849" on="1"/>
        <pt x="220" y="1964" on="1"/>
        <pt x="443" y="1797" on="1"/>
        <pt x="667" y="1964" on="1"/>
        <pt x="842" y="1849" on="1"/>
        <pt x="560" y="1558" on="1"/>
        <pt x="326" y="1558" on="1"/>
      </contour>
    </TTGlyph>
    <TTGlyph name="caronvertical" xMin="63" yMin="986" xMax="413" yMax="1723">
      <contour>
        <pt x="328" y="1723" on="1"/>
        <pt x="413" y="1648" on="0"/>
        <pt x="413" y="1434" on="1"/>
        <pt x="413" y="1223" on="0"/>
        <pt x="314" y="1055" on="1"/>
        <pt x="288" y="1011" on="0"/>
        <pt x="264" y="986" on="1"/>
        <pt x="107" y="1027" on="1"/>
        <pt x="99" y="1062" on="1"/>
        <pt x="124" y="1167" on="0"/>
        <pt x="124" y="1325" on="1"/>
        <pt x="124" y="1336" on="0"/>
        <pt x="124" y="1347" on="1"/>
        <pt x="124" y="1502" on="0"/>
        <pt x="63" y="1567" on="1"/>
        <pt x="74" y="1634" on="1"/>
      </contour>
    </TTGlyph>
    <TTGlyph name="ccaron" xMin="85" yMin="-16" xMax="1040" yMax="1740">
      <component glyphName="caron" x="177" y="8" flags="0x1004"/>
      <component glyphName="c" x="0" y="0" flags="0x1004"/>
    </TTGlyph>
    <TTGlyph name="ccedilla" xMin="85" yMin="-464" xMax="995" yMax="1156">
      <contour>
        <pt x="354" y="-255" on="1"/>
        <pt x="377" y="-269" on="0"/>
        <pt x="477" y="-269" on="0"/>
        <pt x="510" y="-232" on="1"/>
        <pt x="545" y="-193" on="0"/>
        <pt x="545" y="-107" on="1"/>
        <pt x="545" y="-52" on="0"/>
        <pt x="528" y="-9" on="1"/>
        <pt x="309" y="22" on="0"/>
        <pt x="193" y="180" on="1"/>
        <pt x="85" y="327" on="0"/>
        <pt x="85" y="559" on="1"/>
        <pt x="85" y="824" on="0"/>
        <pt x="225" y="982" on="1"/>
        <pt x="378" y="1156" on="0"/>
        <pt x="664" y="1156" on="1"/>
        <pt x="829" y="1156" on="0"/>
        <pt x="936" y="1119" on="1"/>
        <pt x="965" y="1109" on="0"/>
        <pt x="979" y="1099" on="1"/>
        <pt x="937" y="821" on="1"/>
        <pt x="855" y="868" on="0"/>
        <pt x="714" y="868" on="1"/>
        <pt x="549" y="868" on="0"/>
        <pt x="484" y="720" on="1"/>
        <pt x="460" y="663" on="0"/>
        <pt x="460" y="492" on="0"/>
        <pt x="498" y="376" on="0"/>
        <pt x="533" y="338" on="1"/>
        <pt x="599" y="268" on="0"/>
        <pt x="861" y="268" on="0"/>
        <pt x="950" y="309" on="1"/>
        <pt x="995" y="100" on="1"/>
        <pt x="914" y="19" on="0"/>
        <pt x="748" y="-6" on="1"/>
        <pt x="787" y="-86" on="0"/>
        <pt x="787" y="-206" on="1"/>
        <pt x="787" y="-337" on="0"/>
        <pt x="708" y="-404" on="1"/>
        <pt x="638" y="-464" on="0"/>
        <pt x="522" y="-464" on="1"/>
        <pt x="440" y="-464" on="0"/>
        <pt x="341" y="-442" on="0"/>
        <pt x="331" y="-436" on="1"/>
      </contour>
    </TTGlyph>
    <TTGlyph name="ccircumflex" xMin="85" yMin="-16" xMax="1044" yMax="1733">
      <component glyphName="circumflex" x="181" y="0" flags="0x1004"/>
      <component glyphName="c" x="0" y="0" flags="0x1004"/>
    </TTGlyph>
    <TTGlyph name="cdotaccent" xMin="85" yMin="-16" xMax="995" yMax="1677">
      <component glyphName="c" x="0" y="0" flags="0x1204"/>
      <component glyphName="dotaccent" x="353" y="0" flags="0x1004"/>
    </TTGlyph>
    <TTGlyph name="cedilla" xMin="29" yMin="-464" xMax="485" yMax="34">
      <contour>
        <pt x="206" y="30" on="1"/>
        <pt x="367" y="34" on="1"/>
        <pt x="419" y="30" on="1"/>
        <pt x="485" y="-28" on="0"/>
        <pt x="485" y="-216" on="1"/>
        <pt x="483" y="-339" on="0"/>
        <pt x="406" y="-404" on="1"/>
        <pt x="336" y="-464" on="0"/>
        <pt x="220" y="-464" on="1"/>
        <pt x="138" y="-464" on="0"/>
        <pt x="39" y="-442" on="0"/>
        <pt x="29" y="-436" on="1"/>
        <pt x="52" y="-255" on="1"/>
        <pt x="75" y="-269" on="0"/>
        <pt x="175" y="-269" on="0"/>
        <pt x="208" y="-232" on="1"/>
        <pt x="243" y="-193" on="0"/>
        <pt x="243" y="-29" on="0"/>
      </contour>
    </TTGlyph>
    <TTGlyph name="cent" xMin="136" yMin="-216" xMax="1046" yMax="1377">
      <contour>
        <pt x="1001" y="309" on="1"/>
        <pt x="1046" y="100" on="1"/>
        <pt x="950" y="4" on="0"/>
        <pt x="741" y="-13" on="1"/>
        <pt x="737" y="-216" on="1"/>
        <pt x="551" y="-216" on="1"/>
        <pt x="556" y="-5" on="1"/>
        <pt x="349" y="32" on="0"/>
        <pt x="239" y="188" on="1"/>
        <pt x="136" y="335" on="0"/>
        <pt x="136" y="559" on="1"/>
        <pt x="136" y="919" on="0"/>
        <pt x="384" y="1072" on="1"/>
        <pt x="468" y="1125" on="0"/>
        <pt x="583" y="1145" on="1"/>
        <pt x="589" y="1377" on="1"/>
        <pt x="774" y="1377" on="1"/>
        <pt x="769" y="1154" on="1"/>
        <pt x="968" y="1146" on="0"/>
        <pt x="1030" y="1099" on="1"/>
        <pt x="988" y="821" on="1"/>
        <pt x="906" y="868" on="0"/>
        <pt x="765" y="868" on="1"/>
        <pt x="600" y="868" on="0"/>
        <pt x="536" y="720" on="1"/>
        <pt x="511" y="663" on="0"/>
        <pt x="511" y="492" on="0"/>
        <pt x="549" y="376" on="0"/>
        <pt x="584" y="338" on="1"/>
        <pt x="650" y="268" on="0"/>
        <pt x="912" y="268" on="0"/>
      </contour>
    </TTGlyph>
    <TTGlyph name="circumflex" xMin="31" yMin="1249" xMax="863" yMax="1733">
      <contour>
        <pt x="31" y="1363" on="1"/>
        <pt x="336" y="1733" on="1"/>
        <pt x="559" y="1733" on="1"/>
        <pt x="863" y="1363" on="1"/>
        <pt x="686" y="1249" on="1"/>
        <pt x="447" y="1476" on="1"/>
        <pt x="207" y="1249" on="1"/>
      </contour>
    </TTGlyph>
    <TTGlyph name="circumflex.cap" xMin="44" yMin="1542" xMax="847" yMax="1964">
      <contour>
        <pt x="44" y="1656" on="1"/>
        <pt x="328" y="1964" on="1"/>
        <pt x="562" y="1964" on="1"/>
        <pt x="847" y="1658" on="1"/>
        <pt x="669" y="1542" on="1"/>
        <pt x="445" y="1735" on="1"/>
        <pt x="222" y="1542" on="1"/>
      </contour>
    </TTGlyph>
    <TTGlyph name="colon" xMin="120" yMin="-22" xMax="548" yMax="1152">
      <component glyphName="period" x="0" y="0" flags="0x1204"/>
      <component glyphName="period" x="0" y="736" flags="0x1004"/>
    </TTGlyph>
    <TTGlyph name="comma" xMin="151" yMin="-512" xMax="581" yMax="318">
      <contour>
        <pt x="151" y="182" on="1"/>
        <pt x="414" y="318" on="1"/>
        <pt x="493" y="288" on="0"/>
        <pt x="540" y="182" on="1"/>
        <pt x="581" y="90" on="0"/>
        <pt x="581" y="-96" on="0"/>
        <pt x="538" y="-257" on="0"/>
        <pt x="500" y="-324" on="1"/>
        <pt x="421" y="-468" on="0"/>
        <pt x="306" y="-512" on="1"/>
        <pt x="174" y="-408" on="1"/>
        <pt x="174" y="-382" on="1"/>
        <pt x="227" y="-343" on="0"/>
        <pt x="248" y="-213" on="1"/>
        <pt x="255" y="-170" on="0"/>
        <pt x="255" y="-87" on="0"/>
        <pt x="235" y="-20" on="0"/>
        <pt x="220" y="8" on="1"/>
        <pt x="187" y="69" on="0"/>
        <pt x="151" y="75" on="1"/>
      </contour>
    </TTGlyph>
    <TTGlyph name="commaaccent" xMin="37" yMin="-560" xMax="364" yMax="-84">
      <contour>
        <pt x="67" y="-488" on="1"/>
        <pt x="90" y="-446" on="0"/>
        <pt x="90" y="-330" on="0"/>
        <pt x="80" y="-291" on="0"/>
        <pt x="72" y="-274" on="1"/>
        <pt x="57" y="-240" on="0"/>
        <pt x="37" y="-229" on="1"/>
        <pt x="37" y="-179" on="1"/>
        <pt x="265" y="-84" on="1"/>
        <pt x="323" y="-102" on="0"/>
        <pt x="354" y="-199" on="1"/>
        <pt x="364" y="-232" on="0"/>
        <pt x="364" y="-332" on="0"/>
        <pt x="333" y="-432" on="0"/>
        <pt x="312" y="-470" on="1"/>
        <pt x="273" y="-540" on="0"/>
        <pt x="232" y="-560" on="1"/>
        <pt x="67" y="-515" on="1"/>
      </contour>
    </TTGlyph>
    <TTGlyph name="copyright" xMin="175" yMin="84" xMax="1916" yMax="1838">
      <contour>
        <pt x="175" y="962" on="1"/>
        <pt x="175" y="1084" on="0"/>
        <pt x="236" y="1309" on="0"/>
        <pt x="349" y="1503" on="0"/>
        <pt x="507" y="1662" on="0"/>
        <pt x="604" y="1719" on="1"/>
        <pt x="805" y="1838" on="0"/>
        <pt x="1045" y="1838" on="1"/>
        <pt x="1284" y="1838" on="0"/>
        <pt x="1487" y="1719" on="1"/>
        <pt x="1790" y="1541" on="0"/>
        <pt x="1885" y="1196" on="1"/>
        <pt x="1916" y="1084" on="0"/>
        <pt x="1916" y="841" on="0"/>
        <pt x="1854" y="616" on="0"/>
        <pt x="1742" y="421" on="0"/>
        <pt x="1584" y="261" on="0"/>
        <pt x="1487" y="204" on="1"/>
        <pt x="1283" y="84" on="0"/>
        <pt x="1045" y="84" on="1"/>
        <pt x="807" y="84" on="0"/>
        <pt x="604" y="204" on="1"/>
        <pt x="408" y="320" on="0"/>
        <pt x="292" y="518" on="1"/>
        <pt x="175" y="721" on="0"/>
      </contour>
      <contour>
        <pt x="317" y="962" on="1"/>
        <pt x="317" y="859" on="0"/>
        <pt x="367" y="668" on="0"/>
        <pt x="459" y="501" on="0"/>
        <pt x="589" y="364" on="0"/>
        <pt x="670" y="316" on="1"/>
        <pt x="841" y="213" on="0"/>
        <pt x="1045" y="213" on="1"/>
        <pt x="1249" y="213" on="0"/>
        <pt x="1420" y="316" on="1"/>
        <pt x="1582" y="413" on="0"/>
        <pt x="1677" y="584" on="1"/>
        <pt x="1773" y="759" on="0"/>
        <pt x="1773" y="963" on="1"/>
        <pt x="1773" y="1274" on="0"/>
        <pt x="1566" y="1492" on="1"/>
        <pt x="1435" y="1631" on="0"/>
        <pt x="1244" y="1685" on="1"/>
        <pt x="1150" y="1712" on="0"/>
        <pt x="1045" y="1712" on="1"/>
        <pt x="841" y="1712" on="0"/>
        <pt x="670" y="1610" on="1"/>
        <pt x="508" y="1513" on="0"/>
        <pt x="413" y="1341" on="1"/>
        <pt x="317" y="1168" on="0"/>
      </contour>
      <contour>
        <pt x="1324" y="747" on="1"/>
        <pt x="1368" y="574" on="1"/>
        <pt x="1288" y="505" on="0"/>
        <pt x="1148" y="480" on="1"/>
        <pt x="1100" y="471" on="0"/>
        <pt x="947" y="471" on="0"/>
        <pt x="781" y="549" on="0"/>
        <pt x="722" y="616" on="1"/>
        <pt x="599" y="754" on="0"/>
        <pt x="599" y="954" on="1"/>
        <pt x="599" y="957" on="0"/>
        <pt x="599" y="961" on="1"/>
        <pt x="599" y="1178" on="0"/>
        <pt x="724" y="1311" on="1"/>
        <pt x="858" y="1455" on="0"/>
        <pt x="1094" y="1455" on="1"/>
        <pt x="1207" y="1455" on="0"/>
        <pt x="1307" y="1418" on="1"/>
        <pt x="1333" y="1409" on="0"/>
        <pt x="1348" y="1400" on="1"/>
        <pt x="1311" y="1195" on="1"/>
        <pt x="1231" y="1250" on="0"/>
        <pt x="1098" y="1250" on="1"/>
        <pt x="989" y="1250" on="0"/>
        <pt x="920" y="1179" on="1"/>
        <pt x="850" y="1107" on="0"/>
        <pt x="850" y="992" on="1"/>
        <pt x="850" y="988" on="0"/>
        <pt x="850" y="906" on="0"/>
        <pt x="886" y="792" on="0"/>
        <pt x="920" y="755" on="1"/>
        <pt x="984" y="684" on="0"/>
        <pt x="1237" y="684" on="0"/>
      </contour>
    </TTGlyph>
    <TTGlyph name="currency" xMin="213" yMin="160" xMax="1371" yMax="1396">
      <contour>
        <pt x="1000" y="367" on="1"/>
        <pt x="894" y="312" on="0"/>
        <pt x="662" y="312" on="0"/>
        <pt x="563" y="367" on="1"/>
        <pt x="363" y="162" on="1"/>
        <pt x="213" y="319" on="1"/>
        <pt x="403" y="513" on="1"/>
        <pt x="325" y="629" on="0"/>
        <pt x="325" y="913" on="0"/>
        <pt x="402" y="1031" on="1"/>
        <pt x="215" y="1225" on="1"/>
        <pt x="363" y="1385" on="1"/>
        <pt x="562" y="1178" on="1"/>
        <pt x="665" y="1235" on="0"/>
        <pt x="781" y="1235" on="1"/>
        <pt x="898" y="1235" on="0"/>
        <pt x="1004" y="1177" on="1"/>
        <pt x="1221" y="1396" on="1"/>
        <pt x="1371" y="1235" on="1"/>
        <pt x="1164" y="1026" on="1"/>
        <pt x="1239" y="910" on="0"/>
        <pt x="1239" y="630" on="0"/>
        <pt x="1161" y="514" on="1"/>
        <pt x="1351" y="318" on="1"/>
        <pt x="1203" y="160" on="1"/>
      </contour>
      <contour>
        <pt x="579" y="773" on="1"/>
        <pt x="579" y="688" on="0"/>
        <pt x="638" y="628" on="1"/>
        <pt x="697" y="566" on="0"/>
        <pt x="783" y="566" on="1"/>
        <pt x="869" y="566" on="0"/>
        <pt x="927" y="628" on="1"/>
        <pt x="984" y="688" on="0"/>
        <pt x="984" y="773" on="1"/>
        <pt x="984" y="859" on="0"/>
        <pt x="927" y="918" on="1"/>
        <pt x="868" y="979" on="0"/>
        <pt x="783" y="979" on="1"/>
        <pt x="697" y="979" on="0"/>
        <pt x="638" y="918" on="1"/>
        <pt x="579" y="858" on="0"/>
      </contour>
    </TTGlyph>
    <TTGlyph name="d" xMin="85" yMin="-16" xMax="1221" yMax="1662">
      <contour>
        <pt x="882" y="118" on="1"/>
        <pt x="748" y="-16" on="0"/>
        <pt x="537" y="-16" on="1"/>
        <pt x="343" y="-16" on="0"/>
        <pt x="220" y="119" on="1"/>
        <pt x="85" y="267" on="0"/>
        <pt x="85" y="531" on="1"/>
        <pt x="85" y="819" on="0"/>
        <pt x="244" y="988" on="1"/>
        <pt x="403" y="1156" on="0"/>
        <pt x="666" y="1156" on="1"/>
        <pt x="770" y="1156" on="0"/>
        <pt x="854" y="1128" on="1"/>
        <pt x="851" y="1250" on="1"/>
        <pt x="851" y="1662" on="1"/>
        <pt x="1221" y="1662" on="1"/>
        <pt x="1221" y="-16" on="1"/>
        <pt x="937" y="-16" on="1"/>
        <pt x="882" y="-16" on="0"/>
        <pt x="882" y="38" on="1"/>
      </contour>
      <contour>
        <pt x="851" y="868" on="1"/>
        <pt x="808" y="900" on="0"/>
        <pt x="646" y="900" on="0"/>
        <pt x="565" y="856" on="0"/>
        <pt x="536" y="812" on="1"/>
        <pt x="473" y="720" on="0"/>
        <pt x="473" y="549" on="1"/>
        <pt x="473" y="323" on="0"/>
        <pt x="584" y="276" on="1"/>
        <pt x="620" y="261" on="0"/>
        <pt x="664" y="261" on="1"/>
        <pt x="773" y="261" on="0"/>
        <pt x="851" y="313" on="1"/>
      </contour>
    </TTGlyph>
    <TTGlyph name="dagger" xMin="92" yMin="200" xMax="942" yMax="1658">
      <contour>
        <pt x="370" y="1041" on="1"/>
        <pt x="92" y="1041" on="1"/>
        <pt x="93" y="1288" on="1"/>
        <pt x="370" y="1287" on="1"/>
        <pt x="371" y="1658" on="1"/>
        <pt x="663" y="1658" on="1"/>
        <pt x="663" y="1287" on="1"/>
        <pt x="942" y="1288" on="1"/>
        <pt x="942" y="1041" on="1"/>
        <pt x="663" y="1041" on="1"/>
        <pt x="649" y="200" on="1"/>
        <pt x="387" y="200" on="1"/>
      </contour>
    </TTGlyph>
    <TTGlyph name="daggerdbl" xMin="92" yMin="-356" xMax="947" yMax="1658">
      <contour>
        <pt x="92" y="639" on="1"/>
        <pt x="370" y="640" on="1"/>
        <pt x="370" y="1041" on="1"/>
        <pt x="92" y="1041" on="1"/>
        <pt x="93" y="1288" on="1"/>
        <pt x="370" y="1288" on="1"/>
        <pt x="371" y="1658" on="1"/>
        <pt x="664" y="1658" on="1"/>
        <pt x="662" y="1288" on="1"/>
        <pt x="947" y="1288" on="1"/>
        <pt x="947" y="1041" on="1"/>
        <pt x="662" y="1041" on="1"/>
        <pt x="662" y="640" on="1"/>
        <pt x="946" y="639" on="1"/>
        <pt x="946" y="392" on="1"/>
        <pt x="662" y="392" on="1"/>
        <pt x="641" y="-356" on="1"/>
        <pt x="388" y="-356" on="1"/>
        <pt x="370" y="392" on="1"/>
        <pt x="92" y="392" on="1"/>
      </contour>
    </TTGlyph>
    <TTGlyph name="dcaron" xMin="85" yMin="-16" xMax="1746" yMax="1723">
      <component glyphName="d" x="0" y="0" flags="0x1004"/>
      <component glyphName="caronvertical" x="1333" y="0" flags="0x1004"/>
    </TTGlyph>
    <TTGlyph name="dcroat" xMin="85" yMin="-16" xMax="1349" yMax="1662">
      <contour>
        <pt x="882" y="118" on="1"/>
        <pt x="748" y="-16" on="0"/>
        <pt x="537" y="-16" on="1"/>
        <pt x="343" y="-16" on="0"/>
        <pt x="220" y="119" on="1"/>
        <pt x="85" y="267" on="0"/>
        <pt x="85" y="531" on="1"/>
        <pt x="85" y="819" on="0"/>
        <pt x="244" y="988" on="1"/>
        <pt x="403" y="1156" on="0"/>
        <pt x="666" y="1156" on="1"/>
        <pt x="770" y="1156" on="0"/>
        <pt x="854" y="1128" on="1"/>
        <pt x="851" y="1250" on="1"/>
        <pt x="851" y="1292" on="1"/>
        <pt x="634" y="1292" on="1"/>
        <pt x="634" y="1492" on="1"/>
        <pt x="851" y="1492" on="1"/>
        <pt x="851" y="1662" on="1"/>
        <pt x="1221" y="1662" on="1"/>
        <pt x="1221" y="1492" on="1"/>
        <pt x="1349" y="1492" on="1"/>
        <pt x="1349" y="1292" on="1"/>
        <pt x="1221" y="1292" on="1"/>
        <pt x="1221" y="-16" on="1"/>
        <pt x="937" y="-16" on="1"/>
        <pt x="882" y="-16" on="0"/>
        <pt x="882" y="38" on="1"/>
      </contour>
      <contour>
        <pt x="851" y="868" on="1"/>
        <pt x="808" y="900" on="0"/>
        <pt x="646" y="900" on="0"/>
        <pt x="565" y="856" on="0"/>
        <pt x="536" y="812" on="1"/>
        <pt x="473" y="720" on="0"/>
        <pt x="473" y="549" on="1"/>
        <pt x="473" y="323" on="0"/>
        <pt x="584" y="276" on="1"/>
        <pt x="620" y="261" on="0"/>
        <pt x="664" y="261" on="1"/>
        <pt x="773" y="261" on="0"/>
        <pt x="851" y="313" on="1"/>
      </contour>
    </TTGlyph>
    <TTGlyph name="degree" xMin="112" yMin="908" xMax="865" yMax="1647">
      <contour>
        <pt x="490" y="908" on="1"/>
        <pt x="408" y="908" on="0"/>
        <pt x="271" y="965" on="0"/>
        <pt x="220" y="1015" on="1"/>
        <pt x="112" y="1122" on="0"/>
        <pt x="112" y="1278" on="1"/>
        <pt x="112" y="1436" on="0"/>
        <pt x="219" y="1542" on="1"/>
        <pt x="326" y="1647" on="0"/>
        <pt x="488" y="1647" on="1"/>
        <pt x="651" y="1647" on="0"/>
        <pt x="865" y="1433" on="0"/>
        <pt x="865" y="1278" on="1"/>
        <pt x="865" y="1118" on="0"/>
        <pt x="759" y="1014" on="1"/>
        <pt x="652" y="908" on="0"/>
      </contour>
      <contour>
        <pt x="396" y="1132" on="0"/>
        <pt x="455" y="1107" on="0"/>
        <pt x="522" y="1107" on="0"/>
        <pt x="582" y="1131" on="0"/>
        <pt x="604" y="1154" on="1"/>
        <pt x="653" y="1202" on="0"/>
        <pt x="653" y="1278" on="1"/>
        <pt x="653" y="1352" on="0"/>
        <pt x="604" y="1402" on="1"/>
        <pt x="557" y="1448" on="0"/>
        <pt x="488" y="1448" on="1"/>
        <pt x="378" y="1448" on="0"/>
        <pt x="337" y="1348" on="1"/>
        <pt x="324" y="1317" on="0"/>
        <pt x="324" y="1240" on="0"/>
        <pt x="351" y="1177" on="0"/>
      </contour>
    </TTGlyph>
    <TTGlyph name="dieresis" xMin="62" yMin="1281" xMax="972" yMax="1675">
      <contour>
        <pt x="770" y="1281" on="1"/>
        <pt x="727" y="1281" on="0"/>
        <pt x="657" y="1309" on="0"/>
        <pt x="632" y="1334" on="1"/>
        <pt x="580" y="1388" on="0"/>
        <pt x="580" y="1471" on="1"/>
        <pt x="580" y="1556" on="0"/>
        <pt x="640" y="1614" on="1"/>
        <pt x="702" y="1675" on="0"/>
        <pt x="786" y="1675" on="1"/>
        <pt x="871" y="1675" on="0"/>
        <pt x="922" y="1622" on="1"/>
        <pt x="972" y="1571" on="0"/>
        <pt x="972" y="1486" on="1"/>
        <pt x="972" y="1402" on="0"/>
        <pt x="914" y="1342" on="1"/>
        <pt x="854" y="1281" on="0"/>
      </contour>
      <contour>
        <pt x="252" y="1281" on="1"/>
        <pt x="209" y="1281" on="0"/>
        <pt x="139" y="1309" on="0"/>
        <pt x="114" y="1334" on="1"/>
        <pt x="62" y="1388" on="0"/>
        <pt x="62" y="1471" on="1"/>
        <pt x="62" y="1555" on="0"/>
        <pt x="123" y="1614" on="1"/>
        <pt x="185" y="1675" on="0"/>
        <pt x="268" y="1675" on="1"/>
        <pt x="400" y="1675" on="0"/>
        <pt x="442" y="1563" on="1"/>
        <pt x="455" y="1528" on="0"/>
        <pt x="455" y="1486" on="1"/>
        <pt x="455" y="1402" on="0"/>
        <pt x="396" y="1342" on="1"/>
        <pt x="337" y="1281" on="0"/>
      </contour>
    </TTGlyph>
    <TTGlyph name="dieresis.cap" xMin="53" yMin="1582" xMax="990" yMax="1964">
      <contour>
        <pt x="785" y="1582" on="1"/>
        <pt x="700" y="1582" on="0"/>
        <pt x="594" y="1684" on="0"/>
        <pt x="594" y="1766" on="1"/>
        <pt x="594" y="1847" on="0"/>
        <pt x="655" y="1906" on="1"/>
        <pt x="715" y="1964" on="0"/>
        <pt x="890" y="1964" on="0"/>
        <pt x="990" y="1864" on="0"/>
        <pt x="990" y="1781" on="1"/>
        <pt x="990" y="1697" on="0"/>
        <pt x="931" y="1640" on="1"/>
        <pt x="871" y="1582" on="0"/>
      </contour>
      <contour>
        <pt x="244" y="1582" on="1"/>
        <pt x="159" y="1582" on="0"/>
        <pt x="53" y="1684" on="0"/>
        <pt x="53" y="1766" on="1"/>
        <pt x="53" y="1847" on="0"/>
        <pt x="114" y="1906" on="1"/>
        <pt x="174" y="1964" on="0"/>
        <pt x="348" y="1964" on="0"/>
        <pt x="449" y="1864" on="0"/>
        <pt x="449" y="1781" on="1"/>
        <pt x="449" y="1697" on="0"/>
        <pt x="390" y="1640" on="1"/>
        <pt x="330" y="1582" on="0"/>
      </contour>
    </TTGlyph>
    <TTGlyph name="divide" xMin="190" yMin="97" xMax="1226" yMax="1461">
      <contour>
        <pt x="726" y="1029" on="1"/>
        <pt x="679" y="1029" on="0"/>
        <pt x="603" y="1061" on="0"/>
        <pt x="576" y="1088" on="1"/>
        <pt x="519" y="1147" on="0"/>
        <pt x="519" y="1237" on="1"/>
        <pt x="519" y="1328" on="0"/>
        <pt x="584" y="1394" on="1"/>
        <pt x="652" y="1461" on="0"/>
        <pt x="744" y="1461" on="1"/>
        <pt x="837" y="1461" on="0"/>
        <pt x="892" y="1402" on="1"/>
        <pt x="947" y="1344" on="0"/>
        <pt x="947" y="1254" on="1"/>
        <pt x="947" y="1162" on="0"/>
        <pt x="883" y="1096" on="1"/>
        <pt x="817" y="1029" on="0"/>
      </contour>
      <contour>
        <pt x="190" y="908" on="1"/>
        <pt x="1226" y="908" on="1"/>
        <pt x="1226" y="639" on="1"/>
        <pt x="190" y="639" on="1"/>
      </contour>
      <contour>
        <pt x="517" y="305" on="1"/>
        <pt x="517" y="394" on="0"/>
        <pt x="582" y="461" on="1"/>
        <pt x="648" y="528" on="0"/>
        <pt x="742" y="528" on="1"/>
        <pt x="884" y="528" on="0"/>
        <pt x="930" y="404" on="1"/>
        <pt x="944" y="366" on="0"/>
        <pt x="944" y="321" on="1"/>
        <pt x="944" y="230" on="0"/>
        <pt x="880" y="164" on="1"/>
        <pt x="815" y="97" on="0"/>
        <pt x="722" y="97" on="1"/>
        <pt x="632" y="97" on="0"/>
        <pt x="574" y="156" on="1"/>
        <pt x="517" y="215" on="0"/>
      </contour>
    </TTGlyph>
    <TTGlyph name="dollar" xMin="205" yMin="-225" xMax="1252" yMax="1763">
      <contour>
        <pt x="263" y="374" on="1"/>
        <pt x="371" y="312" on="0"/>
        <pt x="545" y="286" on="1"/>
        <pt x="605" y="277" on="0"/>
        <pt x="690" y="277" on="1"/>
        <pt x="871" y="277" on="0"/>
        <pt x="871" y="406" on="1"/>
        <pt x="871" y="473" on="0"/>
        <pt x="802" y="524" on="1"/>
        <pt x="761" y="553" on="0"/>
        <pt x="489" y="683" on="0"/>
        <pt x="359" y="771" on="0"/>
        <pt x="310" y="828" on="1"/>
        <pt x="205" y="952" on="0"/>
        <pt x="205" y="1121" on="1"/>
        <pt x="205" y="1383" on="0"/>
        <pt x="448" y="1485" on="1"/>
        <pt x="525" y="1517" on="0"/>
        <pt x="619" y="1529" on="1"/>
        <pt x="628" y="1763" on="1"/>
        <pt x="832" y="1763" on="1"/>
        <pt x="823" y="1536" on="1"/>
        <pt x="1047" y="1523" on="0"/>
        <pt x="1177" y="1451" on="1"/>
        <pt x="1118" y="1165" on="1"/>
        <pt x="1039" y="1227" on="0"/>
        <pt x="881" y="1254" on="1"/>
        <pt x="831" y="1262" on="0"/>
        <pt x="672" y="1262" on="0"/>
        <pt x="571" y="1192" on="0"/>
        <pt x="571" y="1099" on="0"/>
        <pt x="601" y="1044" on="0"/>
        <pt x="634" y="1018" on="1"/>
        <pt x="690" y="973" on="0"/>
        <pt x="932" y="864" on="0"/>
        <pt x="1087" y="772" on="0"/>
        <pt x="1141" y="717" on="1"/>
        <pt x="1252" y="604" on="0"/>
        <pt x="1252" y="435" on="1"/>
        <pt x="1252" y="241" on="0"/>
        <pt x="1128" y="124" on="1"/>
        <pt x="999" y="3" on="0"/>
        <pt x="769" y="-13" on="1"/>
        <pt x="762" y="-225" on="1"/>
        <pt x="557" y="-225" on="1"/>
        <pt x="565" y="-9" on="1"/>
        <pt x="319" y="15" on="0"/>
        <pt x="216" y="78" on="1"/>
      </contour>
    </TTGlyph>
    <TTGlyph name="dotaccent" xMin="53" yMin="1279" xMax="480" yMax="1677">
      <contour>
        <pt x="259" y="1279" on="1"/>
        <pt x="169" y="1279" on="0"/>
        <pt x="112" y="1332" on="1"/>
        <pt x="53" y="1387" on="0"/>
        <pt x="53" y="1471" on="1"/>
        <pt x="53" y="1555" on="0"/>
        <pt x="186" y="1677" on="0"/>
        <pt x="276" y="1677" on="1"/>
        <pt x="366" y="1677" on="0"/>
        <pt x="423" y="1624" on="1"/>
        <pt x="480" y="1571" on="0"/>
        <pt x="480" y="1486" on="1"/>
        <pt x="480" y="1402" on="0"/>
        <pt x="415" y="1340" on="1"/>
        <pt x="350" y="1279" on="0"/>
      </contour>
    </TTGlyph>
    <TTGlyph name="dotaccent.cap" xMin="66" yMin="1596" xMax="467" yMax="1963">
      <contour>
        <pt x="169" y="1596" on="0"/>
        <pt x="66" y="1688" on="0"/>
        <pt x="66" y="1773" on="1"/>
        <pt x="66" y="1856" on="0"/>
        <pt x="126" y="1910" on="1"/>
        <pt x="185" y="1963" on="0"/>
        <pt x="367" y="1963" on="0"/>
        <pt x="467" y="1873" on="0"/>
        <pt x="467" y="1787" on="1"/>
        <pt x="467" y="1704" on="0"/>
        <pt x="408" y="1650" on="1"/>
        <pt x="351" y="1596" on="0"/>
      </contour>
    </TTGlyph>
    <TTGlyph name="dotlessi" xMin="159" yMin="0" xMax="531" yMax="1140">
      <contour>
        <pt x="159" y="1140" on="1"/>
        <pt x="531" y="1140" on="1"/>
        <pt x="531" y="0" on="1"/>
        <pt x="159" y="0" on="1"/>
      </contour>
    </TTGlyph>
    <TTGlyph name="dotlessj" xMin="-104" yMin="-507" xMax="531" yMax="1140">
      <contour>
        <pt x="275" y="-478" on="1"/>
        <pt x="194" y="-507" on="0"/>
        <pt x="-26" y="-507" on="0"/>
        <pt x="-104" y="-481" on="1"/>
        <pt x="-104" y="-247" on="1"/>
        <pt x="-71" y="-269" on="0"/>
        <pt x="53" y="-269" on="0"/>
        <pt x="109" y="-243" on="0"/>
        <pt x="126" y="-212" on="1"/>
        <pt x="159" y="-150" on="0"/>
        <pt x="159" y="2" on="1"/>
        <pt x="159" y="1140" on="1"/>
        <pt x="531" y="1140" on="1"/>
        <pt x="531" y="82" on="1"/>
        <pt x="531" y="-384" on="0"/>
      </contour>
    </TTGlyph>
    <TTGlyph name="e" xMin="85" yMin="-16" xMax="1136" yMax="1156">
      <contour>
        <pt x="455" y="483" on="1"/>
        <pt x="477" y="246" on="0"/>
        <pt x="740" y="246" on="1"/>
        <pt x="871" y="246" on="0"/>
        <pt x="990" y="282" on="1"/>
        <pt x="1025" y="293" on="0"/>
        <pt x="1046" y="304" on="1"/>
        <pt x="1103" y="107" on="1"/>
        <pt x="1004" y="26" on="0"/>
        <pt x="798" y="-6" on="1"/>
        <pt x="729" y="-16" on="0"/>
        <pt x="515" y="-16" on="0"/>
        <pt x="303" y="65" on="0"/>
        <pt x="231" y="141" on="1"/>
        <pt x="85" y="295" on="0"/>
        <pt x="85" y="575" on="1"/>
        <pt x="85" y="830" on="0"/>
        <pt x="235" y="990" on="1"/>
        <pt x="390" y="1156" on="0"/>
        <pt x="657" y="1156" on="1"/>
        <pt x="986" y="1156" on="0"/>
        <pt x="1094" y="920" on="1"/>
        <pt x="1135" y="830" on="0"/>
        <pt x="1136" y="572" on="0"/>
        <pt x="1124" y="483" on="1"/>
      </contour>
      <contour>
        <pt x="793" y="668" on="1"/>
        <pt x="794" y="690" on="0"/>
        <pt x="794" y="710" on="1"/>
        <pt x="794" y="804" on="0"/>
        <pt x="734" y="917" on="0"/>
        <pt x="649" y="917" on="1"/>
        <pt x="525" y="917" on="0"/>
        <pt x="481" y="786" on="1"/>
        <pt x="465" y="739" on="0"/>
        <pt x="458" y="668" on="1"/>
      </contour>
    </TTGlyph>
    <TTGlyph name="eacute" xMin="85" yMin="-16" xMax="1136" yMax="1825">
      <component glyphName="acute" x="464" y="0" flags="0x1004"/>
      <component glyphName="e" x="0" y="0" flags="0x1004"/>
    </TTGlyph>
    <TTGlyph name="ebreve" xMin="85" yMin="-16" xMax="1136" yMax="1688">
      <component glyphName="e" x="0" y="0" flags="0x1204"/>
      <component glyphName="breve" x="240" y="0" flags="0x1004"/>
    </TTGlyph>
    <TTGlyph name="ecaron" xMin="85" yMin="-16" xMax="1136" yMax="1740">
      <component glyphName="caron" x="202" y="8" flags="0x1004"/>
      <component glyphName="e" x="0" y="0" flags="0x1004"/>
    </TTGlyph>
    <TTGlyph name="ecircumflex" xMin="85" yMin="-16" xMax="1136" yMax="1733">
      <component glyphName="circumflex" x="207" y="0" flags="0x1004"/>
      <component glyphName="e" x="0" y="0" flags="0x1004"/>
    </TTGlyph>
    <TTGlyph name="edieresis" xMin="85" yMin="-16" xMax="1136" yMax="1675">
      <component glyphName="dieresis" x="135" y="0" flags="0x1004"/>
      <component glyphName="e" x="0" y="0" flags="0x1004"/>
    </TTGlyph>
    <TTGlyph name="edotaccent" xMin="85" yMin="-16" xMax="1136" yMax="1677">
      <component glyphName="e" x="0" y="0" flags="0x1204"/>
      <component glyphName="dotaccent" x="379" y="0" flags="0x1004"/>
    </TTGlyph>
    <TTGlyph name="egrave" xMin="85" yMin="-16" xMax="1136" yMax="1825">
      <component glyphName="e" x="0" y="0" flags="0x1204"/>
      <component glyphName="grave" x="133" y="0" flags="0x1004"/>
    </TTGlyph>
    <TTGlyph name="eight" xMin="118" yMin="-16" xMax="1294" yMax="1565">
      <contour>
        <pt x="393" y="770" on="1"/>
        <pt x="166" y="926" on="0"/>
        <pt x="166" y="1163" on="1"/>
        <pt x="166" y="1336" on="0"/>
        <pt x="304" y="1448" on="1"/>
        <pt x="449" y="1565" on="0"/>
        <pt x="699" y="1565" on="1"/>
        <pt x="949" y="1565" on="0"/>
        <pt x="1090" y="1462" on="1"/>
        <pt x="1225" y="1363" on="0"/>
        <pt x="1225" y="1202" on="1"/>
        <pt x="1225" y="1024" on="0"/>
        <pt x="1087" y="900" on="1"/>
        <pt x="1039" y="857" on="0"/>
        <pt x="971" y="825" on="1"/>
        <pt x="1122" y="741" on="0"/>
        <pt x="1181" y="678" on="1"/>
        <pt x="1293" y="557" on="0"/>
        <pt x="1293" y="420" on="1"/>
        <pt x="1293" y="219" on="0"/>
        <pt x="1130" y="100" on="1"/>
        <pt x="973" y="-16" on="0"/>
        <pt x="716" y="-16" on="1"/>
        <pt x="437" y="-16" on="0"/>
        <pt x="277" y="96" on="1"/>
        <pt x="118" y="208" on="0"/>
        <pt x="118" y="397" on="1"/>
        <pt x="118" y="638" on="0"/>
      </contour>
      <contour>
        <pt x="751" y="938" on="1"/>
        <pt x="900" y="1012" on="0"/>
        <pt x="900" y="1179" on="1"/>
        <pt x="900" y="1183" on="0"/>
        <pt x="900" y="1187" on="1"/>
        <pt x="900" y="1254" on="0"/>
        <pt x="798" y="1340" on="0"/>
        <pt x="704" y="1340" on="1"/>
        <pt x="618" y="1340" on="0"/>
        <pt x="562" y="1296" on="1"/>
        <pt x="509" y="1255" on="0"/>
        <pt x="509" y="1152" on="0"/>
        <pt x="547" y="1082" on="0"/>
        <pt x="580" y="1052" on="1"/>
        <pt x="635" y="999" on="0"/>
      </contour>
      <contour>
        <pt x="619" y="647" on="1"/>
        <pt x="466" y="557" on="0"/>
        <pt x="466" y="414" on="1"/>
        <pt x="466" y="285" on="0"/>
        <pt x="600" y="242" on="1"/>
        <pt x="646" y="227" on="0"/>
        <pt x="754" y="227" on="0"/>
        <pt x="830" y="249" on="0"/>
        <pt x="858" y="270" on="1"/>
        <pt x="919" y="316" on="0"/>
        <pt x="919" y="387" on="1"/>
        <pt x="919" y="496" on="0"/>
        <pt x="733" y="590" on="1"/>
        <pt x="679" y="618" on="0"/>
      </contour>
    </TTGlyph>
    <TTGlyph name="ellipsis" xMin="120" yMin="-22" xMax="1873" yMax="416">
      <contour>
        <pt x="1446" y="189" on="1"/>
        <pt x="1446" y="280" on="0"/>
        <pt x="1510" y="348" on="1"/>
        <pt x="1575" y="416" on="0"/>
        <pt x="1670" y="416" on="1"/>
        <pt x="1762" y="416" on="0"/>
        <pt x="1818" y="356" on="1"/>
        <pt x="1873" y="298" on="0"/>
        <pt x="1873" y="206" on="1"/>
        <pt x="1873" y="113" on="0"/>
        <pt x="1810" y="46" on="1"/>
        <pt x="1745" y="-22" on="0"/>
        <pt x="1652" y="-22" on="1"/>
        <pt x="1560" y="-22" on="0"/>
        <pt x="1503" y="38" on="1"/>
        <pt x="1446" y="99" on="0"/>
      </contour>
      <contour>
        <pt x="783" y="189" on="1"/>
        <pt x="783" y="279" on="0"/>
        <pt x="848" y="348" on="1"/>
        <pt x="913" y="416" on="0"/>
        <pt x="1007" y="416" on="1"/>
        <pt x="1099" y="416" on="0"/>
        <pt x="1156" y="356" on="1"/>
        <pt x="1210" y="298" on="0"/>
        <pt x="1210" y="206" on="1"/>
        <pt x="1210" y="113" on="0"/>
        <pt x="1148" y="46" on="1"/>
        <pt x="1083" y="-22" on="0"/>
        <pt x="990" y="-22" on="1"/>
        <pt x="898" y="-22" on="0"/>
        <pt x="841" y="38" on="1"/>
        <pt x="783" y="100" on="0"/>
      </contour>
      <contour>
        <pt x="120" y="189" on="1"/>
        <pt x="120" y="279" on="0"/>
        <pt x="185" y="348" on="1"/>
        <pt x="250" y="416" on="0"/>
        <pt x="344" y="416" on="1"/>
        <pt x="437" y="416" on="0"/>
        <pt x="494" y="356" on="1"/>
        <pt x="548" y="298" on="0"/>
        <pt x="548" y="206" on="1"/>
        <pt x="548" y="113" on="0"/>
        <pt x="485" y="46" on="1"/>
        <pt x="420" y="-22" on="0"/>
        <pt x="327" y="-22" on="1"/>
        <pt x="235" y="-22" on="0"/>
        <pt x="178" y="38" on="1"/>
        <pt x="120" y="100" on="0"/>
      </contour>
    </TTGlyph>
    <TTGlyph name="emacron" xMin="85" yMin="-16" xMax="1136" yMax="1642">
      <component glyphName="e" x="0" y="0" flags="0x1204"/>
      <component glyphName="macron" x="290" y="0" flags="0x1004"/>
    </TTGlyph>
    <TTGlyph name="emdash" xMin="248" yMin="626" xMax="2174" yMax="904">
      <contour>
        <pt x="248" y="904" on="1"/>
        <pt x="2174" y="904" on="1"/>
        <pt x="2174" y="626" on="1"/>
        <pt x="248" y="626" on="1"/>
      </contour>
    </TTGlyph>
    <TTGlyph name="endash" xMin="248" yMin="626" xMax="1460" yMax="904">
      <contour>
        <pt x="248" y="904" on="1"/>
        <pt x="1460" y="904" on="1"/>
        <pt x="1460" y="626" on="1"/>
        <pt x="248" y="626" on="1"/>
      </contour>
    </TTGlyph>
    <TTGlyph name="eng" xMin="163" yMin="-507" xMax="1232" yMax="1159">
      <contour>
        <pt x="622" y="-256" on="1"/>
        <pt x="665" y="-272" on="0"/>
        <pt x="766" y="-272" on="0"/>
        <pt x="813" y="-254" on="0"/>
        <pt x="828" y="-228" on="1"/>
        <pt x="857" y="-178" on="0"/>
        <pt x="857" y="-27" on="1"/>
        <pt x="857" y="650" on="1"/>
        <pt x="857" y="775" on="0"/>
        <pt x="814" y="845" on="0"/>
        <pt x="766" y="865" on="0"/>
        <pt x="729" y="865" on="0"/>
        <pt x="709" y="865" on="0"/>
        <pt x="661" y="855" on="0"/>
        <pt x="636" y="846" on="1"/>
        <pt x="575" y="823" on="0"/>
        <pt x="538" y="786" on="1"/>
        <pt x="538" y="0" on="1"/>
        <pt x="163" y="0" on="1"/>
        <pt x="163" y="1139" on="1"/>
        <pt x="506" y="1139" on="1"/>
        <pt x="515" y="1018" on="1"/>
        <pt x="620" y="1104" on="0"/>
        <pt x="768" y="1143" on="1"/>
        <pt x="824" y="1158" on="0"/>
        <pt x="968" y="1158" on="0"/>
        <pt x="1096" y="1117" on="0"/>
        <pt x="1141" y="1065" on="1"/>
        <pt x="1232" y="960" on="0"/>
        <pt x="1232" y="718" on="1"/>
        <pt x="1232" y="-18" on="1"/>
        <pt x="1232" y="-382" on="0"/>
        <pt x="1008" y="-477" on="1"/>
        <pt x="938" y="-507" on="0"/>
        <pt x="704" y="-507" on="0"/>
        <pt x="622" y="-487" on="1"/>
      </contour>
    </TTGlyph>
    <TTGlyph name="eogonek" xMin="85" yMin="-516" xMax="1136" yMax="1156">
      <contour>
        <pt x="1089" y="-449" on="1"/>
        <pt x="982" y="-516" on="0"/>
        <pt x="831" y="-516" on="1"/>
        <pt x="717" y="-516" on="0"/>
        <pt x="637" y="-460" on="1"/>
        <pt x="550" y="-398" on="0"/>
        <pt x="550" y="-292" on="1"/>
        <pt x="550" y="-127" on="0"/>
        <pt x="726" y="-13" on="1"/>
        <pt x="708" y="-14" on="0"/>
        <pt x="672" y="-16" on="0"/>
        <pt x="653" y="-16" on="1"/>
        <pt x="380" y="-16" on="0"/>
        <pt x="231" y="141" on="1"/>
        <pt x="85" y="295" on="0"/>
        <pt x="85" y="575" on="1"/>
        <pt x="85" y="830" on="0"/>
        <pt x="235" y="990" on="1"/>
        <pt x="390" y="1156" on="0"/>
        <pt x="657" y="1156" on="1"/>
        <pt x="986" y="1156" on="0"/>
        <pt x="1094" y="920" on="1"/>
        <pt x="1135" y="830" on="0"/>
        <pt x="1136" y="572" on="0"/>
        <pt x="1124" y="483" on="1"/>
        <pt x="455" y="483" on="1"/>
        <pt x="477" y="246" on="0"/>
        <pt x="740" y="246" on="1"/>
        <pt x="871" y="246" on="0"/>
        <pt x="990" y="282" on="1"/>
        <pt x="1025" y="293" on="0"/>
        <pt x="1046" y="304" on="1"/>
        <pt x="1103" y="107" on="1"/>
        <pt x="1065" y="77" on="0"/>
        <pt x="1006" y="51" on="1"/>
        <pt x="927" y="-19" on="0"/>
        <pt x="898" y="-61" on="1"/>
        <pt x="847" y="-136" on="0"/>
        <pt x="847" y="-201" on="1"/>
        <pt x="847" y="-299" on="0"/>
        <pt x="980" y="-299" on="1"/>
        <pt x="1025" y="-299" on="0"/>
        <pt x="1089" y="-279" on="1"/>
      </contour>
      <contour>
        <pt x="793" y="668" on="1"/>
        <pt x="794" y="690" on="0"/>
        <pt x="794" y="710" on="1"/>
        <pt x="794" y="804" on="0"/>
        <pt x="734" y="917" on="0"/>
        <pt x="649" y="917" on="1"/>
        <pt x="525" y="917" on="0"/>
        <pt x="481" y="786" on="1"/>
        <pt x="465" y="739" on="0"/>
        <pt x="458" y="668" on="1"/>
      </contour>
    </TTGlyph>
    <TTGlyph name="equal" xMin="253" yMin="395" xMax="1177" yMax="1155">
      <contour>
        <pt x="253" y="1155" on="1"/>
        <pt x="1177" y="1155" on="1"/>
        <pt x="1177" y="904" on="1"/>
        <pt x="253" y="904" on="1"/>
      </contour>
      <contour>
        <pt x="253" y="647" on="1"/>
        <pt x="1177" y="647" on="1"/>
        <pt x="1177" y="395" on="1"/>
        <pt x="253" y="395" on="1"/>
      </contour>
    </TTGlyph>
    <TTGlyph name="estimated" xMin="108" yMin="-16" xMax="1273" yMax="1357">
      <contour>
        <pt x="1273" y="832" on="1"/>
        <pt x="1273" y="664" on="0"/>
        <pt x="1262" y="612" on="1"/>
        <pt x="450" y="612" on="1"/>
        <pt x="450" y="242" on="1"/>
        <pt x="554" y="147" on="0"/>
        <pt x="749" y="147" on="1"/>
        <pt x="916" y="147" on="0"/>
        <pt x="1060" y="224" on="1"/>
        <pt x="1100" y="245" on="0"/>
        <pt x="1127" y="266" on="1"/>
        <pt x="1197" y="115" on="1"/>
        <pt x="1081" y="31" on="0"/>
        <pt x="877" y="-4" on="1"/>
        <pt x="808" y="-16" on="0"/>
        <pt x="735" y="-16" on="1"/>
        <pt x="437" y="-16" on="0"/>
        <pt x="272" y="166" on="1"/>
        <pt x="108" y="348" on="0"/>
        <pt x="108" y="671" on="1"/>
        <pt x="108" y="978" on="0"/>
        <pt x="262" y="1158" on="1"/>
        <pt x="430" y="1356" on="0"/>
        <pt x="747" y="1356" on="1"/>
        <pt x="964" y="1356" on="0"/>
        <pt x="1110" y="1219" on="1"/>
        <pt x="1265" y="1074" on="0"/>
      </contour>
      <contour>
        <pt x="949" y="1134" on="1"/>
        <pt x="864" y="1193" on="0"/>
        <pt x="551" y="1193" on="0"/>
        <pt x="450" y="1096" on="1"/>
        <pt x="450" y="768" on="1"/>
        <pt x="949" y="768" on="1"/>
      </contour>
    </TTGlyph>
    <TTGlyph name="eth" xMin="84" yMin="-27" xMax="1254" yMax="1877">
      <contour>
        <pt x="856" y="1762" on="1"/>
        <pt x="773" y="1653" on="0"/>
        <pt x="736" y="1607" on="1"/>
        <pt x="972" y="1460" on="0"/>
        <pt x="1114" y="1200" on="1"/>
        <pt x="1254" y="947" on="0"/>
        <pt x="1254" y="665" on="1"/>
        <pt x="1254" y="320" on="0"/>
        <pt x="1077" y="136" on="1"/>
        <pt x="920" y="-27" on="0"/>
        <pt x="663" y="-27" on="1"/>
        <pt x="399" y="-27" on="0"/>
        <pt x="240" y="133" on="1"/>
        <pt x="84" y="291" on="0"/>
        <pt x="84" y="550" on="1"/>
        <pt x="84" y="813" on="0"/>
        <pt x="223" y="978" on="1"/>
        <pt x="368" y="1149" on="0"/>
        <pt x="617" y="1149" on="1"/>
        <pt x="728" y="1149" on="0"/>
        <pt x="813" y="1103" on="1"/>
        <pt x="751" y="1275" on="0"/>
        <pt x="582" y="1407" on="1"/>
        <pt x="462" y="1246" on="1"/>
        <pt x="298" y="1360" on="1"/>
        <pt x="423" y="1520" on="1"/>
        <pt x="310" y="1588" on="0"/>
        <pt x="217" y="1617" on="1"/>
        <pt x="277" y="1809" on="1"/>
        <pt x="457" y="1757" on="0"/>
        <pt x="563" y="1701" on="1"/>
        <pt x="614" y="1768" on="0"/>
        <pt x="689" y="1877" on="1"/>
      </contour>
      <contour>
        <pt x="590" y="248" on="1"/>
        <pt x="625" y="230" on="0"/>
        <pt x="708" y="230" on="0"/>
        <pt x="784" y="272" on="0"/>
        <pt x="812" y="316" on="1"/>
        <pt x="875" y="414" on="0"/>
        <pt x="875" y="592" on="1"/>
        <pt x="875" y="644" on="1"/>
        <pt x="875" y="745" on="0"/>
        <pt x="871" y="821" on="1"/>
        <pt x="832" y="881" on="0"/>
        <pt x="741" y="904" on="1"/>
        <pt x="711" y="911" on="0"/>
        <pt x="678" y="911" on="1"/>
        <pt x="584" y="911" on="0"/>
        <pt x="474" y="723" on="0"/>
        <pt x="474" y="536" on="1"/>
        <pt x="474" y="307" on="0"/>
      </contour>
    </TTGlyph>
    <TTGlyph name="exclam" xMin="120" yMin="-22" xMax="548" yMax="1780">
      <contour>
        <pt x="133" y="1780" on="1"/>
        <pt x="540" y="1780" on="1"/>
        <pt x="500" y="590" on="1"/>
        <pt x="186" y="590" on="1"/>
      </contour>
      <contour>
        <pt x="120" y="189" on="1"/>
        <pt x="120" y="281" on="0"/>
        <pt x="184" y="348" on="1"/>
        <pt x="251" y="416" on="0"/>
        <pt x="344" y="416" on="1"/>
        <pt x="437" y="416" on="0"/>
        <pt x="494" y="356" on="1"/>
        <pt x="548" y="298" on="0"/>
        <pt x="548" y="206" on="1"/>
        <pt x="548" y="114" on="0"/>
        <pt x="484" y="46" on="1"/>
        <pt x="420" y="-22" on="0"/>
        <pt x="326" y="-22" on="1"/>
        <pt x="235" y="-22" on="0"/>
        <pt x="178" y="38" on="1"/>
        <pt x="120" y="100" on="0"/>
      </contour>
    </TTGlyph>
    <TTGlyph name="exclamdbl" xMin="117" yMin="-22" xMax="1198" yMax="1780">
      <component glyphName="exclam" x="-3" y="0" flags="0x1004"/>
      <component glyphName="exclam" x="650" y="0" flags="0x1004"/>
    </TTGlyph>
    <TTGlyph name="exclamdown" xMin="112" yMin="-436" xMax="541" yMax="1366">
      <component glyphName="exclam" x="661" y="1344" scale="-0.999938964844" flags="0x1004"/>
    </TTGlyph>
    <TTGlyph name="f" xMin="79" yMin="0" xMax="884" yMax="1684">
      <contour>
        <pt x="884" y="1407" on="1"/>
        <pt x="837" y="1432" on="0"/>
        <pt x="672" y="1432" on="0"/>
        <pt x="594" y="1343" on="0"/>
        <pt x="594" y="1243" on="1"/>
        <pt x="594" y="1140" on="1"/>
        <pt x="841" y="1140" on="1"/>
        <pt x="841" y="897" on="1"/>
        <pt x="594" y="897" on="1"/>
        <pt x="594" y="0" on="1"/>
        <pt x="222" y="0" on="1"/>
        <pt x="222" y="897" on="1"/>
        <pt x="79" y="897" on="1"/>
        <pt x="79" y="1113" on="1"/>
        <pt x="222" y="1140" on="1"/>
        <pt x="222" y="1257" on="1"/>
        <pt x="222" y="1482" on="0"/>
        <pt x="364" y="1594" on="1"/>
        <pt x="481" y="1684" on="0"/>
        <pt x="664" y="1684" on="1"/>
        <pt x="792" y="1684" on="0"/>
        <pt x="884" y="1661" on="1"/>
      </contour>
    </TTGlyph>
    <TTGlyph name="f_f" xMin="79" yMin="0" xMax="1765" yMax="1684">
      <component glyphName="f" x="0" y="0" flags="0x1004"/>
      <component glyphName="f" x="881" y="0" flags="0x1004"/>
    </TTGlyph>
    <TTGlyph name="f_f_i" xMin="79" yMin="0" xMax="2331" yMax="1684">
      <component glyphName="dotlessi" x="1762" y="0" flags="0x1004"/>
      <component glyphName="dotaccent" x="1851" y="0" flags="0x1004"/>
      <component glyphName="f" x="0" y="0" flags="0x1004"/>
      <component glyphName="f" x="881" y="0" flags="0x1004"/>
    </TTGlyph>
    <TTGlyph name="f_f_l" xMin="79" yMin="0" xMax="2296" yMax="1684">
      <component glyphName="l" x="1762" y="0" flags="0x1004"/>
      <component glyphName="f" x="0" y="0" flags="0x1004"/>
      <component glyphName="f" x="881" y="0" flags="0x1004"/>
    </TTGlyph>
    <TTGlyph name="f_i" xMin="79" yMin="0" xMax="1450" yMax="1684">
      <component glyphName="dotlessi" x="881" y="0" flags="0x1004"/>
      <component glyphName="dotaccent" x="970" y="0" flags="0x1004"/>
      <component glyphName="f" x="0" y="0" flags="0x1004"/>
    </TTGlyph>
    <TTGlyph name="f_l" xMin="79" yMin="0" xMax="1415" yMax="1684">
      <component glyphName="l" x="881" y="0" flags="0x1004"/>
      <component glyphName="f" x="0" y="0" flags="0x1004"/>
    </TTGlyph>
    <TTGlyph name="ffi_dflt" xMin="79" yMin="0" xMax="2331" yMax="1684">
      <component glyphName="dotlessi" x="1762" y="0" flags="0x1004"/>
      <component glyphName="dotaccent" x="1851" y="0" flags="0x1004"/>
      <component glyphName="f" x="0" y="0" flags="0x1004"/>
      <component glyphName="f" x="881" y="0" flags="0x1004"/>
    </TTGlyph>
    <TTGlyph name="fi_trk" xMin="79" yMin="0" xMax="1450" yMax="1684">
      <component glyphName="dotlessi" x="881" y="0" flags="0x1004"/>
      <component glyphName="dotaccent" x="970" y="0" flags="0x1004"/>
      <component glyphName="f" x="0" y="0" flags="0x1004"/>
    </TTGlyph>
    <TTGlyph name="five" xMin="172" yMin="-365" xMax="1179" yMax="1252">
      <contour>
        <pt x="173" y="-97" on="1"/>
        <pt x="215" y="-99" on="0"/>
        <pt x="384" y="-99" on="0"/>
        <pt x="587" y="-50" on="0"/>
        <pt x="657" y="-6" on="1"/>
        <pt x="799" y="82" on="0"/>
        <pt x="799" y="229" on="1"/>
        <pt x="799" y="323" on="0"/>
        <pt x="678" y="419" on="0"/>
        <pt x="436" y="420" on="0"/>
        <pt x="252" y="355" on="1"/>
        <pt x="186" y="389" on="1"/>
        <pt x="249" y="1252" on="1"/>
        <pt x="1134" y="1252" on="1"/>
        <pt x="1102" y="951" on="1"/>
        <pt x="515" y="951" on="1"/>
        <pt x="484" y="644" on="1"/>
        <pt x="610" y="684" on="0"/>
        <pt x="842" y="684" on="0"/>
        <pt x="1009" y="624" on="0"/>
        <pt x="1065" y="567" on="1"/>
        <pt x="1179" y="451" on="0"/>
        <pt x="1179" y="243" on="1"/>
        <pt x="1179" y="-31" on="0"/>
        <pt x="948" y="-197" on="1"/>
        <pt x="715" y="-365" on="0"/>
        <pt x="321" y="-365" on="1"/>
        <pt x="228" y="-365" on="0"/>
        <pt x="172" y="-351" on="1"/>
      </contour>
    </TTGlyph>
    <TTGlyph name="florin" xMin="203" yMin="-356" xMax="1123" yMax="1684">
      <contour>
        <pt x="1101" y="1395" on="1"/>
        <pt x="1063" y="1422" on="0"/>
        <pt x="872" y="1422" on="0"/>
        <pt x="774" y="1313" on="0"/>
        <pt x="763" y="1202" on="1"/>
        <pt x="756" y="1140" on="1"/>
        <pt x="1016" y="1140" on="1"/>
        <pt x="996" y="893" on="1"/>
        <pt x="736" y="893" on="1"/>
        <pt x="625" y="-356" on="1"/>
        <pt x="250" y="-356" on="1"/>
        <pt x="360" y="893" on="1"/>
        <pt x="203" y="893" on="1"/>
        <pt x="221" y="1107" on="1"/>
        <pt x="381" y="1140" on="1"/>
        <pt x="390" y="1237" on="1"/>
        <pt x="412" y="1475" on="0"/>
        <pt x="576" y="1590" on="1"/>
        <pt x="710" y="1684" on="0"/>
        <pt x="917" y="1684" on="1"/>
        <pt x="1054" y="1684" on="0"/>
        <pt x="1123" y="1661" on="1"/>
      </contour>
    </TTGlyph>
    <TTGlyph name="four" xMin="80" yMin="-376" xMax="1399" yMax="1342">
      <contour>
        <pt x="634" y="1342" on="1"/>
        <pt x="711" y="1342" on="1"/>
        <pt x="1001" y="1205" on="1"/>
        <pt x="582" y="431" on="1"/>
        <pt x="483" y="262" on="1"/>
        <pt x="821" y="262" on="1"/>
        <pt x="859" y="634" on="1"/>
        <pt x="1177" y="634" on="1"/>
        <pt x="1177" y="262" on="1"/>
        <pt x="1399" y="262" on="1"/>
        <pt x="1399" y="0" on="1"/>
        <pt x="1177" y="0" on="1"/>
        <pt x="1177" y="-376" on="1"/>
        <pt x="821" y="-376" on="1"/>
        <pt x="821" y="0" on="1"/>
        <pt x="166" y="0" on="1"/>
        <pt x="80" y="132" on="1"/>
      </contour>
    </TTGlyph>
    <TTGlyph name="foursuperior" xMin="69" yMin="588" xMax="1144" yMax="1856">
      <contour>
        <pt x="69" y="947" on="1"/>
        <pt x="542" y="1856" on="1"/>
        <pt x="611" y="1856" on="1"/>
        <pt x="851" y="1753" on="1"/>
        <pt x="472" y="1143" on="1"/>
        <pt x="429" y="1068" on="1"/>
        <pt x="694" y="1068" on="1"/>
        <pt x="722" y="1340" on="1"/>
        <pt x="992" y="1340" on="1"/>
        <pt x="992" y="1068" on="1"/>
        <pt x="1144" y="1068" on="1"/>
        <pt x="1144" y="853" on="1"/>
        <pt x="992" y="853" on="1"/>
        <pt x="992" y="588" on="1"/>
        <pt x="692" y="588" on="1"/>
        <pt x="693" y="853" on="1"/>
        <pt x="122" y="853" on="1"/>
      </contour>
    </TTGlyph>
    <TTGlyph name="fraction" xMin="114" yMin="0" xMax="919" yMax="1530">
      <contour>
        <pt x="653" y="1530" on="1"/>
        <pt x="919" y="1530" on="1"/>
        <pt x="377" y="0" on="1"/>
        <pt x="114" y="0" on="1"/>
      </contour>
    </TTGlyph>
    <TTGlyph name="g" xMin="67" yMin="-517" xMax="1338" yMax="1155">
      <contour>
        <pt x="516" y="429" on="1"/>
        <pt x="480" y="397" on="0"/>
        <pt x="480" y="307" on="0"/>
        <pt x="544" y="274" on="0"/>
        <pt x="625" y="274" on="1"/>
        <pt x="851" y="274" on="1"/>
        <pt x="1098" y="274" on="0"/>
        <pt x="1210" y="169" on="1"/>
        <pt x="1302" y="82" on="0"/>
        <pt x="1302" y="-72" on="1"/>
        <pt x="1302" y="-286" on="0"/>
        <pt x="1100" y="-408" on="1"/>
        <pt x="920" y="-516" on="0"/>
        <pt x="666" y="-516" on="1"/>
        <pt x="214" y="-516" on="0"/>
        <pt x="102" y="-312" on="1"/>
        <pt x="67" y="-249" on="0"/>
        <pt x="67" y="-96" on="0"/>
        <pt x="153" y="32" on="0"/>
        <pt x="238" y="70" on="1"/>
        <pt x="146" y="121" on="0"/>
        <pt x="146" y="236" on="1"/>
        <pt x="146" y="343" on="0"/>
        <pt x="244" y="422" on="1"/>
        <pt x="279" y="450" on="0"/>
        <pt x="332" y="473" on="1"/>
        <pt x="104" y="565" on="0"/>
        <pt x="104" y="785" on="1"/>
        <pt x="104" y="1061" on="0"/>
        <pt x="406" y="1132" on="1"/>
        <pt x="504" y="1155" on="0"/>
        <pt x="630" y="1155" on="1"/>
        <pt x="879" y="1155" on="0"/>
        <pt x="1016" y="1071" on="1"/>
        <pt x="1099" y="1140" on="0"/>
        <pt x="1210" y="1140" on="1"/>
        <pt x="1338" y="1140" on="1"/>
        <pt x="1338" y="885" on="1"/>
        <pt x="1154" y="885" on="1"/>
        <pt x="1165" y="839" on="0"/>
        <pt x="1165" y="705" on="0"/>
        <pt x="1102" y="569" on="0"/>
        <pt x="1037" y="522" on="1"/>
        <pt x="902" y="423" on="0"/>
        <pt x="630" y="423" on="1"/>
        <pt x="570" y="423" on="0"/>
      </contour>
      <contour>
        <pt x="750" y="644" on="1"/>
        <pt x="808" y="692" on="0"/>
        <pt x="808" y="787" on="1"/>
        <pt x="808" y="964" on="0"/>
        <pt x="637" y="964" on="1"/>
        <pt x="507" y="964" on="0"/>
        <pt x="472" y="873" on="1"/>
        <pt x="459" y="839" on="0"/>
        <pt x="459" y="707" on="0"/>
        <pt x="545" y="617" on="0"/>
        <pt x="718" y="617" on="0"/>
      </contour>
      <contour>
        <pt x="474" y="11" on="1"/>
        <pt x="439" y="-39" on="0"/>
        <pt x="439" y="-104" on="1"/>
        <pt x="439" y="-248" on="0"/>
        <pt x="556" y="-297" on="1"/>
        <pt x="601" y="-316" on="0"/>
        <pt x="729" y="-316" on="0"/>
        <pt x="825" y="-298" on="0"/>
        <pt x="860" y="-278" on="1"/>
        <pt x="934" y="-234" on="0"/>
        <pt x="934" y="-147" on="1"/>
        <pt x="934" y="-69" on="0"/>
        <pt x="903" y="-42" on="1"/>
        <pt x="844" y="11" on="0"/>
        <pt x="717" y="11" on="1"/>
      </contour>
    </TTGlyph>
    <TTGlyph name="gbreve" xMin="67" yMin="-517" xMax="1338" yMax="1688">
      <component glyphName="g" x="0" y="0" flags="0x1204"/>
      <component glyphName="breve" x="239" y="0" flags="0x1004"/>
    </TTGlyph>
    <TTGlyph name="gcircumflex" xMin="67" yMin="-517" xMax="1338" yMax="1733">
      <component glyphName="circumflex" x="207" y="0" flags="0x1004"/>
      <component glyphName="g" x="0" y="0" flags="0x1004"/>
    </TTGlyph>
    <TTGlyph name="gcommaaccent" xMin="67" yMin="-517" xMax="1338" yMax="1870">
      <contour>
        <pt x="667" y="1270" on="1"/>
        <pt x="579" y="1277" on="0"/>
        <pt x="514" y="1348" on="1"/>
        <pt x="442" y="1427" on="0"/>
        <pt x="442" y="1551" on="1"/>
        <pt x="442" y="1669" on="0"/>
        <pt x="508" y="1766" on="1"/>
        <pt x="565" y="1849" on="0"/>
        <pt x="630" y="1870" on="1"/>
        <pt x="774" y="1819" on="1"/>
        <pt x="774" y="1798" on="1"/>
        <pt x="744" y="1750" on="0"/>
        <pt x="735" y="1677" on="0"/>
        <pt x="735" y="1617" on="0"/>
        <pt x="748" y="1562" on="0"/>
        <pt x="760" y="1539" on="1"/>
        <pt x="785" y="1488" on="0"/>
        <pt x="824" y="1480" on="1"/>
        <pt x="824" y="1403" on="1"/>
      </contour>
      <contour>
        <pt x="516" y="429" on="1"/>
        <pt x="480" y="397" on="0"/>
        <pt x="480" y="307" on="0"/>
        <pt x="544" y="274" on="0"/>
        <pt x="625" y="274" on="1"/>
        <pt x="851" y="274" on="1"/>
        <pt x="1098" y="274" on="0"/>
        <pt x="1210" y="169" on="1"/>
        <pt x="1302" y="82" on="0"/>
        <pt x="1302" y="-72" on="1"/>
        <pt x="1302" y="-286" on="0"/>
        <pt x="1100" y="-408" on="1"/>
        <pt x="920" y="-516" on="0"/>
        <pt x="666" y="-516" on="1"/>
        <pt x="214" y="-516" on="0"/>
        <pt x="102" y="-312" on="1"/>
        <pt x="67" y="-249" on="0"/>
        <pt x="67" y="-96" on="0"/>
        <pt x="153" y="32" on="0"/>
        <pt x="238" y="70" on="1"/>
        <pt x="146" y="121" on="0"/>
        <pt x="146" y="236" on="1"/>
        <pt x="146" y="343" on="0"/>
        <pt x="244" y="422" on="1"/>
        <pt x="279" y="450" on="0"/>
        <pt x="332" y="473" on="1"/>
        <pt x="104" y="565" on="0"/>
        <pt x="104" y="785" on="1"/>
        <pt x="104" y="1061" on="0"/>
        <pt x="406" y="1132" on="1"/>
        <pt x="504" y="1155" on="0"/>
        <pt x="630" y="1155" on="1"/>
        <pt x="879" y="1155" on="0"/>
        <pt x="1016" y="1071" on="1"/>
        <pt x="1099" y="1140" on="0"/>
        <pt x="1210" y="1140" on="1"/>
        <pt x="1338" y="1140" on="1"/>
        <pt x="1338" y="885" on="1"/>
        <pt x="1154" y="885" on="1"/>
        <pt x="1165" y="839" on="0"/>
        <pt x="1165" y="705" on="0"/>
        <pt x="1102" y="569" on="0"/>
        <pt x="1037" y="522" on="1"/>
        <pt x="902" y="423" on="0"/>
        <pt x="630" y="423" on="1"/>
        <pt x="570" y="423" on="0"/>
      </contour>
      <contour>
        <pt x="750" y="644" on="1"/>
        <pt x="808" y="692" on="0"/>
        <pt x="808" y="787" on="1"/>
        <pt x="808" y="964" on="0"/>
        <pt x="637" y="964" on="1"/>
        <pt x="507" y="964" on="0"/>
        <pt x="472" y="873" on="1"/>
        <pt x="459" y="839" on="0"/>
        <pt x="459" y="707" on="0"/>
        <pt x="545" y="617" on="0"/>
        <pt x="718" y="617" on="0"/>
      </contour>
      <contour>
        <pt x="474" y="11" on="1"/>
        <pt x="439" y="-39" on="0"/>
        <pt x="439" y="-104" on="1"/>
        <pt x="439" y="-248" on="0"/>
        <pt x="556" y="-297" on="1"/>
        <pt x="601" y="-316" on="0"/>
        <pt x="729" y="-316" on="0"/>
        <pt x="825" y="-298" on="0"/>
        <pt x="860" y="-278" on="1"/>
        <pt x="934" y="-234" on="0"/>
        <pt x="934" y="-147" on="1"/>
        <pt x="934" y="-69" on="0"/>
        <pt x="903" y="-42" on="1"/>
        <pt x="844" y="11" on="0"/>
        <pt x="717" y="11" on="1"/>
      </contour>
    </TTGlyph>
    <TTGlyph name="gdotaccent" xMin="67" yMin="-517" xMax="1338" yMax="1677">
      <component glyphName="g" x="0" y="0" flags="0x1204"/>
      <component glyphName="dotaccent" x="378" y="0" flags="0x1004"/>
    </TTGlyph>
    <TTGlyph name="germandbls" xMin="41" yMin="-16" xMax="1372" yMax="1579">
      <contour>
        <pt x="176" y="897" on="1"/>
        <pt x="41" y="897" on="1"/>
        <pt x="41" y="1120" on="1"/>
        <pt x="193" y="1150" on="1"/>
        <pt x="241" y="1369" on="0"/>
        <pt x="421" y="1480" on="1"/>
        <pt x="583" y="1579" on="0"/>
        <pt x="829" y="1579" on="1"/>
        <pt x="1043" y="1579" on="0"/>
        <pt x="1168" y="1490" on="1"/>
        <pt x="1287" y="1406" on="0"/>
        <pt x="1287" y="1271" on="1"/>
        <pt x="1287" y="1126" on="0"/>
        <pt x="1170" y="1040" on="1"/>
        <pt x="1097" y="986" on="0"/>
        <pt x="1054" y="931" on="0"/>
        <pt x="1054" y="870" on="0"/>
        <pt x="1101" y="813" on="0"/>
        <pt x="1172" y="748" on="0"/>
        <pt x="1254" y="673" on="0"/>
        <pt x="1290" y="624" on="1"/>
        <pt x="1372" y="510" on="0"/>
        <pt x="1372" y="254" on="0"/>
        <pt x="1296" y="105" on="0"/>
        <pt x="1234" y="62" on="1"/>
        <pt x="1122" y="-16" on="0"/>
        <pt x="928" y="-16" on="1"/>
        <pt x="755" y="-16" on="0"/>
        <pt x="689" y="20" on="1"/>
        <pt x="689" y="267" on="1"/>
        <pt x="741" y="230" on="0"/>
        <pt x="833" y="230" on="1"/>
        <pt x="934" y="230" on="0"/>
        <pt x="972" y="298" on="1"/>
        <pt x="987" y="323" on="0"/>
        <pt x="987" y="409" on="0"/>
        <pt x="949" y="484" on="0"/>
        <pt x="891" y="551" on="0"/>
        <pt x="825" y="616" on="0"/>
        <pt x="796" y="654" on="1"/>
        <pt x="729" y="742" on="0"/>
        <pt x="729" y="841" on="1"/>
        <pt x="729" y="943" on="0"/>
        <pt x="825" y="1035" on="1"/>
        <pt x="884" y="1092" on="0"/>
        <pt x="921" y="1175" on="0"/>
        <pt x="921" y="1275" on="0"/>
        <pt x="848" y="1346" on="0"/>
        <pt x="726" y="1346" on="0"/>
        <pt x="641" y="1306" on="0"/>
        <pt x="612" y="1260" on="1"/>
        <pt x="550" y="1164" on="0"/>
        <pt x="550" y="953" on="1"/>
        <pt x="550" y="0" on="1"/>
        <pt x="176" y="0" on="1"/>
      </contour>
    </TTGlyph>
    <TTGlyph name="grave" xMin="65" yMin="1222" xMax="652" yMax="1825">
      <contour>
        <pt x="483" y="1222" on="1"/>
        <pt x="406" y="1259" on="0"/>
        <pt x="266" y="1388" on="1"/>
        <pt x="111" y="1529" on="0"/>
        <pt x="65" y="1636" on="1"/>
        <pt x="309" y="1825" on="1"/>
        <pt x="415" y="1647" on="0"/>
        <pt x="566" y="1470" on="1"/>
        <pt x="613" y="1415" on="0"/>
        <pt x="652" y="1380" on="1"/>
      </contour>
    </TTGlyph>
    <TTGlyph name="grave.cap" xMin="55" yMin="1534" xMax="577" yMax="1988">
      <contour>
        <pt x="404" y="1534" on="1"/>
        <pt x="340" y="1555" on="0"/>
        <pt x="228" y="1660" on="1"/>
        <pt x="115" y="1767" on="0"/>
        <pt x="55" y="1858" on="1"/>
        <pt x="317" y="1988" on="1"/>
        <pt x="345" y="1909" on="0"/>
        <pt x="546" y="1698" on="1"/>
        <pt x="567" y="1676" on="0"/>
        <pt x="577" y="1666" on="1"/>
      </contour>
    </TTGlyph>
    <TTGlyph name="greater" xMin="211" yMin="213" xMax="1156" yMax="1356">
      <component glyphName="less" x="1367" y="0" scalex="-0.999938964844" scaley="1.0" flags="0x1004"/>
    </TTGlyph>
    <TTGlyph name="greaterequal" xMin="231" yMin="-2" xMax="1201" yMax="1311">
      <component glyphName="lessequal" x="1368" y="0" scalex="-0.999938964844" scaley="1.0" flags="0x1004"/>
    </TTGlyph>
    <TTGlyph name="guillemotleft" xMin="221" yMin="56" xMax="1788" yMax="1174">
      <component glyphName="guilsinglleft" x="0" y="0" flags="0x1004"/>
      <component glyphName="guilsinglleft" x="817" y="0" flags="0x1004"/>
    </TTGlyph>
    <TTGlyph name="guillemotright" xMin="233" yMin="56" xMax="1800" yMax="1174">
      <component glyphName="guilsinglleft" x="1205" y="0" scalex="-0.999938964844" scaley="1.0" flags="0x1004"/>
      <component glyphName="guilsinglleft" x="2021" y="0" scalex="-0.999938964844" scaley="1.0" flags="0x1004"/>
    </TTGlyph>
    <TTGlyph name="guilsinglleft" xMin="221" yMin="56" xMax="971" yMax="1174">
      <contour>
        <pt x="221" y="757" on="1"/>
        <pt x="885" y="1174" on="1"/>
        <pt x="971" y="921" on="1"/>
        <pt x="575" y="615" on="1"/>
        <pt x="971" y="309" on="1"/>
        <pt x="885" y="56" on="1"/>
        <pt x="221" y="473" on="1"/>
      </contour>
    </TTGlyph>
    <TTGlyph name="guilsinglright" xMin="232" yMin="56" xMax="983" yMax="1174">
      <component glyphName="guilsinglleft" x="1204" y="0" scalex="-0.999938964844" scaley="1.0" flags="0x1004"/>
    </TTGlyph>
    <TTGlyph name="h" xMin="159" yMin="0" xMax="1230" yMax="1662">
      <contour>
        <pt x="159" y="1662" on="1"/>
        <pt x="530" y="1662" on="1"/>
        <pt x="530" y="1234" on="1"/>
        <pt x="512" y="1021" on="1"/>
        <pt x="615" y="1109" on="0"/>
        <pt x="762" y="1144" on="1"/>
        <pt x="819" y="1158" on="0"/>
        <pt x="882" y="1158" on="1"/>
        <pt x="1058" y="1158" on="0"/>
        <pt x="1230" y="944" on="0"/>
        <pt x="1230" y="715" on="1"/>
        <pt x="1230" y="0" on="1"/>
        <pt x="859" y="0" on="1"/>
        <pt x="859" y="652" on="1"/>
        <pt x="859" y="833" on="0"/>
        <pt x="777" y="859" on="1"/>
        <pt x="752" y="867" on="0"/>
        <pt x="716" y="867" on="0"/>
        <pt x="695" y="867" on="0"/>
        <pt x="649" y="859" on="0"/>
        <pt x="624" y="850" on="1"/>
        <pt x="568" y="831" on="0"/>
        <pt x="530" y="793" on="1"/>
        <pt x="530" y="0" on="1"/>
        <pt x="159" y="0" on="1"/>
      </contour>
    </TTGlyph>
    <TTGlyph name="hbar" xMin="30" yMin="0" xMax="1230" yMax="1662">
      <contour>
        <pt x="159" y="1297" on="1"/>
        <pt x="30" y="1297" on="1"/>
        <pt x="30" y="1499" on="1"/>
        <pt x="159" y="1499" on="1"/>
        <pt x="159" y="1662" on="1"/>
        <pt x="530" y="1662" on="1"/>
        <pt x="530" y="1499" on="1"/>
        <pt x="743" y="1499" on="1"/>
        <pt x="743" y="1297" on="1"/>
        <pt x="530" y="1297" on="1"/>
        <pt x="530" y="1234" on="1"/>
        <pt x="512" y="1021" on="1"/>
        <pt x="615" y="1109" on="0"/>
        <pt x="762" y="1144" on="1"/>
        <pt x="819" y="1158" on="0"/>
        <pt x="882" y="1158" on="1"/>
        <pt x="1058" y="1158" on="0"/>
        <pt x="1230" y="944" on="0"/>
        <pt x="1230" y="715" on="1"/>
        <pt x="1230" y="0" on="1"/>
        <pt x="859" y="0" on="1"/>
        <pt x="859" y="652" on="1"/>
        <pt x="859" y="833" on="0"/>
        <pt x="777" y="859" on="1"/>
        <pt x="752" y="867" on="0"/>
        <pt x="716" y="867" on="0"/>
        <pt x="695" y="867" on="0"/>
        <pt x="649" y="859" on="0"/>
        <pt x="624" y="850" on="1"/>
        <pt x="568" y="831" on="0"/>
        <pt x="530" y="793" on="1"/>
        <pt x="530" y="0" on="1"/>
        <pt x="159" y="0" on="1"/>
      </contour>
    </TTGlyph>
    <TTGlyph name="hcircumflex" xMin="159" yMin="0" xMax="1230" yMax="1964">
      <component glyphName="h" x="0" y="0" flags="0x1204"/>
      <component glyphName="circumflex.cap" x="362" y="0" flags="0x1004"/>
    </TTGlyph>
    <TTGlyph name="hungarumlaut" xMin="27" yMin="1280" xMax="1068" yMax="1837">
      <contour>
        <pt x="27" y="1384" on="1"/>
        <pt x="78" y="1452" on="0"/>
        <pt x="182" y="1612" on="1"/>
        <pt x="318" y="1825" on="0"/>
        <pt x="327" y="1837" on="1"/>
        <pt x="542" y="1690" on="1"/>
        <pt x="494" y="1597" on="0"/>
        <pt x="368" y="1456" on="1"/>
        <pt x="250" y="1326" on="0"/>
        <pt x="171" y="1280" on="1"/>
      </contour>
      <contour>
        <pt x="548" y="1384" on="1"/>
        <pt x="563" y="1403" on="0"/>
        <pt x="616" y="1481" on="0"/>
        <pt x="681" y="1575" on="0"/>
        <pt x="749" y="1676" on="0"/>
        <pt x="778" y="1720" on="1"/>
        <pt x="835" y="1807" on="0"/>
        <pt x="852" y="1831" on="1"/>
        <pt x="1068" y="1684" on="1"/>
        <pt x="994" y="1544" on="0"/>
        <pt x="816" y="1378" on="1"/>
        <pt x="734" y="1302" on="0"/>
        <pt x="688" y="1280" on="1"/>
      </contour>
    </TTGlyph>
    <TTGlyph name="hungarumlaut.cap" xMin="41" yMin="1532" xMax="1039" yMax="1964">
      <contour>
        <pt x="41" y="1658" on="1"/>
        <pt x="99" y="1716" on="0"/>
        <pt x="158" y="1802" on="1"/>
        <pt x="242" y="1924" on="0"/>
        <pt x="260" y="1964" on="1"/>
        <pt x="518" y="1846" on="1"/>
        <pt x="425" y="1700" on="0"/>
        <pt x="282" y="1576" on="1"/>
        <pt x="244" y="1543" on="0"/>
        <pt x="220" y="1532" on="1"/>
      </contour>
      <contour>
        <pt x="558" y="1658" on="1"/>
        <pt x="646" y="1746" on="0"/>
        <pt x="756" y="1915" on="1"/>
        <pt x="773" y="1942" on="0"/>
        <pt x="783" y="1962" on="1"/>
        <pt x="1039" y="1843" on="1"/>
        <pt x="941" y="1694" on="0"/>
        <pt x="804" y="1576" on="1"/>
        <pt x="765" y="1543" on="0"/>
        <pt x="740" y="1532" on="1"/>
      </contour>
    </TTGlyph>
    <TTGlyph name="hyphen" xMin="254" yMin="626" xMax="1104" yMax="904">
      <contour>
        <pt x="254" y="904" on="1"/>
        <pt x="1104" y="904" on="1"/>
        <pt x="1104" y="626" on="1"/>
        <pt x="254" y="626" on="1"/>
      </contour>
    </TTGlyph>
    <TTGlyph name="i" xMin="142" yMin="0" xMax="569" yMax="1677">
      <component glyphName="dotlessi" x="0" y="0" flags="0x1204"/>
      <component glyphName="dotaccent" x="89" y="0" flags="0x1004"/>
    </TTGlyph>
    <TTGlyph name="i.cy" xMin="142" yMin="0" xMax="569" yMax="1677">
      <component glyphName="dotlessi" x="0" y="0" flags="0x1204"/>
      <component glyphName="dotaccent" x="89" y="0" flags="0x1004"/>
    </TTGlyph>
    <TTGlyph name="i.dot" xMin="142" yMin="0" xMax="569" yMax="1677">
      <component glyphName="dotlessi" x="0" y="0" flags="0x1204"/>
      <component glyphName="dotaccent" x="89" y="0" flags="0x1004"/>
    </TTGlyph>
    <TTGlyph name="i.uc" xMin="175" yMin="0" xMax="576" yMax="1963">
      <component glyphName="I" x="0" y="0" flags="0x1004"/>
      <component glyphName="dotaccent.cap" x="109" y="0" flags="0x1004"/>
    </TTGlyph>
    <TTGlyph name="iacute" xMin="159" yMin="0" xMax="775" yMax="1825">
      <component glyphName="acute" x="156" y="0" flags="0x1004"/>
      <component glyphName="dotlessi" x="0" y="0" flags="0x1004"/>
    </TTGlyph>
    <TTGlyph name="ibreve" xMin="-41" yMin="0" xMax="731" yMax="1688">
      <component glyphName="dotlessi" x="0" y="0" flags="0x1204"/>
      <component glyphName="breve" x="-68" y="0" flags="0x1004"/>
    </TTGlyph>
    <TTGlyph name="icircumflex" xMin="-70" yMin="0" xMax="762" yMax="1733">
      <component glyphName="circumflex" x="-101" y="0" flags="0x1004"/>
      <component glyphName="dotlessi" x="0" y="0" flags="0x1004"/>
    </TTGlyph>
    <TTGlyph name="idieresis" xMin="-96" yMin="0" xMax="784" yMax="1674">
      <contour>
        <pt x="584" y="1280" on="1"/>
        <pt x="542" y="1280" on="0"/>
        <pt x="473" y="1308" on="0"/>
        <pt x="449" y="1334" on="1"/>
        <pt x="399" y="1387" on="0"/>
        <pt x="399" y="1470" on="1"/>
        <pt x="399" y="1555" on="0"/>
        <pt x="458" y="1614" on="1"/>
        <pt x="518" y="1674" on="0"/>
        <pt x="601" y="1674" on="1"/>
        <pt x="686" y="1674" on="0"/>
        <pt x="736" y="1622" on="1"/>
        <pt x="784" y="1572" on="0"/>
        <pt x="784" y="1485" on="1"/>
        <pt x="784" y="1400" on="0"/>
        <pt x="727" y="1341" on="1"/>
        <pt x="668" y="1280" on="0"/>
      </contour>
      <contour>
        <pt x="90" y="1280" on="1"/>
        <pt x="47" y="1280" on="0"/>
        <pt x="-22" y="1308" on="0"/>
        <pt x="-46" y="1334" on="1"/>
        <pt x="-96" y="1387" on="0"/>
        <pt x="-96" y="1470" on="1"/>
        <pt x="-96" y="1554" on="0"/>
        <pt x="-38" y="1614" on="1"/>
        <pt x="21" y="1674" on="0"/>
        <pt x="193" y="1674" on="0"/>
        <pt x="288" y="1569" on="0"/>
        <pt x="288" y="1485" on="1"/>
        <pt x="288" y="1401" on="0"/>
        <pt x="232" y="1341" on="1"/>
        <pt x="174" y="1280" on="0"/>
      </contour>
      <contour>
        <pt x="159" y="1140" on="1"/>
        <pt x="531" y="1140" on="1"/>
        <pt x="531" y="0" on="1"/>
        <pt x="159" y="0" on="1"/>
      </contour>
    </TTGlyph>
    <TTGlyph name="igrave" xMin="-110" yMin="0" xMax="531" yMax="1825">
      <component glyphName="dotlessi" x="0" y="0" flags="0x1204"/>
      <component glyphName="grave" x="-175" y="0" flags="0x1004"/>
    </TTGlyph>
    <TTGlyph name="ij" xMin="142" yMin="-507" xMax="1253" yMax="1677">
      <component glyphName="dotlessj" x="690" y="0" flags="0x1004"/>
      <component glyphName="dotlessi" x="0" y="0" flags="0x1004"/>
      <component glyphName="dotaccent" x="89" y="0" flags="0x1004"/>
      <component glyphName="dotaccent" x="773" y="0" flags="0x1004"/>
    </TTGlyph>
    <TTGlyph name="imacron" xMin="36" yMin="0" xMax="655" yMax="1642">
      <component glyphName="dotlessi" x="0" y="0" flags="0x1204"/>
      <component glyphName="macron" x="-17" y="0" flags="0x1004"/>
    </TTGlyph>
    <TTGlyph name="infinity" xMin="74" yMin="145" xMax="2028" yMax="1084">
      <contour>
        <pt x="1024" y="372" on="1"/>
        <pt x="832" y="150" on="0"/>
        <pt x="585" y="150" on="1"/>
        <pt x="339" y="150" on="0"/>
        <pt x="202" y="291" on="1"/>
        <pt x="74" y="421" on="0"/>
        <pt x="74" y="624" on="1"/>
        <pt x="74" y="822" on="0"/>
        <pt x="210" y="950" on="1"/>
        <pt x="353" y="1084" on="0"/>
        <pt x="584" y="1084" on="1"/>
        <pt x="897" y="1084" on="0"/>
        <pt x="1078" y="851" on="1"/>
        <pt x="1281" y="1079" on="0"/>
        <pt x="1518" y="1079" on="1"/>
        <pt x="1521" y="1079" on="0"/>
        <pt x="1525" y="1079" on="1"/>
        <pt x="1772" y="1079" on="0"/>
        <pt x="1906" y="941" on="1"/>
        <pt x="2028" y="817" on="0"/>
        <pt x="2028" y="613" on="1"/>
        <pt x="2028" y="413" on="0"/>
        <pt x="1892" y="282" on="1"/>
        <pt x="1749" y="145" on="0"/>
        <pt x="1516" y="145" on="1"/>
        <pt x="1194" y="145" on="0"/>
      </contour>
      <contour>
        <pt x="1202" y="670" on="1"/>
        <pt x="1348" y="400" on="0"/>
        <pt x="1517" y="400" on="1"/>
        <pt x="1607" y="400" on="0"/>
        <pt x="1662" y="460" on="1"/>
        <pt x="1717" y="522" on="0"/>
        <pt x="1717" y="625" on="1"/>
        <pt x="1717" y="767" on="0"/>
        <pt x="1582" y="815" on="1"/>
        <pt x="1537" y="831" on="0"/>
        <pt x="1473" y="831" on="1"/>
        <pt x="1330" y="831" on="0"/>
      </contour>
      <contour>
        <pt x="412" y="741" on="0"/>
        <pt x="383" y="663" on="0"/>
        <pt x="383" y="572" on="0"/>
        <pt x="412" y="494" on="0"/>
        <pt x="441" y="464" on="1"/>
        <pt x="505" y="398" on="0"/>
        <pt x="619" y="398" on="1"/>
        <pt x="765" y="398" on="0"/>
        <pt x="899" y="558" on="1"/>
        <pt x="802" y="738" on="0"/>
        <pt x="674" y="802" on="1"/>
        <pt x="628" y="825" on="0"/>
        <pt x="536" y="825" on="0"/>
        <pt x="464" y="796" on="0"/>
      </contour>
    </TTGlyph>
    <TTGlyph name="integral" xMin="91" yMin="-518" xMax="1012" yMax="1684">
      <contour>
        <pt x="194" y="-175" on="1"/>
        <pt x="230" y="-231" on="0"/>
        <pt x="339" y="-264" on="1"/>
        <pt x="372" y="-274" on="0"/>
        <pt x="462" y="-274" on="0"/>
        <pt x="500" y="-255" on="1"/>
        <pt x="598" y="-206" on="0"/>
        <pt x="598" y="-36" on="1"/>
        <pt x="598" y="177" on="0"/>
        <pt x="386" y="566" on="1"/>
        <pt x="263" y="790" on="0"/>
        <pt x="218" y="932" on="1"/>
        <pt x="173" y="1079" on="0"/>
        <pt x="173" y="1291" on="0"/>
        <pt x="229" y="1468" on="0"/>
        <pt x="292" y="1536" on="1"/>
        <pt x="428" y="1684" on="0"/>
        <pt x="686" y="1684" on="1"/>
        <pt x="852" y="1684" on="0"/>
        <pt x="959" y="1604" on="1"/>
        <pt x="993" y="1578" on="0"/>
        <pt x="1012" y="1547" on="1"/>
        <pt x="881" y="1364" on="1"/>
        <pt x="860" y="1411" on="0"/>
        <pt x="766" y="1439" on="1"/>
        <pt x="737" y="1448" on="0"/>
        <pt x="705" y="1448" on="1"/>
        <pt x="599" y="1448" on="0"/>
        <pt x="494" y="1319" on="0"/>
        <pt x="494" y="1205" on="1"/>
        <pt x="494" y="1041" on="0"/>
        <pt x="606" y="808" on="1"/>
        <pt x="653" y="711" on="0"/>
        <pt x="762" y="514" on="0"/>
        <pt x="808" y="413" on="1"/>
        <pt x="921" y="169" on="0"/>
        <pt x="921" y="-9" on="1"/>
        <pt x="921" y="-219" on="0"/>
        <pt x="808" y="-356" on="1"/>
        <pt x="674" y="-518" on="0"/>
        <pt x="424" y="-518" on="1"/>
        <pt x="330" y="-518" on="0"/>
        <pt x="257" y="-490" on="1"/>
        <pt x="126" y="-441" on="0"/>
        <pt x="91" y="-387" on="1"/>
      </contour>
    </TTGlyph>
    <TTGlyph name="iogonek" xMin="12" yMin="-516" xMax="569" yMax="1677">
      <contour>
        <pt x="348" y="1279" on="1"/>
        <pt x="258" y="1279" on="0"/>
        <pt x="200" y="1332" on="1"/>
        <pt x="142" y="1387" on="0"/>
        <pt x="142" y="1471" on="1"/>
        <pt x="142" y="1555" on="0"/>
        <pt x="275" y="1677" on="0"/>
        <pt x="365" y="1677" on="1"/>
        <pt x="455" y="1677" on="0"/>
        <pt x="512" y="1624" on="1"/>
        <pt x="569" y="1571" on="0"/>
        <pt x="569" y="1486" on="1"/>
        <pt x="569" y="1402" on="0"/>
        <pt x="504" y="1340" on="1"/>
        <pt x="439" y="1279" on="0"/>
      </contour>
      <contour>
        <pt x="556" y="-449" on="1"/>
        <pt x="449" y="-516" on="0"/>
        <pt x="298" y="-516" on="1"/>
        <pt x="183" y="-516" on="0"/>
        <pt x="102" y="-461" on="1"/>
        <pt x="13" y="-400" on="0"/>
        <pt x="13" y="-298" on="1"/>
        <pt x="13" y="-206" on="0"/>
        <pt x="86" y="-121" on="1"/>
        <pt x="143" y="-54" on="0"/>
        <pt x="241" y="0" on="1"/>
        <pt x="159" y="0" on="1"/>
        <pt x="159" y="1140" on="1"/>
        <pt x="531" y="1140" on="1"/>
        <pt x="531" y="0" on="1"/>
        <pt x="481" y="0" on="1"/>
        <pt x="318" y="-91" on="0"/>
        <pt x="318" y="-197" on="1"/>
        <pt x="318" y="-299" on="0"/>
        <pt x="447" y="-299" on="1"/>
        <pt x="494" y="-299" on="0"/>
        <pt x="556" y="-279" on="1"/>
      </contour>
    </TTGlyph>
    <TTGlyph name="itilde" xMin="-119" yMin="0" xMax="801" yMax="1697">
      <component glyphName="dotlessi" x="0" y="0" flags="0x1204"/>
      <component glyphName="tilde" x="-127" y="0" flags="0x1004"/>
    </TTGlyph>
    <TTGlyph name="j" xMin="-104" yMin="-507" xMax="563" yMax="1677">
      <component glyphName="dotlessj" x="0" y="0" flags="0x1204"/>
      <component glyphName="dotaccent" x="83" y="0" flags="0x1004"/>
    </TTGlyph>
    <TTGlyph name="jcircumflex" xMin="-104" yMin="-507" xMax="761" yMax="1733">
      <component glyphName="dotlessj" x="0" y="0" flags="0x1204"/>
      <component glyphName="circumflex" x="-102" y="0" flags="0x1004"/>
    </TTGlyph>
    <TTGlyph name="k" xMin="159" yMin="0" xMax="1306" yMax="1661">
      <contour>
        <pt x="159" y="1661" on="1"/>
        <pt x="530" y="1661" on="1"/>
        <pt x="530" y="1032" on="1"/>
        <pt x="518" y="720" on="1"/>
        <pt x="858" y="1140" on="1"/>
        <pt x="1279" y="1140" on="1"/>
        <pt x="874" y="699" on="1"/>
        <pt x="1306" y="0" on="1"/>
        <pt x="895" y="0" on="1"/>
        <pt x="635" y="440" on="1"/>
        <pt x="527" y="323" on="1"/>
        <pt x="530" y="189" on="1"/>
        <pt x="530" y="0" on="1"/>
        <pt x="159" y="0" on="1"/>
      </contour>
    </TTGlyph>
    <TTGlyph name="kcommaaccent" xMin="159" yMin="-560" xMax="1306" yMax="1661">
      <component glyphName="commaaccent" x="483" y="0" flags="0x1004"/>
      <component glyphName="k" x="0" y="0" flags="0x1004"/>
    </TTGlyph>
    <TTGlyph name="kgreenlandic" xMin="163" yMin="0" xMax="1305" yMax="1140">
      <contour>
        <pt x="164" y="1140" on="1"/>
        <pt x="534" y="1140" on="1"/>
        <pt x="534" y="829" on="1"/>
        <pt x="527" y="682" on="1"/>
        <pt x="865" y="1140" on="1"/>
        <pt x="1276" y="1140" on="1"/>
        <pt x="880" y="678" on="1"/>
        <pt x="1305" y="0" on="1"/>
        <pt x="884" y="0" on="1"/>
        <pt x="641" y="398" on="1"/>
        <pt x="534" y="273" on="1"/>
        <pt x="534" y="0" on="1"/>
        <pt x="163" y="0" on="1"/>
      </contour>
    </TTGlyph>
    <TTGlyph name="l" xMin="163" yMin="0" xMax="534" yMax="1662">
      <contour>
        <pt x="163" y="1662" on="1"/>
        <pt x="534" y="1662" on="1"/>
        <pt x="534" y="0" on="1"/>
        <pt x="163" y="0" on="1"/>
      </contour>
    </TTGlyph>
    <TTGlyph name="lacute" xMin="163" yMin="0" xMax="701" yMax="1988">
      <contour>
        <pt x="163" y="1525" on="1"/>
        <pt x="534" y="1525" on="1"/>
        <pt x="534" y="0" on="1"/>
        <pt x="163" y="0" on="1"/>
      </contour>
      <contour>
        <pt x="179" y="1666" on="1"/>
        <pt x="341" y="1828" on="0"/>
        <pt x="414" y="1940" on="1"/>
        <pt x="432" y="1968" on="0"/>
        <pt x="439" y="1988" on="1"/>
        <pt x="701" y="1858" on="1"/>
        <pt x="610" y="1724" on="0"/>
        <pt x="464" y="1603" on="1"/>
        <pt x="397" y="1548" on="0"/>
        <pt x="352" y="1534" on="1"/>
      </contour>
    </TTGlyph>
    <TTGlyph name="lcaron" xMin="163" yMin="0" xMax="1049" yMax="1723">
      <component glyphName="l" x="0" y="0" flags="0x1004"/>
      <component glyphName="caronvertical" x="636" y="0" flags="0x1004"/>
    </TTGlyph>
    <TTGlyph name="lcommaaccent" xMin="163" yMin="-560" xMax="534" yMax="1662">
      <component glyphName="commaaccent" x="155" y="0" flags="0x1004"/>
      <component glyphName="l" x="0" y="0" flags="0x1004"/>
    </TTGlyph>
    <TTGlyph name="ldot" xMin="163" yMin="0" xMax="1091" yMax="1662">
      <component glyphName="l" x="0" y="0" flags="0x1004"/>
      <component glyphName="period" x="543" y="664" flags="0x1004"/>
    </TTGlyph>
    <TTGlyph name="less" xMin="211" yMin="213" xMax="1155" yMax="1356">
      <contour>
        <pt x="211" y="853" on="1"/>
        <pt x="1155" y="1356" on="1"/>
        <pt x="1155" y="1033" on="1"/>
        <pt x="642" y="774" on="1"/>
        <pt x="1155" y="547" on="1"/>
        <pt x="1155" y="213" on="1"/>
        <pt x="211" y="699" on="1"/>
      </contour>
    </TTGlyph>
    <TTGlyph name="lessequal" xMin="167" yMin="-2" xMax="1136" yMax="1311">
      <contour>
        <pt x="167" y="891" on="1"/>
        <pt x="1136" y="1311" on="1"/>
        <pt x="1136" y="1008" on="1"/>
        <pt x="582" y="804" on="1"/>
        <pt x="1136" y="605" on="1"/>
        <pt x="1136" y="312" on="1"/>
        <pt x="167" y="728" on="1"/>
      </contour>
      <contour>
        <pt x="167" y="234" on="1"/>
        <pt x="1136" y="234" on="1"/>
        <pt x="1136" y="-2" on="1"/>
        <pt x="167" y="-2" on="1"/>
      </contour>
    </TTGlyph>
    <TTGlyph name="logicalnot" xMin="244" yMin="299" xMax="1234" yMax="852">
      <contour>
        <pt x="244" y="852" on="1"/>
        <pt x="1234" y="852" on="1"/>
        <pt x="1234" y="299" on="1"/>
        <pt x="962" y="299" on="1"/>
        <pt x="962" y="604" on="1"/>
        <pt x="244" y="604" on="1"/>
      </contour>
    </TTGlyph>
    <TTGlyph name="lozenge" xMin="69" yMin="-2" xMax="1303" yMax="1549">
      <contour>
        <pt x="69" y="768" on="1"/>
        <pt x="69" y="781" on="1"/>
        <pt x="684" y="1549" on="1"/>
        <pt x="688" y="1549" on="1"/>
        <pt x="1303" y="781" on="1"/>
        <pt x="1303" y="768" on="1"/>
        <pt x="688" y="-2" on="1"/>
        <pt x="683" y="-2" on="1"/>
      </contour>
      <contour>
        <pt x="687" y="415" on="1"/>
        <pt x="960" y="773" on="1"/>
        <pt x="960" y="776" on="1"/>
        <pt x="687" y="1116" on="1"/>
        <pt x="684" y="1116" on="1"/>
        <pt x="412" y="776" on="1"/>
        <pt x="412" y="771" on="1"/>
        <pt x="684" y="415" on="1"/>
      </contour>
    </TTGlyph>
    <TTGlyph name="lslash" xMin="22" yMin="0" xMax="708" yMax="1662">
      <contour>
        <pt x="163" y="690" on="1"/>
        <pt x="22" y="639" on="1"/>
        <pt x="22" y="865" on="1"/>
        <pt x="163" y="918" on="1"/>
        <pt x="163" y="1662" on="1"/>
        <pt x="534" y="1662" on="1"/>
        <pt x="534" y="1060" on="1"/>
        <pt x="708" y="1126" on="1"/>
        <pt x="708" y="890" on="1"/>
        <pt x="534" y="826" on="1"/>
        <pt x="534" y="0" on="1"/>
        <pt x="163" y="0" on="1"/>
      </contour>
    </TTGlyph>
    <TTGlyph name="m" xMin="163" yMin="0" xMax="1915" yMax="1159">
      <contour>
        <pt x="1224" y="794" on="1"/>
        <pt x="1226" y="760" on="0"/>
        <pt x="1226" y="721" on="1"/>
        <pt x="1226" y="0" on="1"/>
        <pt x="858" y="0" on="1"/>
        <pt x="858" y="652" on="1"/>
        <pt x="858" y="776" on="0"/>
        <pt x="811" y="847" on="0"/>
        <pt x="758" y="867" on="0"/>
        <pt x="719" y="867" on="0"/>
        <pt x="696" y="867" on="0"/>
        <pt x="648" y="857" on="0"/>
        <pt x="624" y="848" on="1"/>
        <pt x="571" y="829" on="0"/>
        <pt x="533" y="793" on="1"/>
        <pt x="533" y="0" on="1"/>
        <pt x="163" y="0" on="1"/>
        <pt x="163" y="1140" on="1"/>
        <pt x="501" y="1140" on="1"/>
        <pt x="510" y="1018" on="1"/>
        <pt x="617" y="1107" on="0"/>
        <pt x="772" y="1144" on="1"/>
        <pt x="831" y="1158" on="0"/>
        <pt x="894" y="1158" on="1"/>
        <pt x="1091" y="1158" on="0"/>
        <pt x="1167" y="1026" on="1"/>
        <pt x="1334" y="1158" on="0"/>
        <pt x="1548" y="1158" on="1"/>
        <pt x="1730" y="1158" on="0"/>
        <pt x="1818" y="1064" on="1"/>
        <pt x="1915" y="959" on="0"/>
        <pt x="1915" y="719" on="1"/>
        <pt x="1915" y="0" on="1"/>
        <pt x="1544" y="0" on="1"/>
        <pt x="1544" y="653" on="1"/>
        <pt x="1544" y="777" on="0"/>
        <pt x="1497" y="848" on="0"/>
        <pt x="1444" y="867" on="0"/>
        <pt x="1404" y="867" on="0"/>
        <pt x="1400" y="867" on="1"/>
        <pt x="1308" y="867" on="0"/>
      </contour>
    </TTGlyph>
    <TTGlyph name="macron" xMin="53" yMin="1404" xMax="672" yMax="1642">
      <contour>
        <pt x="53" y="1642" on="1"/>
        <pt x="672" y="1642" on="1"/>
        <pt x="672" y="1404" on="1"/>
        <pt x="53" y="1404" on="1"/>
      </contour>
    </TTGlyph>
    <TTGlyph name="macron.cap" xMin="53" yMin="1675" xMax="672" yMax="1909">
      <contour>
        <pt x="53" y="1909" on="1"/>
        <pt x="672" y="1909" on="1"/>
        <pt x="672" y="1675" on="1"/>
        <pt x="53" y="1675" on="1"/>
      </contour>
    </TTGlyph>
    <TTGlyph name="minus" xMin="254" yMin="626" xMax="1104" yMax="904">
      <contour>
        <pt x="254" y="904" on="1"/>
        <pt x="1104" y="904" on="1"/>
        <pt x="1104" y="626" on="1"/>
        <pt x="254" y="626" on="1"/>
      </contour>
    </TTGlyph>
    <TTGlyph name="minute" xMin="139" yMin="1190" xMax="603" yMax="1850">
      <contour>
        <pt x="257" y="1850" on="1"/>
        <pt x="603" y="1850" on="1"/>
        <pt x="417" y="1190" on="1"/>
        <pt x="139" y="1190" on="1"/>
      </contour>
    </TTGlyph>
    <TTGlyph name="mu" xMin="150" yMin="-371" xMax="1377" yMax="1140">
      <contour>
        <pt x="664" y="-16" on="1"/>
        <pt x="523" y="-16" on="0"/>
        <pt x="456" y="44" on="1"/>
        <pt x="485" y="-371" on="1"/>
        <pt x="150" y="-371" on="1"/>
        <pt x="150" y="1140" on="1"/>
        <pt x="520" y="1140" on="1"/>
        <pt x="520" y="490" on="1"/>
        <pt x="520" y="367" on="0"/>
        <pt x="600" y="256" on="0"/>
        <pt x="784" y="256" on="0"/>
        <pt x="842" y="310" on="1"/>
        <pt x="842" y="1140" on="1"/>
        <pt x="1212" y="1140" on="1"/>
        <pt x="1212" y="315" on="1"/>
        <pt x="1212" y="239" on="0"/>
        <pt x="1261" y="239" on="1"/>
        <pt x="1302" y="239" on="0"/>
        <pt x="1346" y="266" on="1"/>
        <pt x="1377" y="87" on="1"/>
        <pt x="1360" y="59" on="0"/>
        <pt x="1308" y="34" on="1"/>
        <pt x="1200" y="-18" on="0"/>
        <pt x="1096" y="-18" on="1"/>
        <pt x="928" y="-18" on="0"/>
        <pt x="913" y="120" on="1"/>
        <pt x="842" y="-16" on="0"/>
      </contour>
    </TTGlyph>
    <TTGlyph name="multiply" xMin="149" yMin="206" xMax="1255" yMax="1351">
      <contour>
        <pt x="149" y="392" on="1"/>
        <pt x="528" y="775" on="1"/>
        <pt x="149" y="1172" on="1"/>
        <pt x="335" y="1351" on="1"/>
        <pt x="703" y="952" on="1"/>
        <pt x="1069" y="1351" on="1"/>
        <pt x="1255" y="1172" on="1"/>
        <pt x="876" y="777" on="1"/>
        <pt x="1254" y="392" on="1"/>
        <pt x="1067" y="206" on="1"/>
        <pt x="701" y="593" on="1"/>
        <pt x="335" y="206" on="1"/>
      </contour>
    </TTGlyph>
    <TTGlyph name="n" xMin="163" yMin="0" xMax="1230" yMax="1159">
      <contour>
        <pt x="163" y="1140" on="1"/>
        <pt x="501" y="1140" on="1"/>
        <pt x="510" y="1018" on="1"/>
        <pt x="617" y="1108" on="0"/>
        <pt x="778" y="1145" on="1"/>
        <pt x="835" y="1158" on="0"/>
        <pt x="974" y="1158" on="0"/>
        <pt x="1100" y="1115" on="0"/>
        <pt x="1144" y="1063" on="1"/>
        <pt x="1230" y="960" on="0"/>
        <pt x="1230" y="718" on="1"/>
        <pt x="1230" y="0" on="1"/>
        <pt x="860" y="0" on="1"/>
        <pt x="860" y="652" on="1"/>
        <pt x="860" y="776" on="0"/>
        <pt x="828" y="823" on="1"/>
        <pt x="798" y="867" on="0"/>
        <pt x="722" y="867" on="1"/>
        <pt x="719" y="867" on="0"/>
        <pt x="674" y="867" on="0"/>
        <pt x="571" y="829" on="0"/>
        <pt x="533" y="793" on="1"/>
        <pt x="533" y="0" on="1"/>
        <pt x="163" y="0" on="1"/>
      </contour>
    </TTGlyph>
    <TTGlyph name="nacute" xMin="163" yMin="0" xMax="1230" yMax="1825">
      <component glyphName="acute" x="588" y="0" flags="0x1004"/>
      <component glyphName="n" x="0" y="0" flags="0x1004"/>
    </TTGlyph>
    <TTGlyph name="napostrophe" xMin="163" yMin="-560" xMax="1230" yMax="1159">
      <component glyphName="commaaccent" x="487" y="0" flags="0x1004"/>
      <component glyphName="n" x="0" y="0" flags="0x1004"/>
    </TTGlyph>
    <TTGlyph name="ncaron" xMin="163" yMin="0" xMax="1230" yMax="1739">
      <component glyphName="caron" x="326" y="7" flags="0x1004"/>
      <component glyphName="n" x="0" y="0" flags="0x1004"/>
    </TTGlyph>
    <TTGlyph name="ncommaaccent" xMin="163" yMin="-560" xMax="1230" yMax="1159">
      <component glyphName="commaaccent" x="487" y="0" flags="0x1004"/>
      <component glyphName="n" x="0" y="0" flags="0x1004"/>
    </TTGlyph>
    <TTGlyph name="nine" xMin="123" yMin="-416" xMax="1340" yMax="1270">
      <contour>
        <pt x="567" y="514" on="0"/>
        <pt x="633" y="481" on="0"/>
        <pt x="731" y="481" on="0"/>
        <pt x="803" y="505" on="1"/>
        <pt x="868" y="314" on="1"/>
        <pt x="819" y="247" on="0"/>
        <pt x="673" y="217" on="1"/>
        <pt x="619" y="206" on="0"/>
        <pt x="458" y="206" on="0"/>
        <pt x="300" y="281" on="0"/>
        <pt x="243" y="347" on="1"/>
        <pt x="123" y="486" on="0"/>
        <pt x="123" y="698" on="1"/>
        <pt x="123" y="952" on="0"/>
        <pt x="282" y="1106" on="1"/>
        <pt x="452" y="1270" on="0"/>
        <pt x="754" y="1270" on="1"/>
        <pt x="1016" y="1270" on="0"/>
        <pt x="1178" y="1093" on="1"/>
        <pt x="1340" y="916" on="0"/>
        <pt x="1340" y="632" on="1"/>
        <pt x="1340" y="342" on="0"/>
        <pt x="1186" y="96" on="1"/>
        <pt x="1053" y="-116" on="0"/>
        <pt x="828" y="-261" on="1"/>
        <pt x="623" y="-393" on="0"/>
        <pt x="431" y="-416" on="1"/>
        <pt x="343" y="-204" on="1"/>
        <pt x="528" y="-159" on="0"/>
        <pt x="673" y="-29" on="1"/>
        <pt x="869" y="147" on="0"/>
        <pt x="929" y="405" on="1"/>
        <pt x="948" y="488" on="0"/>
        <pt x="948" y="666" on="0"/>
        <pt x="922" y="829" on="0"/>
        <pt x="894" y="890" on="1"/>
        <pt x="834" y="1016" on="0"/>
        <pt x="605" y="1016" on="0"/>
        <pt x="489" y="886" on="0"/>
        <pt x="489" y="692" on="0"/>
        <pt x="517" y="584" on="0"/>
      </contour>
    </TTGlyph>
    <TTGlyph name="notequal" xMin="253" yMin="179" xMax="1177" yMax="1346">
      <contour>
        <pt x="482" y="395" on="1"/>
        <pt x="253" y="395" on="1"/>
        <pt x="253" y="647" on="1"/>
        <pt x="568" y="647" on="1"/>
        <pt x="653" y="904" on="1"/>
        <pt x="253" y="904" on="1"/>
        <pt x="253" y="1155" on="1"/>
        <pt x="737" y="1155" on="1"/>
        <pt x="798" y="1346" on="1"/>
        <pt x="1010" y="1346" on="1"/>
        <pt x="943" y="1155" on="1"/>
        <pt x="1177" y="1155" on="1"/>
        <pt x="1177" y="904" on="1"/>
        <pt x="857" y="904" on="1"/>
        <pt x="773" y="647" on="1"/>
        <pt x="1177" y="647" on="1"/>
        <pt x="1177" y="395" on="1"/>
        <pt x="690" y="395" on="1"/>
        <pt x="619" y="179" on="1"/>
        <pt x="409" y="179" on="1"/>
      </contour>
    </TTGlyph>
    <TTGlyph name="ntilde" xMin="163" yMin="0" xMax="1233" yMax="1697">
      <component glyphName="n" x="0" y="0" flags="0x1204"/>
      <component glyphName="tilde" x="305" y="0" flags="0x1004"/>
    </TTGlyph>
    <TTGlyph name="numbersign" xMin="206" yMin="0" xMax="1511" yMax="1373">
      <contour>
        <pt x="383" y="305" on="1"/>
        <pt x="206" y="305" on="1"/>
        <pt x="206" y="553" on="1"/>
        <pt x="407" y="553" on="1"/>
        <pt x="435" y="838" on="1"/>
        <pt x="247" y="838" on="1"/>
        <pt x="247" y="1075" on="1"/>
        <pt x="457" y="1075" on="1"/>
        <pt x="486" y="1373" on="1"/>
        <pt x="788" y="1373" on="1"/>
        <pt x="759" y="1075" on="1"/>
        <pt x="1022" y="1075" on="1"/>
        <pt x="1050" y="1373" on="1"/>
        <pt x="1349" y="1373" on="1"/>
        <pt x="1320" y="1075" on="1"/>
        <pt x="1511" y="1075" on="1"/>
        <pt x="1511" y="838" on="1"/>
        <pt x="1297" y="838" on="1"/>
        <pt x="1269" y="553" on="1"/>
        <pt x="1467" y="553" on="1"/>
        <pt x="1467" y="305" on="1"/>
        <pt x="1245" y="305" on="1"/>
        <pt x="1216" y="0" on="1"/>
        <pt x="922" y="0" on="1"/>
        <pt x="950" y="305" on="1"/>
        <pt x="683" y="305" on="1"/>
        <pt x="653" y="0" on="1"/>
        <pt x="354" y="0" on="1"/>
      </contour>
      <contour>
        <pt x="973" y="553" on="1"/>
        <pt x="1000" y="838" on="1"/>
        <pt x="735" y="838" on="1"/>
        <pt x="707" y="553" on="1"/>
      </contour>
    </TTGlyph>
    <TTGlyph name="o" xMin="85" yMin="-16" xMax="1245" yMax="1156">
      <contour>
        <pt x="138" y="290" on="1"/>
        <pt x="110" y="357" on="0"/>
        <pt x="86" y="505" on="0"/>
        <pt x="86" y="725" on="0"/>
        <pt x="177" y="940" on="0"/>
        <pt x="255" y="1012" on="1"/>
        <pt x="413" y="1156" on="0"/>
        <pt x="676" y="1156" on="1"/>
        <pt x="1066" y="1156" on="0"/>
        <pt x="1193" y="850" on="1"/>
        <pt x="1244" y="727" on="0"/>
        <pt x="1244" y="560" on="1"/>
        <pt x="1244" y="281" on="0"/>
        <pt x="1076" y="128" on="1"/>
        <pt x="918" y="-16" on="0"/>
        <pt x="655" y="-16" on="1"/>
        <pt x="265" y="-16" on="0"/>
      </contour>
      <contour>
        <pt x="471" y="582" on="1"/>
        <pt x="471" y="239" on="0"/>
        <pt x="663" y="239" on="1"/>
        <pt x="770" y="239" on="0"/>
        <pt x="816" y="320" on="1"/>
        <pt x="859" y="395" on="0"/>
        <pt x="859" y="564" on="1"/>
        <pt x="859" y="899" on="0"/>
        <pt x="669" y="899" on="1"/>
        <pt x="512" y="899" on="0"/>
        <pt x="481" y="719" on="1"/>
        <pt x="471" y="660" on="0"/>
      </contour>
    </TTGlyph>
    <TTGlyph name="oacute" xMin="85" yMin="-16" xMax="1245" yMax="1825">
      <component glyphName="acute" x="484" y="0" flags="0x1004"/>
      <component glyphName="o" x="0" y="0" flags="0x1004"/>
    </TTGlyph>
    <TTGlyph name="obreve" xMin="85" yMin="-16" xMax="1245" yMax="1688">
      <component glyphName="o" x="0" y="0" flags="0x1204"/>
      <component glyphName="breve" x="259" y="0" flags="0x1004"/>
    </TTGlyph>
    <TTGlyph name="ocircumflex" xMin="85" yMin="-16" xMax="1245" yMax="1733">
      <component glyphName="circumflex" x="226" y="0" flags="0x1004"/>
      <component glyphName="o" x="0" y="0" flags="0x1004"/>
    </TTGlyph>
    <TTGlyph name="odieresis" xMin="85" yMin="-16" xMax="1245" yMax="1675">
      <component glyphName="dieresis" x="155" y="0" flags="0x1004"/>
      <component glyphName="o" x="0" y="0" flags="0x1004"/>
    </TTGlyph>
    <TTGlyph name="oe" xMin="85" yMin="-16" xMax="1909" yMax="1156">
      <contour>
        <pt x="1046" y="109" on="1"/>
        <pt x="895" y="-16" on="0"/>
        <pt x="654" y="-16" on="1"/>
        <pt x="264" y="-16" on="0"/>
        <pt x="137" y="290" on="1"/>
        <pt x="86" y="413" on="0"/>
        <pt x="86" y="580" on="1"/>
        <pt x="86" y="857" on="0"/>
        <pt x="254" y="1012" on="1"/>
        <pt x="412" y="1156" on="0"/>
        <pt x="921" y="1156" on="0"/>
        <pt x="1060" y="1030" on="1"/>
        <pt x="1207" y="1156" on="0"/>
        <pt x="1434" y="1156" on="1"/>
        <pt x="1763" y="1156" on="0"/>
        <pt x="1869" y="920" on="1"/>
        <pt x="1909" y="830" on="0"/>
        <pt x="1909" y="568" on="0"/>
        <pt x="1898" y="487" on="1"/>
        <pt x="1233" y="487" on="1"/>
        <pt x="1250" y="303" on="0"/>
        <pt x="1404" y="263" on="1"/>
        <pt x="1454" y="250" on="0"/>
        <pt x="1557" y="250" on="0"/>
        <pt x="1647" y="260" on="0"/>
        <pt x="1688" y="268" on="1"/>
        <pt x="1776" y="285" on="0"/>
        <pt x="1820" y="308" on="1"/>
        <pt x="1876" y="107" on="1"/>
        <pt x="1777" y="26" on="0"/>
        <pt x="1574" y="-6" on="1"/>
        <pt x="1506" y="-16" on="0"/>
        <pt x="1430" y="-16" on="1"/>
        <pt x="1187" y="-16" on="0"/>
      </contour>
      <contour>
        <pt x="1569" y="668" on="1"/>
        <pt x="1570" y="690" on="0"/>
        <pt x="1570" y="710" on="1"/>
        <pt x="1570" y="803" on="0"/>
        <pt x="1510" y="917" on="0"/>
        <pt x="1426" y="917" on="1"/>
        <pt x="1261" y="917" on="0"/>
        <pt x="1236" y="668" on="1"/>
      </contour>
      <contour>
        <pt x="474" y="582" on="1"/>
        <pt x="474" y="239" on="0"/>
        <pt x="662" y="239" on="1"/>
        <pt x="769" y="239" on="0"/>
        <pt x="814" y="320" on="1"/>
        <pt x="855" y="394" on="0"/>
        <pt x="855" y="564" on="1"/>
        <pt x="855" y="899" on="0"/>
        <pt x="667" y="899" on="1"/>
        <pt x="560" y="899" on="0"/>
        <pt x="515" y="818" on="1"/>
        <pt x="474" y="743" on="0"/>
      </contour>
    </TTGlyph>
    <TTGlyph name="ogonek" xMin="63" yMin="-518" xMax="566" yMax="29">
      <contour>
        <pt x="566" y="-451" on="1"/>
        <pt x="476" y="-518" on="0"/>
        <pt x="328" y="-518" on="1"/>
        <pt x="158" y="-518" on="0"/>
        <pt x="90" y="-423" on="1"/>
        <pt x="63" y="-384" on="0"/>
        <pt x="63" y="-271" on="0"/>
        <pt x="99" y="-177" on="0"/>
        <pt x="133" y="-136" on="1"/>
        <pt x="191" y="-65" on="0"/>
        <pt x="286" y="-11" on="1"/>
        <pt x="550" y="29" on="1"/>
        <pt x="440" y="-41" on="0"/>
        <pt x="399" y="-84" on="1"/>
        <pt x="323" y="-163" on="0"/>
        <pt x="323" y="-233" on="1"/>
        <pt x="323" y="-284" on="0"/>
        <pt x="389" y="-317" on="0"/>
        <pt x="500" y="-317" on="0"/>
        <pt x="563" y="-304" on="1"/>
      </contour>
    </TTGlyph>
    <TTGlyph name="ograve" xMin="85" yMin="-16" xMax="1245" yMax="1825">
      <component glyphName="o" x="0" y="0" flags="0x1204"/>
      <component glyphName="grave" x="152" y="0" flags="0x1004"/>
    </TTGlyph>
    <TTGlyph name="ohungarumlaut" xMin="85" yMin="-16" xMax="1322" yMax="1844">
      <component glyphName="hungarumlaut" x="254" y="7" flags="0x1004"/>
      <component glyphName="o" x="0" y="0" flags="0x1004"/>
    </TTGlyph>
    <TTGlyph name="omacron" xMin="85" yMin="-16" xMax="1245" yMax="1642">
      <component glyphName="macron" x="310" y="0" flags="0x1004"/>
      <component glyphName="o" x="0" y="0" flags="0x1004"/>
    </TTGlyph>
    <TTGlyph name="one" xMin="125" yMin="0" xMax="770" yMax="1278">
      <contour>
        <pt x="382" y="878" on="1"/>
        <pt x="300" y="859" on="0"/>
        <pt x="155" y="836" on="1"/>
        <pt x="125" y="1060" on="1"/>
        <pt x="262" y="1093" on="0"/>
        <pt x="456" y="1196" on="1"/>
        <pt x="539" y="1240" on="0"/>
        <pt x="585" y="1278" on="1"/>
        <pt x="770" y="1249" on="1"/>
        <pt x="767" y="0" on="1"/>
        <pt x="382" y="0" on="1"/>
      </contour>
    </TTGlyph>
    <TTGlyph name="onehalf" xMin="204" yMin="-9" xMax="2425" yMax="1714">
      <component glyphName="twosuperior" x="1344" y="-689" flags="0x1004"/>
      <component glyphName="onesuperior" x="39" y="0" flags="0x1004"/>
      <component glyphName="fraction" x="659" y="0" flags="0x1004"/>
    </TTGlyph>
</ttFont>
